{"glyphs":{"0":{"ha":806,"x_min":85,"x_max":721,"o":"m 721 674 l 721 217 q 702 113 721 157 q 655 45 683 69 q 582 7 626 21 q 497 -10 538 -7 q 401 -14 457 -14 q 305 -10 344 -14 q 220 6 265 -7 q 148 44 175 19 q 103 112 121 68 q 85 217 85 156 l 85 672 q 103 784 85 738 q 150 856 122 831 q 224 896 178 882 q 308 913 269 910 q 401 917 346 917 q 497 913 458 917 q 582 896 536 910 q 656 857 628 882 q 702 785 683 832 q 721 674 721 739 m 594 210 l 594 682 q 551 808 594 781 q 403 835 507 835 q 253 808 296 835 q 211 682 211 781 l 211 210 q 256 94 211 119 q 404 68 300 68 q 551 94 508 68 q 594 210 594 119 z "},"1":{"ha":806,"x_min":169,"x_max":564,"o":"m 564 0 l 443 0 l 443 776 l 169 597 l 169 711 l 444 901 l 564 901 l 564 0 z "},"2":{"ha":806,"x_min":100,"x_max":706,"o":"m 706 0 l 100 0 l 100 161 q 114 235 100 201 q 147 292 128 269 q 201 337 165 314 q 262 372 238 360 q 332 404 286 385 l 482 471 q 571 592 571 511 l 571 715 q 530 801 571 781 q 396 822 489 822 q 132 793 300 822 l 132 890 q 422 917 276 917 q 638 872 571 917 q 706 721 706 828 l 706 574 q 667 460 706 499 q 528 375 628 421 l 319 279 q 228 157 228 238 l 228 97 l 706 97 l 706 0 z "},"3":{"ha":806,"x_min":107,"x_max":699,"o":"m 699 360 l 699 179 q 677 92 699 129 q 625 35 656 56 q 547 3 594 15 q 460 -11 500 -8 q 369 -14 421 -14 q 107 13 257 -14 l 107 113 q 383 78 275 78 q 568 182 568 78 l 568 336 q 552 384 568 365 q 506 410 536 403 q 453 420 476 418 q 396 422 429 422 l 222 422 l 222 508 l 372 508 q 428 510 406 508 q 482 520 451 513 q 529 547 513 528 q 546 597 546 567 l 546 758 q 379 829 546 829 q 125 807 272 829 l 125 903 q 378 915 244 915 q 600 883 528 915 q 672 765 672 850 l 672 592 q 636 519 672 546 q 549 483 600 492 l 549 478 q 603 466 581 472 q 649 447 625 460 q 686 413 674 435 q 699 360 699 390 z "},"4":{"ha":806,"x_min":72,"x_max":733,"o":"m 733 197 l 636 197 l 636 0 l 521 0 l 521 197 l 72 197 l 72 307 l 481 901 l 636 901 l 636 293 l 733 293 l 733 197 m 521 293 l 521 792 l 183 293 l 521 293 z "},"5":{"ha":806,"x_min":121,"x_max":685,"o":"m 685 385 l 685 179 q 667 92 685 129 q 621 35 649 56 q 551 3 593 15 q 472 -11 508 -8 q 386 -14 435 -14 q 121 11 274 -14 l 121 111 q 390 78 282 78 q 513 101 472 78 q 554 182 554 125 l 554 361 q 542 409 554 390 q 504 435 529 428 q 459 445 479 443 q 408 447 439 447 l 142 447 l 142 901 l 661 901 l 661 807 l 267 807 l 267 533 l 475 533 q 570 522 526 533 q 649 475 614 510 q 685 385 685 440 z "},"6":{"ha":806,"x_min":99,"x_max":707,"o":"m 707 349 l 707 217 q 683 93 707 142 q 613 22 660 44 q 518 -7 565 0 q 401 -14 471 -14 q 306 -10 344 -14 q 225 6 268 -7 q 157 44 182 19 q 115 112 132 68 q 99 217 99 156 l 99 672 q 119 784 99 738 q 171 856 140 831 q 251 896 201 882 q 340 913 300 910 q 436 917 381 917 q 664 904 521 917 l 664 810 q 418 828 517 828 q 266 801 310 828 q 222 675 222 774 l 222 533 l 426 533 q 528 531 492 533 q 604 519 564 529 q 663 490 644 510 q 694 436 682 471 q 707 349 707 401 m 583 210 l 583 344 q 549 432 583 411 q 403 453 515 453 l 222 453 l 222 210 q 262 94 222 119 q 404 68 301 68 q 545 93 507 68 q 583 210 583 118 z "},"7":{"ha":806,"x_min":86,"x_max":719,"o":"m 719 811 l 375 0 l 242 0 l 603 811 l 86 811 l 86 901 l 719 901 l 719 811 z "},"8":{"ha":806,"x_min":82,"x_max":722,"o":"m 722 165 q 647 26 722 67 q 401 -14 571 -14 q 158 26 233 -14 q 82 163 82 67 l 82 331 q 126 424 82 388 q 238 475 171 460 l 238 481 q 144 524 176 494 q 113 610 113 554 l 113 750 q 124 817 113 789 q 167 869 136 844 q 256 905 197 893 q 401 917 314 917 q 547 905 489 917 q 636 869 606 893 q 678 817 667 844 q 690 750 690 789 l 690 610 q 659 524 690 554 q 567 481 628 494 l 567 475 q 678 424 633 460 q 722 331 722 388 l 722 165 m 564 597 l 564 743 q 526 815 564 794 q 401 836 489 836 q 276 815 314 836 q 239 743 239 794 l 239 597 q 275 524 239 543 q 401 506 311 506 q 528 524 492 506 q 564 597 564 543 m 586 158 l 586 326 q 572 383 586 361 q 526 415 557 406 q 469 426 494 424 q 401 428 444 428 q 333 426 358 428 q 277 415 308 424 q 231 383 246 406 q 217 326 217 361 l 217 158 q 258 88 217 108 q 401 67 300 67 q 544 88 503 67 q 586 158 586 108 z "},"9":{"ha":806,"x_min":99,"x_max":707,"o":"m 707 686 l 707 231 q 628 42 707 97 q 376 -14 550 -14 q 142 1 258 -14 l 142 94 q 372 71 271 71 q 538 109 492 71 q 583 250 583 147 l 583 368 l 379 368 q 278 370 314 368 q 201 382 242 372 q 142 411 161 392 q 111 465 124 431 q 99 553 99 500 l 99 686 q 122 810 99 761 q 193 881 146 858 q 288 910 240 903 q 404 917 335 917 q 499 913 461 917 q 581 897 538 910 q 649 859 624 883 q 690 791 674 835 q 707 686 707 747 m 583 693 q 544 809 583 783 q 401 835 504 835 q 260 810 299 835 q 222 693 222 785 l 222 557 q 256 469 222 490 q 403 449 290 449 l 583 449 l 583 693 z "}," ":{"ha":319,"x_min":0,"x_max":0,"o":""},"!":{"ha":389,"x_min":111,"x_max":278,"o":"m 278 901 l 229 249 l 160 249 l 111 901 l 278 901 m 275 0 l 114 0 l 114 150 l 275 150 l 275 0 z "},"\"":{"ha":615,"x_min":118,"x_max":497,"o":"m 238 596 l 118 596 l 118 901 l 238 901 l 238 596 m 497 596 l 378 596 l 378 901 l 497 901 l 497 596 z "},"#":{"ha":806,"x_min":83,"x_max":722,"o":"m 328 363 l 444 363 l 481 539 l 363 539 l 328 363 m 722 276 l 519 276 l 465 0 l 374 0 l 428 276 l 311 276 l 257 0 l 165 0 l 219 276 l 83 276 l 83 363 l 236 363 l 272 539 l 83 539 l 83 625 l 289 625 l 340 888 l 432 888 l 381 625 l 497 625 l 549 888 l 640 888 l 589 625 l 722 625 l 722 539 l 571 539 l 536 363 l 722 363 l 722 276 z "},"$":{"ha":806,"x_min":83,"x_max":728,"o":"m 446 403 l 446 89 q 557 117 518 93 q 596 194 596 140 l 596 297 q 563 378 596 354 q 446 403 531 403 m 367 503 l 367 793 q 244 762 275 788 q 214 682 214 736 l 214 593 q 248 524 214 546 q 367 503 282 503 m 446 -194 l 367 -194 l 367 -14 q 101 8 265 -14 l 101 118 q 151 108 103 118 q 219 97 200 99 q 281 90 238 94 q 367 86 325 86 l 367 403 l 326 403 q 137 458 190 403 q 83 619 83 513 l 83 678 q 145 826 83 775 q 367 886 207 878 l 367 985 l 446 985 l 446 888 q 669 872 538 888 l 669 774 q 446 794 499 793 l 446 503 l 488 503 q 678 452 628 503 q 728 292 728 401 l 728 240 q 658 54 728 111 q 446 -11 588 -3 l 446 -194 z "},"%":{"ha":1188,"x_min":64,"x_max":1124,"o":"m 501 746 l 501 572 q 484 497 501 526 q 433 456 467 468 q 366 439 399 443 q 283 435 333 435 q 201 439 233 435 q 133 456 168 443 q 81 497 99 468 q 64 572 64 526 l 64 746 q 123 870 64 839 q 283 901 182 901 q 443 870 385 901 q 501 746 501 839 m 393 578 l 393 751 q 367 815 393 801 q 283 829 342 829 q 198 815 224 829 q 172 751 172 801 l 172 578 q 199 520 172 533 q 283 507 225 507 q 367 520 342 507 q 393 578 393 533 m 878 917 l 428 -14 l 321 -14 l 771 917 l 878 917 m 1124 297 l 1124 124 q 1106 49 1124 78 q 1055 7 1089 19 q 988 -10 1021 -6 q 906 -14 956 -14 q 823 -10 856 -14 q 756 7 790 -6 q 703 49 721 19 q 686 124 686 78 l 686 297 q 745 422 686 390 q 906 453 804 453 q 1065 422 1007 453 q 1124 297 1124 390 m 1015 129 l 1015 303 q 990 367 1015 353 q 906 381 964 381 q 820 367 846 381 q 794 303 794 353 l 794 129 q 821 72 794 85 q 906 58 847 58 q 990 72 964 58 q 1015 129 1015 85 z "},"&":{"ha":883,"x_min":83,"x_max":847,"o":"m 326 431 l 278 410 q 231 367 249 396 q 214 310 214 339 l 214 140 q 396 72 214 72 l 411 72 q 594 111 546 72 l 326 431 m 757 290 q 728 135 757 196 q 811 82 783 82 l 847 82 l 847 0 l 758 0 q 657 47 711 0 q 386 -14 569 -14 q 83 146 83 -14 l 83 297 q 211 460 83 403 l 276 490 l 222 554 q 179 650 179 604 l 179 785 q 410 917 179 917 q 599 896 503 917 l 599 794 q 407 829 494 829 q 322 817 347 829 q 297 774 297 804 l 297 671 q 311 633 297 650 l 647 226 q 651 285 651 251 l 651 418 l 757 418 l 757 290 z "},"'":{"ha":356,"x_min":118,"x_max":238,"o":"m 238 596 l 118 596 l 118 901 l 238 901 l 238 596 z "},"(":{"ha":460,"x_min":110,"x_max":424,"o":"m 424 -176 l 311 -176 q 110 383 110 124 q 162 662 110 531 q 311 943 214 793 l 424 943 q 281 651 332 783 q 231 383 231 519 q 282 111 231 246 q 424 -176 333 -24 z "},")":{"ha":460,"x_min":36,"x_max":350,"o":"m 350 383 q 149 -176 350 124 l 36 -176 q 178 111 126 -24 q 229 383 229 246 q 178 649 229 518 q 36 943 128 779 l 149 943 q 298 662 246 793 q 350 383 350 531 z "},"*":{"ha":553,"x_min":36,"x_max":517,"o":"m 517 689 l 331 649 l 457 501 l 372 444 l 276 610 l 179 444 l 96 501 l 226 649 l 36 689 l 68 785 l 247 710 l 229 901 l 331 901 l 313 710 l 486 785 l 517 689 z "},"+":{"ha":694,"x_min":83,"x_max":611,"o":"m 393 715 l 393 485 l 611 485 l 611 392 l 393 392 l 393 160 l 300 160 l 300 392 l 83 392 l 83 485 l 300 485 l 300 715 l 393 715 z "},",":{"ha":356,"x_min":54,"x_max":265,"o":"m 265 150 l 135 -156 l 54 -156 l 118 150 l 265 150 z "},"-":{"ha":497,"x_min":56,"x_max":442,"o":"m 442 347 l 56 347 l 56 447 l 442 447 l 442 347 z "},".":{"ha":356,"x_min":97,"x_max":258,"o":"m 258 0 l 97 0 l 97 150 l 258 150 l 258 0 z "},"/":{"ha":585,"x_min":14,"x_max":571,"o":"m 571 917 l 121 -14 l 14 -14 l 464 917 l 571 917 z "},":":{"ha":356,"x_min":97,"x_max":258,"o":"m 258 522 l 97 522 l 97 672 l 258 672 l 258 522 m 258 0 l 97 0 l 97 150 l 258 150 l 258 0 z "},";":{"ha":356,"x_min":54,"x_max":265,"o":"m 258 522 l 97 522 l 97 672 l 258 672 l 258 522 m 265 150 l 135 -156 l 54 -156 l 118 150 l 265 150 z "},"<":{"ha":694,"x_min":83,"x_max":611,"o":"m 611 199 l 611 86 l 83 382 l 83 482 l 611 778 l 611 665 l 192 428 l 611 199 z "},"=":{"ha":694,"x_min":83,"x_max":611,"o":"m 611 503 l 83 503 l 83 596 l 611 596 l 611 503 m 611 281 l 83 281 l 83 374 l 611 374 l 611 281 z "},">":{"ha":694,"x_min":83,"x_max":611,"o":"m 83 86 l 83 199 l 503 428 l 83 665 l 83 778 l 611 482 l 611 382 l 83 86 z "},"?":{"ha":740,"x_min":83,"x_max":657,"o":"m 288 238 l 288 271 q 312 397 288 346 q 371 474 336 447 q 440 523 406 500 q 499 581 475 546 q 524 668 524 617 l 524 710 q 482 796 524 775 q 349 817 440 817 q 83 788 251 817 l 83 889 q 375 915 229 915 q 590 871 524 915 q 657 719 657 826 l 657 650 q 638 556 657 597 q 592 491 619 515 q 531 443 564 467 q 469 402 497 419 q 423 358 442 385 q 404 297 404 331 l 404 238 l 288 238 m 425 0 l 264 0 l 264 150 l 425 150 l 425 0 z "},"@":{"ha":1024,"x_min":83,"x_max":940,"o":"m 940 547 l 940 201 q 906 106 940 133 q 803 78 871 78 l 760 78 q 681 92 713 78 q 643 129 650 107 q 600 88 629 99 q 485 78 571 78 q 325 116 372 78 q 278 275 278 154 l 278 428 q 328 570 278 531 q 513 610 378 610 q 691 570 649 610 q 733 428 733 531 l 733 179 q 746 153 733 160 q 788 146 758 146 q 828 152 817 146 q 839 179 839 158 l 839 564 q 805 649 839 614 q 716 701 771 685 q 610 724 661 717 q 504 731 558 731 q 401 724 450 731 q 302 701 353 717 q 222 649 251 685 q 192 564 192 614 l 192 110 q 222 31 192 64 q 304 -17 253 -1 q 404 -40 356 -33 q 506 -46 453 -46 q 690 -33 585 -46 q 833 -10 796 -19 l 833 -90 q 699 -113 799 -101 q 503 -125 599 -125 q 394 -120 446 -125 q 284 -99 343 -115 q 183 -58 225 -83 q 112 14 140 -32 q 83 119 83 60 l 83 546 q 125 680 83 625 q 237 760 167 735 q 370 794 307 785 q 503 804 433 804 q 642 795 576 804 q 780 761 707 786 q 897 681 853 736 q 940 547 940 626 m 632 256 l 632 422 q 612 519 632 501 q 508 538 592 538 q 407 519 428 538 q 386 422 386 500 l 386 256 q 408 167 386 185 q 508 149 429 149 q 610 168 588 149 q 632 256 632 188 z "},"A":{"ha":906,"x_min":21,"x_max":885,"o":"m 885 0 l 744 0 l 642 274 l 256 274 l 154 0 l 21 0 l 379 901 l 535 901 l 885 0 m 608 367 l 456 774 l 443 774 l 290 367 l 608 367 z "},"B":{"ha":851,"x_min":117,"x_max":768,"o":"m 768 331 l 768 179 q 693 40 768 81 q 449 0 618 0 l 117 0 l 117 901 l 439 901 q 622 878 556 901 q 708 819 688 854 q 728 731 728 785 l 728 610 q 697 525 728 554 q 604 482 665 496 l 604 476 q 722 426 676 464 q 768 331 768 389 m 601 614 l 601 719 q 564 792 601 771 q 439 813 526 813 l 251 813 l 251 507 l 443 507 q 565 533 529 507 q 601 614 601 558 m 633 185 l 633 321 q 619 378 633 357 q 573 409 604 400 q 517 420 542 418 q 449 422 493 422 l 251 422 l 251 93 l 449 93 q 592 114 550 93 q 633 185 633 135 z "},"C":{"ha":783,"x_min":89,"x_max":721,"o":"m 721 13 q 468 -14 600 -14 q 89 231 89 -14 l 89 658 q 468 917 89 917 q 715 890 594 917 l 715 790 q 471 824 582 824 q 378 817 418 824 q 299 795 338 811 q 239 745 260 779 q 218 660 218 711 l 218 238 q 476 82 218 82 q 721 115 588 82 l 721 13 z "},"D":{"ha":943,"x_min":117,"x_max":854,"o":"m 854 643 l 854 244 q 476 0 854 0 l 117 0 l 117 901 l 475 901 q 854 643 854 901 m 725 247 l 725 644 q 704 730 725 696 q 645 780 683 764 q 567 802 607 796 q 474 808 526 808 l 251 808 l 251 92 l 467 92 q 725 247 725 92 z "},"E":{"ha":806,"x_min":117,"x_max":736,"o":"m 736 0 l 117 0 l 117 901 l 722 901 l 722 807 l 251 807 l 251 513 l 676 513 l 676 418 l 251 418 l 251 94 l 736 94 l 736 0 z "},"F":{"ha":778,"x_min":117,"x_max":736,"o":"m 736 807 l 251 807 l 251 513 l 690 513 l 690 418 l 251 418 l 251 0 l 117 0 l 117 901 l 736 901 l 736 807 z "},"G":{"ha":925,"x_min":89,"x_max":836,"o":"m 836 28 q 504 -14 656 -14 q 397 -9 447 -14 q 288 12 346 -4 q 187 53 229 28 q 117 125 144 79 q 89 231 89 171 l 89 657 q 130 791 89 736 q 240 871 171 846 q 372 906 310 896 q 504 915 435 915 q 815 893 671 915 l 815 789 q 664 812 763 801 q 507 822 565 822 q 222 658 222 822 l 222 233 q 249 155 222 188 q 323 106 276 122 q 415 84 369 90 q 513 78 460 78 q 711 103 606 78 l 711 418 l 500 418 l 500 513 l 836 513 l 836 28 z "},"H":{"ha":982,"x_min":117,"x_max":865,"o":"m 865 0 l 731 0 l 731 418 l 251 418 l 251 0 l 117 0 l 117 901 l 251 901 l 251 513 l 731 513 l 731 901 l 865 901 l 865 0 z "},"I":{"ha":368,"x_min":117,"x_max":251,"o":"m 251 0 l 117 0 l 117 901 l 251 901 l 251 0 z "},"J":{"ha":560,"x_min":28,"x_max":443,"o":"m 443 901 l 443 199 q 385 28 443 69 q 193 -14 328 -14 q 28 1 79 -14 l 28 92 q 176 69 113 69 q 281 92 254 69 q 308 193 308 115 l 308 901 l 443 901 z "},"K":{"ha":846,"x_min":117,"x_max":860,"o":"m 860 0 l 685 0 l 254 479 l 657 901 l 819 901 l 414 485 l 860 0 m 251 0 l 117 0 l 117 901 l 251 901 l 251 0 z "},"L":{"ha":722,"x_min":117,"x_max":694,"o":"m 694 0 l 117 0 l 117 901 l 251 901 l 251 94 l 694 94 l 694 0 z "},"M":{"ha":1196,"x_min":117,"x_max":1079,"o":"m 1079 0 l 961 0 l 961 763 l 954 763 l 664 0 l 543 0 l 244 763 l 238 763 l 238 0 l 117 0 l 117 901 l 318 901 l 607 151 l 611 150 l 885 901 l 1079 901 l 1079 0 z "},"N":{"ha":1004,"x_min":117,"x_max":888,"o":"m 888 0 l 725 0 l 235 757 l 235 0 l 117 0 l 117 901 l 279 901 l 769 157 l 769 901 l 888 901 l 888 0 z "},"O":{"ha":943,"x_min":92,"x_max":851,"o":"m 851 658 l 851 231 q 816 106 851 157 q 719 30 781 54 q 599 -4 658 6 q 469 -14 539 -14 q 92 231 92 -14 l 92 657 q 469 915 92 915 q 851 658 851 915 m 721 232 l 721 661 q 471 828 721 828 q 378 822 418 828 q 300 798 338 815 q 242 747 263 781 q 221 661 221 713 l 221 232 q 472 76 221 76 q 721 232 721 76 z "},"P":{"ha":792,"x_min":117,"x_max":729,"o":"m 729 724 l 729 536 q 640 373 729 421 q 386 325 550 325 l 251 325 l 251 0 l 117 0 l 117 901 l 411 901 q 507 899 467 901 q 592 885 547 896 q 665 856 638 875 q 710 804 692 838 q 729 724 729 771 m 597 543 l 597 707 q 578 769 597 744 q 522 803 558 793 q 462 815 486 813 q 401 817 438 817 l 250 817 l 250 410 l 404 410 q 541 440 485 410 q 597 543 597 469 z "},"Q":{"ha":939,"x_min":89,"x_max":947,"o":"m 947 0 l 468 0 q 89 244 89 0 l 89 657 q 468 915 89 915 q 849 658 849 915 l 849 286 q 725 76 849 157 l 947 76 l 947 0 m 719 246 l 719 661 q 469 828 719 828 q 376 822 417 828 q 297 798 335 815 q 239 747 260 781 q 218 661 218 713 l 218 246 q 471 90 218 90 q 719 246 719 90 z "},"R":{"ha":850,"x_min":117,"x_max":806,"o":"m 806 0 l 640 0 l 382 385 l 251 385 l 251 0 l 117 0 l 117 901 l 433 901 q 676 867 603 901 q 750 725 750 833 l 750 569 q 682 444 750 486 q 517 401 614 401 l 806 0 m 615 586 l 615 711 q 440 813 615 813 l 251 813 l 251 474 l 428 474 q 569 497 524 474 q 615 586 615 521 z "},"S":{"ha":790,"x_min":83,"x_max":714,"o":"m 714 306 l 714 240 q 632 41 714 96 q 376 -14 550 -14 q 101 8 265 -14 l 101 121 q 385 86 265 86 q 531 108 481 86 q 582 194 582 129 l 582 311 q 549 392 582 368 q 432 417 517 417 l 326 417 q 137 472 190 417 q 83 633 83 526 l 83 706 q 159 864 83 813 q 438 915 235 915 q 669 900 535 915 l 669 799 q 428 822 515 822 q 256 797 299 822 q 214 710 214 771 l 214 607 q 247 538 214 560 q 365 517 281 517 l 474 517 q 664 466 614 517 q 714 306 714 415 z "},"T":{"ha":813,"x_min":33,"x_max":779,"o":"m 779 807 l 475 807 l 475 0 l 339 0 l 339 807 l 33 807 l 33 901 l 779 901 l 779 807 z "},"U":{"ha":939,"x_min":117,"x_max":821,"o":"m 821 901 l 821 231 q 468 -14 821 -14 q 342 -5 397 -14 q 232 28 286 4 q 147 104 178 53 q 117 231 117 156 l 117 901 l 246 901 l 246 232 q 306 110 246 143 q 471 76 365 76 q 634 110 576 76 q 692 232 692 143 l 692 901 l 821 901 z "},"V":{"ha":906,"x_min":21,"x_max":885,"o":"m 885 901 l 526 0 l 371 0 l 21 901 l 161 901 l 450 128 l 463 128 l 751 901 l 885 901 z "},"W":{"ha":1344,"x_min":11,"x_max":1333,"o":"m 1333 901 l 1043 0 l 886 0 l 671 750 l 450 0 l 293 0 l 11 901 l 154 901 l 378 128 l 381 128 l 604 901 l 747 901 l 971 128 l 974 128 l 1197 901 l 1333 901 z "},"X":{"ha":839,"x_min":11,"x_max":828,"o":"m 828 0 l 674 0 l 419 367 l 165 0 l 11 0 l 343 460 l 25 901 l 179 901 l 419 553 l 660 901 l 814 901 l 496 460 l 828 0 z "},"Y":{"ha":811,"x_min":11,"x_max":800,"o":"m 800 901 l 472 368 l 472 0 l 338 0 l 338 364 l 11 901 l 165 901 l 406 478 l 646 901 l 800 901 z "},"Z":{"ha":806,"x_min":56,"x_max":750,"o":"m 750 0 l 56 0 l 56 94 l 586 807 l 69 807 l 69 901 l 742 901 l 742 807 l 211 94 l 750 94 l 750 0 z "},"[":{"ha":458,"x_min":117,"x_max":431,"o":"m 431 -264 l 117 -264 l 117 1022 l 431 1022 l 431 956 l 238 956 l 238 -197 l 431 -197 l 431 -264 z "},"\\":{"ha":585,"x_min":14,"x_max":571,"o":"m 571 -14 l 464 -14 l 14 915 l 121 915 l 571 -14 z "},"]":{"ha":458,"x_min":28,"x_max":342,"o":"m 342 -264 l 28 -264 l 28 -197 l 221 -197 l 221 956 l 28 956 l 28 1022 l 342 1022 l 342 -264 z "},"^":{"ha":446,"x_min":28,"x_max":418,"o":"m 310 944 l 418 629 l 324 629 l 222 889 l 122 629 l 28 629 l 133 944 l 310 944 z "},"_":{"ha":806,"x_min":99,"x_max":707,"o":"m 707 -196 l 99 -196 l 99 -97 l 707 -97 l 707 -196 z "},"`":{"ha":332,"x_min":28,"x_max":304,"o":"m 304 768 l 201 768 l 28 944 l 179 944 l 304 768 z "},"a":{"ha":747,"x_min":69,"x_max":639,"o":"m 639 0 l 518 0 l 518 64 q 315 -14 503 -14 q 123 28 176 -14 q 69 200 69 71 q 119 355 69 313 q 313 397 169 397 l 514 397 l 514 504 q 480 579 514 560 q 351 599 446 599 q 121 582 249 599 l 121 674 q 369 686 258 686 q 589 645 539 686 q 639 475 639 604 l 639 0 m 514 136 l 514 319 l 321 319 q 213 297 235 319 q 192 196 192 275 q 215 97 192 125 q 311 68 238 68 l 336 68 q 397 69 372 68 q 451 77 421 71 q 498 98 482 83 q 514 136 514 113 z "},"b":{"ha":804,"x_min":108,"x_max":721,"o":"m 721 496 l 721 219 q 703 114 721 158 q 658 45 685 69 q 586 7 631 21 q 503 -10 542 -7 q 408 -14 464 -14 q 290 -7 336 -14 q 199 22 244 0 q 131 94 153 44 q 108 219 108 143 l 108 972 l 233 972 l 233 771 q 233 691 233 744 q 232 611 232 638 q 290 665 238 643 q 443 686 342 686 q 721 496 721 686 m 593 201 l 593 465 q 553 574 593 551 q 410 597 513 597 q 272 571 311 597 q 233 465 233 544 l 233 201 q 272 92 233 117 q 411 68 310 68 q 553 92 514 68 q 593 201 593 117 z "},"c":{"ha":644,"x_min":83,"x_max":594,"o":"m 594 6 q 379 -14 503 -14 q 284 -12 318 -14 q 206 2 250 -10 q 140 36 163 14 q 100 101 117 58 q 83 206 83 143 l 83 453 q 94 549 83 508 q 126 614 104 589 q 172 654 149 639 q 237 676 196 669 q 309 684 278 682 q 393 686 340 686 q 585 665 489 686 l 585 574 q 378 601 476 601 q 242 576 274 601 q 211 471 211 551 l 211 196 q 247 98 211 122 q 392 74 282 74 q 594 100 490 74 l 594 6 z "},"d":{"ha":793,"x_min":83,"x_max":696,"o":"m 696 0 l 574 0 l 574 79 q 513 15 574 43 q 349 -14 453 -14 q 143 32 203 -14 q 83 200 83 78 l 83 496 q 146 642 83 597 q 356 686 208 686 q 502 665 435 686 q 571 600 569 644 l 574 600 q 571 771 571 714 l 571 972 l 696 972 l 696 0 m 571 176 l 571 508 q 386 599 571 599 q 241 582 275 599 q 207 508 207 565 l 207 176 q 245 96 207 119 q 375 72 283 72 q 524 96 478 72 q 571 176 571 119 z "},"e":{"ha":743,"x_min":83,"x_max":661,"o":"m 661 308 l 210 308 l 210 207 q 260 106 210 136 q 408 76 310 76 q 635 110 504 76 l 635 14 q 392 -14 510 -14 q 83 192 83 -14 l 83 457 q 154 633 83 581 q 381 686 225 686 q 594 635 526 686 q 661 457 661 585 l 661 308 m 536 390 l 536 496 q 499 580 536 557 q 374 603 461 603 q 250 581 290 603 q 210 496 210 558 l 210 390 l 536 390 z "},"f":{"ha":528,"x_min":14,"x_max":531,"o":"m 517 590 l 293 590 l 293 0 l 168 0 l 168 590 l 14 590 l 14 672 l 168 672 l 168 781 q 232 940 168 894 q 418 986 296 986 q 531 979 472 986 l 531 897 q 422 904 482 904 q 324 881 354 904 q 293 789 293 857 l 293 672 l 517 672 l 517 590 z "},"g":{"ha":790,"x_min":83,"x_max":682,"o":"m 682 672 l 682 -64 q 602 -256 682 -207 q 363 -306 522 -306 q 131 -290 219 -306 l 131 -201 q 374 -221 290 -221 q 513 -190 469 -221 q 557 -89 557 -160 l 557 72 q 492 6 554 25 q 351 -14 431 -14 q 140 32 196 -14 q 83 190 83 78 l 83 464 q 148 635 83 583 q 360 686 213 686 q 565 607 535 686 l 565 672 l 682 672 m 557 182 l 557 486 q 522 576 557 551 q 375 600 486 600 q 239 576 271 600 q 207 486 207 553 l 207 182 q 241 91 207 113 q 378 69 275 69 q 515 92 472 69 q 557 182 557 115 z "},"h":{"ha":796,"x_min":108,"x_max":688,"o":"m 688 0 l 563 0 l 563 485 q 558 526 563 510 q 541 560 554 543 q 497 587 528 578 q 418 596 465 596 q 268 571 303 596 q 233 485 233 546 l 233 0 l 108 0 l 108 972 l 233 972 l 233 590 q 454 686 253 686 q 638 638 588 686 q 688 493 688 590 l 688 0 z "},"i":{"ha":342,"x_min":108,"x_max":233,"o":"m 233 785 l 108 785 l 108 915 l 233 915 l 233 785 m 233 0 l 108 0 l 108 672 l 233 672 l 233 0 z "},"j":{"ha":343,"x_min":-60,"x_max":235,"o":"m 235 785 l 110 785 l 110 915 l 235 915 l 235 785 m 235 672 l 235 -101 q 181 -261 235 -217 q 11 -306 126 -306 q -60 -300 -24 -306 l -60 -218 q -7 -224 -26 -224 q 81 -201 51 -224 q 110 -111 110 -178 l 110 672 l 235 672 z "},"k":{"ha":714,"x_min":108,"x_max":711,"o":"m 711 0 l 556 0 l 249 368 l 532 672 l 685 672 l 393 368 l 711 0 m 233 0 l 108 0 l 108 972 l 233 972 l 233 0 z "},"l":{"ha":342,"x_min":108,"x_max":233,"o":"m 233 0 l 108 0 l 108 972 l 233 972 l 233 0 z "},"m":{"ha":1236,"x_min":108,"x_max":1128,"o":"m 1128 0 l 1003 0 l 1003 485 q 999 526 1003 510 q 981 560 994 543 q 937 587 968 578 q 858 596 906 596 q 717 572 749 596 q 686 485 686 549 l 686 0 l 561 0 l 561 485 q 557 526 561 510 q 540 560 553 543 q 496 587 526 578 q 418 596 465 596 q 270 573 307 596 q 233 485 233 550 l 233 0 l 108 0 l 108 672 l 233 672 l 233 590 q 460 686 253 686 q 669 594 628 686 q 748 664 683 642 q 900 686 813 686 q 1078 638 1029 686 q 1128 493 1128 590 l 1128 0 z "},"n":{"ha":796,"x_min":108,"x_max":688,"o":"m 688 0 l 563 0 l 563 486 q 558 528 563 511 q 541 562 554 544 q 497 588 528 579 q 418 597 465 597 q 271 574 308 597 q 233 486 233 550 l 233 0 l 108 0 l 108 672 l 233 672 l 233 590 q 454 686 253 686 q 638 638 588 686 q 688 493 688 590 l 688 0 z "},"o":{"ha":789,"x_min":83,"x_max":703,"o":"m 703 446 l 703 213 q 688 107 703 150 q 649 40 672 64 q 581 4 625 17 q 498 -11 538 -8 q 393 -14 458 -14 q 263 -8 310 -14 q 170 19 217 -3 q 103 88 124 40 q 83 213 83 135 l 83 446 q 99 558 83 513 q 138 629 115 604 q 206 667 161 654 q 288 683 250 681 q 393 686 326 686 q 498 683 460 686 q 581 667 536 681 q 648 629 625 654 q 687 558 671 604 q 703 446 703 513 m 575 194 l 575 467 q 538 582 575 560 q 393 604 500 604 q 249 582 286 604 q 211 467 211 560 l 211 194 q 221 124 211 150 q 257 85 231 97 q 311 71 283 74 q 393 68 339 68 q 475 71 447 68 q 529 85 503 74 q 565 124 556 97 q 575 194 575 150 z "},"p":{"ha":804,"x_min":108,"x_max":721,"o":"m 721 219 q 703 114 721 158 q 658 45 685 69 q 586 7 631 21 q 503 -10 542 -7 q 408 -14 464 -14 q 300 0 353 -14 q 233 43 247 14 l 233 -289 l 108 -289 l 108 672 l 232 672 l 232 600 l 233 600 q 463 686 249 686 q 659 630 597 686 q 721 496 721 574 l 721 219 m 593 204 l 593 451 q 553 570 593 544 q 410 596 513 596 q 270 571 307 596 q 233 451 233 546 l 233 204 q 272 95 233 119 q 411 71 310 71 q 553 95 514 71 q 593 204 593 119 z "},"q":{"ha":804,"x_min":108,"x_max":721,"o":"m 721 -289 l 596 -289 l 596 43 q 393 -14 568 -14 q 295 -10 333 -14 q 218 7 257 -7 q 158 46 179 21 q 122 114 136 71 q 108 219 108 157 l 108 468 q 181 635 108 583 q 424 686 253 686 q 653 635 586 686 q 721 468 721 585 l 721 -289 m 596 206 l 596 451 q 559 571 596 546 q 419 596 522 596 q 266 571 296 596 q 236 451 236 546 l 236 206 q 276 97 236 121 q 418 72 315 72 q 560 98 524 72 q 596 206 596 124 z "},"r":{"ha":488,"x_min":108,"x_max":471,"o":"m 471 579 l 401 579 q 274 557 315 579 q 233 474 233 535 l 233 0 l 108 0 l 108 672 l 226 672 l 226 563 q 287 649 226 611 q 410 686 347 686 l 471 686 l 471 579 z "},"s":{"ha":671,"x_min":69,"x_max":607,"o":"m 607 236 l 607 178 q 531 28 607 69 q 314 -14 456 -14 q 83 3 206 -14 l 83 99 q 317 72 250 72 q 442 88 400 72 q 483 154 483 104 l 483 222 q 454 283 483 265 q 360 301 425 301 l 283 301 q 124 345 178 301 q 69 465 69 389 l 69 528 q 369 686 69 686 q 574 675 403 686 l 574 585 q 364 604 454 604 q 228 585 264 604 q 193 519 193 565 l 193 463 q 317 394 193 394 l 394 394 q 607 236 607 394 z "},"t":{"ha":558,"x_min":14,"x_max":531,"o":"m 531 -3 q 390 -14 464 -14 q 214 30 264 -14 q 164 196 164 74 l 164 590 l 14 590 l 14 672 l 164 672 l 164 881 l 290 881 l 290 672 l 531 672 l 531 590 l 290 590 l 290 189 q 318 92 290 117 q 431 68 346 68 q 531 79 453 68 l 531 -3 z "},"u":{"ha":796,"x_min":108,"x_max":688,"o":"m 688 0 l 563 0 l 563 82 q 342 -14 543 -14 q 158 34 208 -14 q 108 179 108 82 l 108 672 l 233 672 l 233 186 q 238 144 233 161 q 255 110 242 128 q 299 84 268 93 q 378 75 331 75 q 522 94 482 75 q 563 165 563 114 l 563 672 l 688 672 l 688 0 z "},"v":{"ha":643,"x_min":8,"x_max":635,"o":"m 635 672 l 400 0 l 250 0 l 8 672 l 140 672 l 326 108 l 333 108 l 514 672 l 635 672 z "},"w":{"ha":1100,"x_min":17,"x_max":1083,"o":"m 1083 672 l 863 0 l 714 0 l 551 543 l 392 0 l 243 0 l 17 672 l 154 672 l 318 119 l 326 119 l 485 672 l 625 672 l 789 119 l 797 119 l 956 672 l 1083 672 z "},"x":{"ha":665,"x_min":14,"x_max":651,"o":"m 651 0 l 514 0 l 332 265 l 151 0 l 14 0 l 264 346 l 28 672 l 165 672 l 332 426 l 500 672 l 638 672 l 401 346 l 651 0 z "},"y":{"ha":639,"x_min":8,"x_max":631,"o":"m 631 672 l 293 -289 l 163 -289 l 268 -10 l 8 672 l 144 672 l 332 124 l 335 124 l 504 672 l 631 672 z "},"z":{"ha":631,"x_min":56,"x_max":583,"o":"m 583 0 l 56 0 l 56 85 l 433 588 l 69 588 l 69 672 l 575 672 l 575 588 l 197 85 l 583 85 l 583 0 z "},"{":{"ha":458,"x_min":89,"x_max":397,"o":"m 397 -264 l 371 -264 q 327 -263 342 -264 q 288 -258 313 -262 q 251 -247 264 -254 q 221 -224 238 -239 q 196 -186 204 -208 q 181 -131 188 -164 q 175 -53 175 -97 l 175 267 q 163 362 175 344 q 89 379 150 379 l 89 451 q 163 469 150 451 q 175 564 175 486 l 175 811 q 181 889 175 856 q 196 944 188 922 q 221 982 204 967 q 251 1005 238 997 q 288 1017 264 1013 q 327 1022 313 1021 q 371 1022 342 1022 l 397 1022 l 397 956 l 383 956 q 324 932 349 956 q 299 865 299 908 l 299 613 q 276 484 299 528 q 189 418 253 440 l 189 413 q 276 348 253 392 q 299 218 299 304 l 299 -107 q 324 -174 299 -150 q 383 -197 349 -197 l 397 -197 l 397 -264 z "},"|":{"ha":465,"x_min":194,"x_max":271,"o":"m 271 -14 l 194 -14 l 194 915 l 271 915 l 271 -14 z "},"}":{"ha":458,"x_min":61,"x_max":369,"o":"m 88 -264 l 61 -264 l 61 -197 l 75 -197 q 135 -174 110 -197 q 160 -107 160 -150 l 160 218 q 183 348 160 304 q 269 413 206 392 l 269 418 q 183 484 206 440 q 160 613 160 528 l 160 865 q 135 932 160 908 q 75 956 110 956 l 61 956 l 61 1022 l 88 1022 q 131 1022 117 1022 q 170 1017 146 1021 q 208 1005 194 1013 q 238 982 221 997 q 263 944 254 967 q 277 889 271 922 q 283 811 283 856 l 283 564 q 296 469 283 486 q 369 451 308 451 l 369 379 q 296 362 308 379 q 283 267 283 344 l 283 -53 q 277 -131 283 -97 q 263 -186 271 -164 q 238 -224 254 -208 q 208 -247 221 -239 q 170 -258 194 -254 q 131 -263 146 -262 q 88 -264 117 -264 z "},"~":{"ha":806,"x_min":94,"x_max":711,"o":"m 264 501 q 415 460 317 501 q 546 419 513 419 q 711 506 658 419 l 711 393 q 540 329 661 329 q 398 370 496 329 q 258 411 300 411 q 162 391 200 411 q 94 326 124 371 l 94 439 q 264 501 146 501 z "},"¡":{"ha":389,"x_min":111,"x_max":278,"o":"m 111 -229 l 160 424 l 229 424 l 278 -229 l 111 -229 m 114 672 l 275 672 l 275 522 l 114 522 l 114 672 z "},"¢":{"ha":806,"x_min":154,"x_max":665,"o":"m 489 -14 l 410 -14 l 410 101 q 308 109 349 101 q 230 138 268 117 q 173 205 192 160 q 154 321 154 250 l 154 568 q 172 688 154 640 q 228 758 190 735 q 307 790 267 781 q 410 800 347 799 l 410 915 l 489 915 l 489 800 q 656 781 578 796 l 656 689 q 449 717 538 717 q 313 694 343 717 q 282 586 282 671 l 282 308 q 317 211 282 233 q 463 189 351 189 q 665 215 561 189 l 665 121 q 489 101 597 104 l 489 -14 z "},"£":{"ha":806,"x_min":106,"x_max":744,"o":"m 744 0 l 106 0 l 106 90 l 260 90 l 260 440 l 106 440 l 106 526 l 260 526 l 260 654 q 276 790 260 738 q 331 869 293 842 q 415 906 368 897 q 538 915 463 915 q 678 908 619 915 l 678 825 q 583 832 629 832 l 571 832 q 420 801 456 832 q 385 663 385 769 l 385 526 l 622 526 l 622 440 l 385 440 l 385 90 l 744 90 l 744 0 z "},"¤":{"ha":806,"x_min":58,"x_max":749,"o":"m 663 697 q 749 471 749 590 q 663 244 749 351 l 738 169 l 701 133 l 626 208 q 400 124 518 124 q 181 206 286 124 l 106 131 l 69 167 l 144 242 q 58 468 58 349 q 144 694 58 588 l 69 769 l 106 806 l 181 731 q 400 813 286 813 q 626 733 525 813 l 701 808 l 738 772 l 663 697 m 693 471 q 609 672 693 588 q 407 757 525 757 q 199 674 285 757 q 114 468 114 592 q 199 263 114 347 q 406 179 285 179 q 609 265 525 179 q 693 471 693 351 z "},"¥":{"ha":806,"x_min":11,"x_max":800,"o":"m 707 157 l 472 157 l 472 0 l 338 0 l 338 157 l 99 157 l 99 256 l 338 256 l 338 364 l 326 382 l 99 382 l 99 481 l 267 481 l 11 901 l 165 901 l 404 481 l 407 481 l 646 901 l 800 901 l 542 481 l 707 481 l 707 382 l 481 382 l 472 368 l 472 256 l 707 256 l 707 157 z "},"¦":{"ha":368,"x_min":146,"x_max":222,"o":"m 222 414 l 146 414 l 146 901 l 222 901 l 222 414 m 222 -264 l 146 -264 l 146 224 l 222 224 l 222 -264 z "},"§":{"ha":806,"x_min":92,"x_max":714,"o":"m 215 426 l 215 317 q 368 249 215 249 l 475 249 q 562 267 533 249 q 590 331 590 285 l 590 424 q 453 503 590 503 l 335 503 q 242 486 269 503 q 215 426 215 469 m 686 103 l 686 32 q 604 -118 686 -76 q 378 -160 522 -160 q 133 -143 258 -160 l 133 -47 q 381 -71 261 -71 q 515 -55 467 -71 q 563 11 563 -39 l 563 76 q 533 138 563 119 q 439 156 504 156 l 318 156 q 151 199 211 156 q 92 319 92 243 l 92 424 q 183 542 92 504 q 119 653 119 576 l 119 729 q 433 888 119 888 q 651 869 553 888 l 651 781 q 428 803 543 803 q 285 783 326 803 q 243 718 243 763 l 243 664 q 368 596 243 596 l 500 596 q 714 438 714 596 l 714 351 q 688 262 714 299 q 622 214 661 225 q 686 103 686 169 z "},"¨":{"ha":444,"x_min":42,"x_max":403,"o":"m 167 785 l 42 785 l 42 915 l 167 915 l 167 785 m 403 785 l 278 785 l 278 915 l 403 915 l 403 785 z "},"©":{"ha":996,"x_min":83,"x_max":940,"o":"m 296 365 l 296 554 q 348 681 296 639 q 517 722 400 722 q 678 685 633 722 q 724 568 724 649 l 724 531 l 622 531 l 622 557 q 602 628 622 613 q 513 644 582 644 q 426 625 447 644 q 404 543 404 606 l 404 376 q 425 293 404 311 q 513 275 446 275 q 606 290 589 275 q 622 363 622 304 l 622 390 l 724 390 l 724 351 q 681 235 724 272 q 517 197 638 197 q 344 233 393 197 q 296 365 296 268 m 940 658 l 940 231 q 899 106 940 157 q 788 30 857 54 q 653 -4 718 6 q 517 -14 588 -14 q 407 -9 460 -14 q 293 12 354 -4 q 188 53 232 28 q 113 125 143 79 q 83 231 83 171 l 83 657 q 127 791 83 736 q 244 871 171 846 q 381 906 317 896 q 517 915 446 915 q 624 910 572 915 q 735 889 675 906 q 839 846 796 872 q 911 771 882 819 q 940 658 940 722 m 831 228 l 831 668 q 800 753 831 718 q 719 805 769 789 q 619 828 668 821 q 518 835 571 835 q 413 828 464 835 q 309 805 363 821 q 224 753 256 789 q 192 668 192 718 l 192 228 q 224 149 192 182 q 311 101 257 117 q 416 78 365 85 q 519 72 467 72 q 614 78 568 72 q 713 98 660 83 q 798 146 765 113 q 831 228 831 179 z "},"ª":{"ha":442,"x_min":49,"x_max":393,"o":"m 393 522 l 303 522 l 303 560 q 199 515 275 515 q 82 540 115 515 q 49 639 49 564 q 80 730 49 704 q 197 756 111 756 l 300 756 l 300 808 q 283 845 300 835 q 219 856 265 856 q 78 847 150 856 l 78 910 q 229 917 164 917 q 363 892 332 917 q 393 792 393 868 l 393 522 m 300 601 l 300 701 l 201 701 q 153 689 164 701 q 143 636 143 676 q 153 585 143 600 q 196 571 164 571 l 211 571 q 300 601 300 571 m 49 379 l 49 457 l 393 457 l 393 379 l 49 379 z "},"«":{"ha":592,"x_min":56,"x_max":536,"o":"m 300 97 l 194 97 l 56 364 l 194 631 l 300 631 l 172 364 l 300 97 m 536 97 l 431 97 l 292 364 l 431 631 l 536 631 l 408 364 l 536 97 z "},"¬":{"ha":694,"x_min":83,"x_max":611,"o":"m 83 485 l 611 485 l 611 160 l 518 160 l 518 392 l 83 392 l 83 485 z "},"­":{"ha":333,"x_min":0,"x_max":335,"o":"m 335 324 l 0 324 l 0 411 l 335 411 l 335 324 z "},"®":{"ha":996,"x_min":83,"x_max":940,"o":"m 940 658 l 940 231 q 899 106 940 157 q 788 30 857 54 q 653 -4 718 6 q 517 -14 588 -14 q 407 -9 460 -14 q 293 12 354 -4 q 188 53 232 28 q 113 125 143 79 q 83 231 83 171 l 83 657 q 127 791 83 736 q 244 871 171 846 q 381 906 317 896 q 517 915 446 915 q 624 910 572 915 q 735 889 675 906 q 839 846 796 872 q 911 771 882 819 q 940 658 940 722 m 831 228 l 831 668 q 800 753 831 718 q 719 805 769 789 q 619 828 668 821 q 518 835 571 835 q 413 828 464 835 q 309 805 363 821 q 224 753 256 789 q 192 668 192 718 l 192 228 q 224 149 192 182 q 311 101 257 117 q 416 78 365 85 q 519 72 467 72 q 614 78 568 72 q 713 98 660 83 q 798 146 765 113 q 831 228 831 179 m 749 181 l 635 181 l 494 397 l 429 397 l 429 181 l 335 181 l 335 721 l 525 721 q 673 700 631 721 q 715 615 715 679 l 715 511 q 680 433 715 460 q 589 407 644 407 l 749 181 m 619 518 l 619 607 q 601 645 619 636 q 529 654 583 654 l 429 654 l 429 464 l 522 464 q 601 473 582 464 q 619 518 619 482 z "},"¯":{"ha":414,"x_min":56,"x_max":358,"o":"m 358 819 l 56 819 l 56 901 l 358 901 l 358 819 z "},"°":{"ha":565,"x_min":83,"x_max":482,"o":"m 482 763 l 482 653 q 472 590 482 615 q 445 550 461 564 q 401 528 429 536 q 348 519 372 521 q 283 518 324 518 q 219 519 243 518 q 165 528 194 521 q 121 550 136 536 q 94 590 106 564 q 83 653 83 615 l 83 763 q 134 886 83 857 q 283 915 185 915 q 432 886 382 915 q 482 763 482 857 m 385 653 l 385 774 q 363 836 385 824 q 283 849 342 849 q 203 836 225 849 q 181 774 181 824 l 181 653 q 194 606 181 621 q 226 588 207 590 q 283 585 244 585 q 340 588 322 585 q 372 606 358 590 q 385 653 385 621 z "},"±":{"ha":694,"x_min":83,"x_max":611,"o":"m 393 715 l 393 485 l 611 485 l 611 392 l 393 392 l 393 160 l 300 160 l 300 392 l 83 392 l 83 485 l 300 485 l 300 715 l 393 715 m 611 0 l 83 0 l 83 93 l 611 93 l 611 0 z "},"²":{"ha":525,"x_min":57,"x_max":469,"o":"m 469 379 l 57 379 l 57 492 q 89 573 57 540 q 165 622 121 606 q 255 652 210 639 q 332 685 300 665 q 364 732 364 704 l 364 793 q 235 838 364 838 q 72 819 171 838 l 72 899 q 249 914 167 914 q 416 889 365 914 q 467 800 467 864 l 467 717 q 418 633 467 668 q 310 583 369 599 q 203 547 251 568 q 154 500 154 525 l 154 460 l 469 460 l 469 379 z "},"³":{"ha":525,"x_min":65,"x_max":486,"o":"m 263 622 l 156 622 l 156 690 l 263 690 q 340 699 314 690 q 365 735 365 708 l 365 790 q 338 828 365 818 q 250 839 311 839 q 85 831 196 839 l 85 908 q 263 915 182 915 q 468 814 468 915 l 468 732 q 393 661 468 678 l 394 660 q 486 571 486 642 l 486 497 q 431 403 486 431 q 263 376 376 376 q 65 388 168 376 l 65 471 q 263 451 163 451 q 382 507 382 451 l 382 567 q 353 610 382 597 q 263 622 325 622 z "},"´":{"ha":332,"x_min":28,"x_max":304,"o":"m 304 944 l 131 768 l 28 768 l 153 944 l 304 944 z "},"µ":{"ha":796,"x_min":108,"x_max":688,"o":"m 688 0 l 565 0 l 565 82 q 342 -14 542 -14 q 233 -3 281 -14 l 233 -290 l 108 -290 l 108 672 l 233 672 l 233 186 q 238 144 233 161 q 255 110 242 128 q 299 84 268 93 q 378 75 331 75 q 522 94 482 75 q 563 165 563 114 l 563 672 l 688 672 l 688 0 z "},"¶":{"ha":796,"x_min":56,"x_max":693,"o":"m 693 879 l 661 856 q 632 804 632 833 l 632 -258 l 558 -258 l 558 842 l 350 842 l 350 -258 l 276 -258 l 276 489 q 97 527 138 489 q 56 696 56 565 q 87 858 56 815 q 204 901 118 901 l 693 901 l 693 879 z "},"·":{"ha":356,"x_min":97,"x_max":258,"o":"m 258 389 l 97 389 l 97 539 l 258 539 l 258 389 z "},"¸":{"ha":329,"x_min":38,"x_max":307,"o":"m 126 0 l 214 0 l 178 -72 q 268 -101 229 -74 q 307 -181 307 -128 q 260 -274 307 -242 q 150 -306 213 -306 q 38 -279 82 -306 l 67 -217 q 147 -240 108 -240 q 213 -185 213 -240 q 182 -143 213 -158 q 104 -128 151 -128 l 58 -128 q 126 0 90 -74 z "},"¹":{"ha":525,"x_min":104,"x_max":357,"o":"m 357 379 l 258 379 l 258 793 l 104 694 l 104 789 l 271 901 l 357 901 l 357 379 z "},"º":{"ha":467,"x_min":47,"x_max":419,"o":"m 419 775 l 419 646 q 407 574 419 601 q 366 534 394 546 q 310 519 338 522 q 233 515 282 515 q 171 517 194 515 q 121 526 147 518 q 81 547 94 533 q 57 585 67 560 q 47 646 47 610 l 47 775 q 60 853 47 824 q 101 897 72 883 q 157 913 129 910 q 233 917 185 917 q 310 913 282 917 q 366 897 338 910 q 407 853 394 883 q 419 775 419 824 m 322 636 l 322 788 q 303 848 322 836 q 233 860 285 860 q 160 848 179 860 q 142 788 142 836 l 142 636 q 161 583 142 593 q 233 572 181 572 q 303 583 285 572 q 322 636 322 593 m 49 379 l 49 457 l 419 457 l 419 379 l 49 379 z "},"»":{"ha":592,"x_min":56,"x_max":536,"o":"m 300 364 l 161 97 l 56 97 l 183 364 l 56 631 l 161 631 l 300 364 m 536 364 l 397 97 l 292 97 l 419 364 l 292 631 l 397 631 l 536 364 z "},"¼":{"ha":1328,"x_min":204,"x_max":1261,"o":"m 457 379 l 358 379 l 358 793 l 204 694 l 204 789 l 371 901 l 457 901 l 457 379 m 322 0 l 894 901 l 1007 901 l 435 0 l 322 0 m 1261 118 l 1194 118 l 1194 0 l 1094 0 l 1094 118 l 789 118 l 789 188 l 1079 522 l 1194 522 l 1194 189 l 1261 189 l 1261 118 m 1094 189 l 1093 424 l 892 189 l 1094 189 z "},"½":{"ha":1328,"x_min":204,"x_max":1239,"o":"m 457 379 l 358 379 l 358 793 l 204 694 l 204 789 l 371 901 l 457 901 l 457 379 m 322 0 l 894 901 l 1007 901 l 435 0 l 322 0 m 1239 0 l 826 0 l 826 113 q 858 194 826 161 q 935 243 890 226 q 1025 273 981 260 q 1101 306 1069 286 q 1133 353 1133 325 l 1133 414 q 1004 458 1133 458 q 842 440 940 458 l 842 519 q 1018 535 936 535 q 1185 510 1135 535 q 1236 421 1236 485 l 1236 338 q 1188 254 1236 289 q 1080 204 1139 219 q 972 167 1021 189 q 924 121 924 146 l 924 81 l 1239 81 l 1239 0 z "},"¾":{"ha":1328,"x_min":65,"x_max":1261,"o":"m 263 622 l 156 622 l 156 690 l 263 690 q 340 699 314 690 q 365 735 365 708 l 365 790 q 338 828 365 818 q 250 839 311 839 q 85 831 196 839 l 85 908 q 263 915 182 915 q 468 814 468 915 l 468 732 q 393 661 468 678 l 394 660 q 486 571 486 642 l 486 497 q 431 403 486 431 q 263 376 376 376 q 65 388 168 376 l 65 471 q 263 451 163 451 q 382 507 382 451 l 382 567 q 353 610 382 597 q 263 622 325 622 m 1261 118 l 1194 118 l 1194 0 l 1094 0 l 1094 118 l 789 118 l 789 188 l 1079 522 l 1194 522 l 1194 189 l 1261 189 l 1261 118 m 1094 189 l 1093 424 l 892 189 l 1094 189 m 322 0 l 894 901 l 1007 901 l 435 0 l 322 0 z "},"¿":{"ha":740,"x_min":83,"x_max":657,"o":"m 464 435 l 464 401 q 438 276 464 326 q 376 199 413 225 q 304 149 340 172 q 242 91 268 126 q 217 4 217 56 l 217 -37 q 258 -124 217 -103 q 392 -144 300 -144 q 657 -115 489 -144 l 657 -217 q 365 -243 511 -243 q 150 -199 217 -243 q 83 -47 83 -154 l 83 22 q 110 131 83 85 q 174 203 136 176 q 249 253 211 231 q 313 306 286 276 q 339 375 339 336 l 339 435 l 464 435 m 322 672 l 483 672 l 483 522 l 322 522 l 322 672 z "},"À":{"ha":906,"x_min":21,"x_max":885,"o":"m 885 0 l 744 0 l 642 274 l 256 274 l 154 0 l 21 0 l 379 901 l 535 901 l 885 0 m 608 367 l 456 774 l 443 774 l 290 367 l 608 367 m 499 963 l 396 963 l 222 1139 l 374 1139 l 499 963 z "},"Á":{"ha":906,"x_min":21,"x_max":885,"o":"m 885 0 l 744 0 l 642 274 l 256 274 l 154 0 l 21 0 l 379 901 l 535 901 l 885 0 m 608 367 l 456 774 l 443 774 l 290 367 l 608 367 m 651 1153 l 478 976 l 375 976 l 500 1153 l 651 1153 z "},"Â":{"ha":906,"x_min":21,"x_max":885,"o":"m 885 0 l 744 0 l 642 274 l 256 274 l 154 0 l 21 0 l 379 901 l 535 901 l 885 0 m 608 367 l 456 774 l 443 774 l 290 367 l 608 367 m 292 976 l 386 1153 l 535 1153 l 626 976 l 546 976 l 460 1097 l 372 976 l 292 976 z "},"Ã":{"ha":906,"x_min":21,"x_max":885,"o":"m 885 0 l 744 0 l 642 274 l 256 274 l 154 0 l 21 0 l 379 901 l 535 901 l 885 0 m 608 367 l 456 774 l 443 774 l 290 367 l 608 367 m 354 1101 q 444 1078 388 1101 q 528 1054 501 1054 q 578 1069 558 1054 q 618 1114 597 1083 l 618 1018 q 528 964 586 964 q 436 989 492 964 q 354 1014 381 1014 q 264 960 299 1014 l 264 1061 q 354 1101 297 1101 z "},"Ä":{"ha":906,"x_min":21,"x_max":885,"o":"m 885 0 l 744 0 l 642 274 l 256 274 l 154 0 l 21 0 l 379 901 l 535 901 l 885 0 m 608 367 l 456 774 l 443 774 l 290 367 l 608 367 m 389 993 l 264 993 l 264 1124 l 389 1124 l 389 993 m 625 993 l 500 993 l 500 1124 l 625 1124 l 625 993 z "},"Å":{"ha":906,"x_min":21,"x_max":885,"o":"m 885 0 l 744 0 l 642 275 l 257 275 l 154 0 l 21 0 l 336 778 q 257 897 257 801 l 257 915 q 267 983 257 956 q 293 1025 278 1010 q 337 1048 308 1040 q 389 1057 365 1056 q 453 1058 413 1058 q 517 1057 493 1058 q 569 1048 540 1056 q 613 1025 597 1040 q 638 983 628 1010 q 649 915 649 956 l 649 897 q 576 779 649 808 l 885 0 m 556 893 l 556 913 q 533 972 556 960 q 453 985 510 985 q 373 972 396 985 q 350 913 350 960 l 350 893 q 374 839 350 850 q 453 828 397 828 q 509 831 490 828 q 542 848 528 833 q 556 893 556 863 m 608 367 l 461 757 l 438 757 l 290 367 l 608 367 z "},"Æ":{"ha":1282,"x_min":0,"x_max":1213,"o":"m 1213 0 l 635 0 l 635 274 l 293 274 l 151 0 l 0 0 l 497 901 l 1199 901 l 1199 807 l 769 807 l 769 513 l 1153 513 l 1153 418 l 769 418 l 769 94 l 1213 94 l 1213 0 m 635 367 l 635 807 l 568 807 l 340 367 l 635 367 z "},"Ç":{"ha":783,"x_min":89,"x_max":721,"o":"m 721 13 q 499 -14 613 -11 l 469 -72 q 560 -101 521 -74 q 599 -181 599 -128 q 551 -274 599 -242 q 442 -306 504 -306 q 329 -279 374 -306 l 358 -217 q 439 -240 400 -240 q 504 -185 504 -240 q 474 -143 504 -158 q 396 -128 443 -128 l 350 -128 q 413 -12 381 -75 q 89 231 89 6 l 89 658 q 468 917 89 917 q 715 890 594 917 l 715 790 q 471 824 582 824 q 378 817 418 824 q 299 795 338 811 q 239 745 260 779 q 218 660 218 711 l 218 238 q 476 82 218 82 q 721 115 588 82 l 721 13 z "},"È":{"ha":806,"x_min":117,"x_max":736,"o":"m 736 0 l 117 0 l 117 901 l 722 901 l 722 807 l 251 807 l 251 513 l 676 513 l 676 418 l 251 418 l 251 94 l 736 94 l 736 0 m 485 976 l 382 976 l 208 1153 l 360 1153 l 485 976 z "},"É":{"ha":806,"x_min":117,"x_max":736,"o":"m 736 0 l 117 0 l 117 901 l 722 901 l 722 807 l 251 807 l 251 513 l 676 513 l 676 418 l 251 418 l 251 94 l 736 94 l 736 0 m 582 1153 l 408 976 l 306 976 l 431 1153 l 582 1153 z "},"Ê":{"ha":806,"x_min":117,"x_max":736,"o":"m 736 0 l 117 0 l 117 901 l 722 901 l 722 807 l 251 807 l 251 513 l 676 513 l 676 418 l 251 418 l 251 94 l 736 94 l 736 0 m 250 976 l 344 1153 l 493 1153 l 585 976 l 504 976 l 418 1097 l 331 976 l 250 976 z "},"Ë":{"ha":806,"x_min":117,"x_max":736,"o":"m 736 0 l 117 0 l 117 901 l 722 901 l 722 807 l 251 807 l 251 513 l 676 513 l 676 418 l 251 418 l 251 94 l 736 94 l 736 0 m 369 993 l 244 993 l 244 1124 l 369 1124 l 369 993 m 606 993 l 481 993 l 481 1124 l 606 1124 l 606 993 z "},"Ì":{"ha":368,"x_min":-36,"x_max":251,"o":"m 251 0 l 117 0 l 117 901 l 251 901 l 251 0 m 240 976 l 138 976 l -36 1153 l 115 1153 l 240 976 z "},"Í":{"ha":368,"x_min":117,"x_max":393,"o":"m 251 0 l 117 0 l 117 901 l 251 901 l 251 0 m 393 1153 l 219 976 l 117 976 l 242 1153 l 393 1153 z "},"Î":{"ha":368,"x_min":15,"x_max":350,"o":"m 251 0 l 117 0 l 117 901 l 251 901 l 251 0 m 15 976 l 110 1153 l 258 1153 l 350 976 l 269 976 l 183 1097 l 96 976 l 15 976 z "},"Ï":{"ha":368,"x_min":6,"x_max":367,"o":"m 251 0 l 117 0 l 117 901 l 251 901 l 251 0 m 131 993 l 6 993 l 6 1124 l 131 1124 l 131 993 m 367 993 l 242 993 l 242 1124 l 367 1124 l 367 993 z "},"Ð":{"ha":943,"x_min":28,"x_max":854,"o":"m 117 418 l 28 418 l 28 513 l 117 513 l 117 901 l 475 901 q 854 643 854 901 l 854 244 q 476 0 854 0 l 117 0 l 117 418 m 399 418 l 251 418 l 251 92 l 467 92 q 725 247 725 92 l 725 644 q 704 730 725 696 q 645 780 683 764 q 567 802 607 796 q 474 808 526 808 l 251 808 l 251 513 l 399 513 l 399 418 z "},"Ñ":{"ha":1004,"x_min":117,"x_max":888,"o":"m 888 0 l 725 0 l 235 757 l 235 0 l 117 0 l 117 901 l 279 901 l 769 157 l 769 901 l 888 901 l 888 0 m 415 1101 q 506 1078 449 1101 q 589 1054 563 1054 q 639 1069 619 1054 q 679 1114 658 1083 l 679 1018 q 589 964 647 964 q 497 989 553 964 q 415 1014 442 1014 q 325 960 360 1014 l 325 1061 q 415 1101 358 1101 z "},"Ò":{"ha":943,"x_min":92,"x_max":851,"o":"m 851 658 l 851 231 q 816 106 851 157 q 719 30 781 54 q 599 -4 658 6 q 469 -14 539 -14 q 92 231 92 -14 l 92 657 q 469 915 92 915 q 851 658 851 915 m 721 232 l 721 661 q 471 828 721 828 q 378 822 418 828 q 300 798 338 815 q 242 747 263 781 q 221 661 221 713 l 221 232 q 472 76 221 76 q 721 232 721 76 m 513 976 l 410 976 l 236 1153 l 388 1153 l 513 976 z "},"Ó":{"ha":943,"x_min":92,"x_max":851,"o":"m 851 658 l 851 231 q 816 106 851 157 q 719 30 781 54 q 599 -4 658 6 q 469 -14 539 -14 q 92 231 92 -14 l 92 657 q 469 915 92 915 q 851 658 851 915 m 721 232 l 721 661 q 471 828 721 828 q 378 822 418 828 q 300 798 338 815 q 242 747 263 781 q 221 661 221 713 l 221 232 q 472 76 221 76 q 721 232 721 76 m 651 1153 l 478 976 l 375 976 l 500 1153 l 651 1153 z "},"Ô":{"ha":943,"x_min":92,"x_max":851,"o":"m 851 658 l 851 231 q 816 106 851 157 q 719 30 781 54 q 599 -4 658 6 q 469 -14 539 -14 q 92 231 92 -14 l 92 657 q 469 915 92 915 q 851 658 851 915 m 721 232 l 721 661 q 471 828 721 828 q 378 822 418 828 q 300 798 338 815 q 242 747 263 781 q 221 661 221 713 l 221 232 q 472 76 221 76 q 721 232 721 76 m 306 976 l 400 1153 l 549 1153 l 640 976 l 560 976 l 474 1097 l 386 976 l 306 976 z "},"Õ":{"ha":943,"x_min":92,"x_max":851,"o":"m 851 658 l 851 231 q 816 106 851 157 q 719 30 781 54 q 599 -4 658 6 q 469 -14 539 -14 q 92 231 92 -14 l 92 657 q 469 915 92 915 q 851 658 851 915 m 721 232 l 721 661 q 471 828 721 828 q 378 822 418 828 q 300 798 338 815 q 242 747 263 781 q 221 661 221 713 l 221 232 q 472 76 221 76 q 721 232 721 76 m 340 1101 q 431 1078 374 1101 q 514 1054 488 1054 q 564 1069 544 1054 q 604 1114 583 1083 l 604 1018 q 514 964 572 964 q 422 989 478 964 q 340 1014 367 1014 q 250 960 285 1014 l 250 1061 q 340 1101 283 1101 z "},"Ö":{"ha":943,"x_min":92,"x_max":851,"o":"m 851 658 l 851 231 q 816 106 851 157 q 719 30 781 54 q 599 -4 658 6 q 469 -14 539 -14 q 92 231 92 -14 l 92 657 q 469 915 92 915 q 851 658 851 915 m 721 232 l 721 661 q 471 828 721 828 q 378 822 418 828 q 300 798 338 815 q 242 747 263 781 q 221 661 221 713 l 221 232 q 472 76 221 76 q 721 232 721 76 m 403 993 l 278 993 l 278 1124 l 403 1124 l 403 993 m 639 993 l 514 993 l 514 1124 l 639 1124 l 639 993 z "},"×":{"ha":694,"x_min":97,"x_max":596,"o":"m 164 686 l 346 503 l 531 688 l 596 621 l 413 438 l 596 254 l 531 188 l 346 371 l 164 189 l 97 254 l 281 438 l 97 621 l 164 686 z "},"Ø":{"ha":943,"x_min":92,"x_max":851,"o":"m 851 658 l 851 231 q 816 106 851 157 q 719 30 781 54 q 599 -4 658 6 q 469 -14 539 -14 q 92 231 92 -14 l 92 657 q 469 915 92 915 q 851 658 851 915 m 221 232 q 224 194 221 206 l 660 786 q 471 828 599 828 q 378 822 418 828 q 300 798 338 815 q 242 747 263 781 q 221 661 221 713 l 221 232 m 721 232 l 721 661 q 717 704 721 683 l 282 115 q 472 76 342 76 q 721 232 721 76 z "},"Ù":{"ha":939,"x_min":117,"x_max":821,"o":"m 821 901 l 821 231 q 468 -14 821 -14 q 342 -5 397 -14 q 232 28 286 4 q 147 104 178 53 q 117 231 117 156 l 117 901 l 246 901 l 246 232 q 306 110 246 143 q 471 76 365 76 q 634 110 576 76 q 692 232 692 143 l 692 901 l 821 901 m 556 976 l 453 976 l 279 1153 l 431 1153 l 556 976 z "},"Ú":{"ha":939,"x_min":117,"x_max":821,"o":"m 821 901 l 821 231 q 468 -14 821 -14 q 342 -5 397 -14 q 232 28 286 4 q 147 104 178 53 q 117 231 117 156 l 117 901 l 246 901 l 246 232 q 306 110 246 143 q 471 76 365 76 q 634 110 576 76 q 692 232 692 143 l 692 901 l 821 901 m 639 1153 l 465 976 l 363 976 l 488 1153 l 639 1153 z "},"Û":{"ha":939,"x_min":117,"x_max":821,"o":"m 821 901 l 821 231 q 468 -14 821 -14 q 342 -5 397 -14 q 232 28 286 4 q 147 104 178 53 q 117 231 117 156 l 117 901 l 246 901 l 246 232 q 306 110 246 143 q 471 76 365 76 q 634 110 576 76 q 692 232 692 143 l 692 901 l 821 901 m 293 976 l 388 1153 l 536 1153 l 628 976 l 547 976 l 461 1097 l 374 976 l 293 976 z "},"Ü":{"ha":939,"x_min":117,"x_max":821,"o":"m 821 901 l 821 231 q 468 -14 821 -14 q 342 -5 397 -14 q 232 28 286 4 q 147 104 178 53 q 117 231 117 156 l 117 901 l 246 901 l 246 232 q 306 110 246 143 q 471 76 365 76 q 634 110 576 76 q 692 232 692 143 l 692 901 l 821 901 m 404 993 l 279 993 l 279 1124 l 404 1124 l 404 993 m 640 993 l 515 993 l 515 1124 l 640 1124 l 640 993 z "},"Ý":{"ha":811,"x_min":11,"x_max":800,"o":"m 800 901 l 472 368 l 472 0 l 338 0 l 338 364 l 11 901 l 165 901 l 406 478 l 646 901 l 800 901 m 582 1153 l 408 976 l 306 976 l 431 1153 l 582 1153 z "},"Þ":{"ha":792,"x_min":117,"x_max":729,"o":"m 251 657 l 251 250 l 404 250 q 541 280 485 250 q 597 383 597 310 l 597 547 q 578 609 597 585 q 522 643 558 633 q 462 655 486 653 q 401 657 438 657 l 251 657 m 251 0 l 117 0 l 117 901 l 251 901 l 251 742 l 411 742 q 507 739 467 742 q 592 726 547 736 q 665 697 638 715 q 710 644 692 678 q 729 564 729 611 l 729 376 q 640 213 729 261 q 386 165 550 165 l 251 165 l 251 0 z "},"ß":{"ha":836,"x_min":108,"x_max":753,"o":"m 753 331 l 753 179 q 678 40 753 81 q 433 0 603 0 l 350 0 l 350 89 l 440 89 q 583 110 542 89 q 625 181 625 131 l 625 321 q 610 378 625 357 q 565 409 596 400 q 509 420 533 418 q 440 422 485 422 l 350 422 l 350 507 l 435 507 q 557 533 521 507 q 593 614 593 558 l 593 733 q 553 805 593 783 q 424 826 513 826 q 272 801 307 826 q 236 686 236 776 l 236 0 l 108 0 l 108 658 q 175 862 108 808 q 424 915 242 915 q 606 892 540 915 q 692 833 672 868 q 713 744 713 799 l 713 610 q 683 524 713 553 q 593 482 653 496 l 593 476 q 709 427 665 464 q 753 331 753 390 z "},"à":{"ha":747,"x_min":69,"x_max":639,"o":"m 639 0 l 518 0 l 518 64 q 315 -14 503 -14 q 123 28 176 -14 q 69 200 69 71 q 119 355 69 313 q 313 397 169 397 l 514 397 l 514 504 q 480 579 514 560 q 351 599 446 599 q 121 582 249 599 l 121 674 q 369 686 258 686 q 589 645 539 686 q 639 475 639 604 l 639 0 m 514 136 l 514 319 l 321 319 q 213 297 235 319 q 192 196 192 275 q 215 97 192 125 q 311 68 238 68 l 336 68 q 397 69 372 68 q 451 77 421 71 q 498 98 482 83 q 514 136 514 113 m 443 768 l 340 768 l 167 944 l 318 944 l 443 768 z "},"á":{"ha":747,"x_min":69,"x_max":639,"o":"m 639 0 l 518 0 l 518 64 q 315 -14 503 -14 q 123 28 176 -14 q 69 200 69 71 q 119 355 69 313 q 313 397 169 397 l 514 397 l 514 504 q 480 579 514 560 q 351 599 446 599 q 121 582 249 599 l 121 674 q 369 686 258 686 q 589 645 539 686 q 639 475 639 604 l 639 0 m 514 136 l 514 319 l 321 319 q 213 297 235 319 q 192 196 192 275 q 215 97 192 125 q 311 68 238 68 l 336 68 q 397 69 372 68 q 451 77 421 71 q 498 98 482 83 q 514 136 514 113 m 540 944 l 367 768 l 264 768 l 389 944 l 540 944 z "},"â":{"ha":747,"x_min":69,"x_max":639,"o":"m 639 0 l 518 0 l 518 64 q 315 -14 503 -14 q 123 28 176 -14 q 69 200 69 71 q 119 355 69 313 q 313 397 169 397 l 514 397 l 514 504 q 480 579 514 560 q 351 599 446 599 q 121 582 249 599 l 121 674 q 369 686 258 686 q 589 645 539 686 q 639 475 639 604 l 639 0 m 514 136 l 514 319 l 321 319 q 213 297 235 319 q 192 196 192 275 q 215 97 192 125 q 311 68 238 68 l 336 68 q 397 69 372 68 q 451 77 421 71 q 498 98 482 83 q 514 136 514 113 m 194 768 l 289 944 l 438 944 l 529 768 l 449 768 l 363 889 l 275 768 l 194 768 z "},"ã":{"ha":747,"x_min":69,"x_max":639,"o":"m 639 0 l 518 0 l 518 64 q 315 -14 503 -14 q 123 28 176 -14 q 69 200 69 71 q 119 355 69 313 q 313 397 169 397 l 514 397 l 514 504 q 480 579 514 560 q 351 599 446 599 q 121 582 249 599 l 121 674 q 369 686 258 686 q 589 645 539 686 q 639 475 639 604 l 639 0 m 514 136 l 514 319 l 321 319 q 213 297 235 319 q 192 196 192 275 q 215 97 192 125 q 311 68 238 68 l 336 68 q 397 69 372 68 q 451 77 421 71 q 498 98 482 83 q 514 136 514 113 m 288 893 q 378 869 321 893 q 461 846 435 846 q 511 860 492 846 q 551 906 531 875 l 551 810 q 461 756 519 756 q 369 781 425 756 q 288 806 314 806 q 197 751 232 806 l 197 853 q 288 893 231 893 z "},"ä":{"ha":747,"x_min":69,"x_max":639,"o":"m 639 0 l 518 0 l 518 64 q 315 -14 503 -14 q 123 28 176 -14 q 69 200 69 71 q 119 355 69 313 q 313 397 169 397 l 514 397 l 514 504 q 480 579 514 560 q 351 599 446 599 q 121 582 249 599 l 121 674 q 369 686 258 686 q 589 645 539 686 q 639 475 639 604 l 639 0 m 514 136 l 514 319 l 321 319 q 213 297 235 319 q 192 196 192 275 q 215 97 192 125 q 311 68 238 68 l 336 68 q 397 69 372 68 q 451 77 421 71 q 498 98 482 83 q 514 136 514 113 m 306 785 l 181 785 l 181 915 l 306 915 l 306 785 m 542 785 l 417 785 l 417 915 l 542 915 l 542 785 z "},"å":{"ha":747,"x_min":69,"x_max":639,"o":"m 639 0 l 518 0 l 518 64 q 315 -14 503 -14 q 123 28 176 -14 q 69 200 69 71 q 119 355 69 313 q 313 397 169 397 l 514 397 l 514 504 q 480 579 514 560 q 351 599 446 599 q 121 582 249 599 l 121 674 q 369 686 258 686 q 589 645 539 686 q 639 475 639 604 l 639 0 m 514 136 l 514 319 l 321 319 q 213 297 235 319 q 192 196 192 275 q 215 97 192 125 q 311 68 238 68 l 336 68 q 397 69 372 68 q 451 77 421 71 q 498 98 482 83 q 514 136 514 113 m 558 921 l 558 904 q 547 828 558 857 q 506 788 535 800 q 450 772 478 775 q 372 768 422 768 q 295 772 322 768 q 240 788 268 775 q 199 828 211 800 q 188 904 188 857 l 188 921 q 199 1001 188 971 q 240 1045 211 1032 q 295 1062 268 1058 q 372 1065 322 1065 q 435 1063 411 1065 q 485 1053 458 1061 q 525 1031 511 1046 q 549 989 539 1017 q 558 921 558 961 m 471 894 l 471 932 q 450 994 471 982 q 372 1007 429 1007 q 295 994 315 1007 q 275 932 275 982 l 275 894 q 295 838 275 849 q 372 826 315 826 q 450 838 429 826 q 471 894 471 849 z "},"æ":{"ha":1167,"x_min":69,"x_max":1085,"o":"m 1085 308 l 647 308 l 647 207 q 694 106 647 136 q 839 76 740 76 q 1058 110 928 76 l 1058 14 q 818 -14 932 -14 q 567 65 642 -14 q 319 -14 547 -14 q 122 27 174 -14 q 69 194 69 68 q 119 354 69 311 q 313 397 168 397 l 521 397 l 521 501 q 485 576 521 554 q 363 599 450 599 q 121 575 210 599 l 121 667 q 379 686 225 686 q 599 638 544 686 q 811 686 667 686 q 1020 636 956 686 q 1085 457 1085 586 l 1085 308 m 960 390 l 960 496 q 926 581 960 558 q 806 603 892 603 q 685 581 724 603 q 647 496 647 558 l 647 390 l 960 390 m 521 151 l 521 319 l 321 319 q 213 297 235 319 q 192 196 192 275 q 215 93 192 121 q 325 65 238 65 q 385 66 364 65 q 436 72 406 67 q 482 85 467 76 q 509 110 497 93 q 521 151 521 126 z "},"ç":{"ha":644,"x_min":83,"x_max":594,"o":"m 594 6 q 422 -12 514 -10 l 393 -72 q 483 -101 444 -74 q 522 -181 522 -128 q 475 -274 522 -242 q 365 -306 428 -306 q 253 -279 297 -306 l 282 -217 q 363 -240 324 -240 q 428 -185 428 -240 q 397 -143 428 -158 q 319 -128 367 -128 l 274 -128 q 335 -14 307 -71 q 253 -8 286 -12 q 186 9 221 -4 q 131 45 151 22 q 97 108 110 68 q 83 206 83 149 l 83 453 q 94 549 83 508 q 126 614 104 589 q 172 654 149 639 q 237 676 196 669 q 309 684 278 682 q 393 686 340 686 q 585 665 489 686 l 585 574 q 378 601 476 601 q 241 579 271 601 q 211 471 211 557 l 211 193 q 246 97 211 119 q 392 74 281 74 q 594 100 490 74 l 594 6 z "},"è":{"ha":743,"x_min":83,"x_max":661,"o":"m 661 308 l 210 308 l 210 207 q 260 106 210 136 q 408 76 310 76 q 635 110 504 76 l 635 14 q 392 -14 510 -14 q 83 192 83 -14 l 83 457 q 154 633 83 581 q 381 686 225 686 q 594 635 526 686 q 661 457 661 585 l 661 308 m 536 390 l 536 496 q 499 580 536 557 q 374 603 461 603 q 250 581 290 603 q 210 496 210 558 l 210 390 l 536 390 m 443 768 l 340 768 l 167 944 l 318 944 l 443 768 z "},"é":{"ha":743,"x_min":83,"x_max":661,"o":"m 661 308 l 210 308 l 210 207 q 260 106 210 136 q 408 76 310 76 q 635 110 504 76 l 635 14 q 392 -14 510 -14 q 83 192 83 -14 l 83 457 q 154 633 83 581 q 381 686 225 686 q 594 635 526 686 q 661 457 661 585 l 661 308 m 536 390 l 536 496 q 499 580 536 557 q 374 603 461 603 q 250 581 290 603 q 210 496 210 558 l 210 390 l 536 390 m 554 944 l 381 768 l 278 768 l 403 944 l 554 944 z "},"ê":{"ha":743,"x_min":83,"x_max":661,"o":"m 661 308 l 210 308 l 210 207 q 260 106 210 136 q 408 76 310 76 q 635 110 504 76 l 635 14 q 392 -14 510 -14 q 83 192 83 -14 l 83 457 q 154 633 83 581 q 381 686 225 686 q 594 635 526 686 q 661 457 661 585 l 661 308 m 536 390 l 536 496 q 499 580 536 557 q 374 603 461 603 q 250 581 290 603 q 210 496 210 558 l 210 390 l 536 390 m 194 768 l 289 944 l 438 944 l 529 768 l 449 768 l 363 889 l 275 768 l 194 768 z "},"ë":{"ha":743,"x_min":83,"x_max":661,"o":"m 661 308 l 210 308 l 210 207 q 260 106 210 136 q 408 76 310 76 q 635 110 504 76 l 635 14 q 392 -14 510 -14 q 83 192 83 -14 l 83 457 q 154 633 83 581 q 381 686 225 686 q 594 635 526 686 q 661 457 661 585 l 661 308 m 536 390 l 536 496 q 499 580 536 557 q 374 603 461 603 q 250 581 290 603 q 210 496 210 558 l 210 390 l 536 390 m 306 785 l 181 785 l 181 915 l 306 915 l 306 785 m 542 785 l 417 785 l 417 915 l 542 915 l 542 785 z "},"ì":{"ha":342,"x_min":36,"x_max":313,"o":"m 235 0 l 110 0 l 110 672 l 235 672 l 235 0 m 313 768 l 210 768 l 36 944 l 188 944 l 313 768 z "},"í":{"ha":342,"x_min":110,"x_max":386,"o":"m 235 0 l 110 0 l 110 672 l 235 672 l 235 0 m 386 944 l 213 768 l 110 768 l 235 944 l 386 944 z "},"î":{"ha":342,"x_min":10,"x_max":344,"o":"m 235 0 l 110 0 l 110 672 l 235 672 l 235 0 m 10 768 l 104 944 l 253 944 l 344 768 l 264 768 l 178 889 l 90 768 l 10 768 z "},"ï":{"ha":342,"x_min":-7,"x_max":354,"o":"m 235 0 l 110 0 l 110 672 l 235 672 l 235 0 m 118 785 l -7 785 l -7 915 l 118 915 l 118 785 m 354 785 l 229 785 l 229 915 l 354 915 l 354 785 z "},"ð":{"ha":789,"x_min":86,"x_max":700,"o":"m 263 785 l 263 864 l 368 896 q 294 972 344 922 l 442 972 l 485 931 l 625 972 l 625 893 l 540 868 q 700 446 700 674 l 700 213 q 686 106 700 149 q 651 40 672 64 q 586 4 629 17 q 503 -11 543 -8 q 393 -14 463 -14 q 282 -11 322 -14 q 199 4 242 -8 q 135 40 156 17 q 100 106 114 64 q 86 213 86 149 l 86 446 q 100 556 86 511 q 136 626 114 600 q 200 665 158 651 q 284 682 242 678 q 393 686 326 686 q 522 681 472 686 q 424 832 479 764 l 263 785 m 575 194 l 575 467 q 538 583 575 560 q 393 606 500 606 q 249 583 286 606 q 211 467 211 560 l 211 194 q 250 88 211 110 q 393 67 289 67 q 536 88 497 67 q 575 194 575 110 z "},"ñ":{"ha":796,"x_min":108,"x_max":688,"o":"m 688 0 l 563 0 l 563 486 q 558 528 563 511 q 541 562 554 544 q 497 588 528 579 q 418 597 465 597 q 271 574 308 597 q 233 486 233 550 l 233 0 l 108 0 l 108 672 l 233 672 l 233 590 q 454 686 253 686 q 638 638 588 686 q 688 493 688 590 l 688 0 m 299 893 q 389 869 332 893 q 472 846 446 846 q 522 860 503 846 q 563 906 542 875 l 563 810 q 472 756 531 756 q 381 781 436 756 q 299 806 325 806 q 208 751 243 806 l 208 853 q 299 893 242 893 z "},"ò":{"ha":789,"x_min":83,"x_max":703,"o":"m 703 446 l 703 213 q 688 107 703 150 q 649 40 672 64 q 581 4 625 17 q 498 -11 538 -8 q 393 -14 458 -14 q 263 -8 310 -14 q 170 19 217 -3 q 103 88 124 40 q 83 213 83 135 l 83 446 q 99 558 83 513 q 138 629 115 604 q 206 667 161 654 q 288 683 250 681 q 393 686 326 686 q 498 683 460 686 q 581 667 536 681 q 648 629 625 654 q 687 558 671 604 q 703 446 703 513 m 575 194 l 575 467 q 538 582 575 560 q 393 604 500 604 q 249 582 286 604 q 211 467 211 560 l 211 194 q 221 124 211 150 q 257 85 231 97 q 311 71 283 74 q 393 68 339 68 q 475 71 447 68 q 529 85 503 74 q 565 124 556 97 q 575 194 575 150 m 457 768 l 354 768 l 181 944 l 332 944 l 457 768 z "},"ó":{"ha":789,"x_min":83,"x_max":703,"o":"m 703 446 l 703 213 q 688 107 703 150 q 649 40 672 64 q 581 4 625 17 q 498 -11 538 -8 q 393 -14 458 -14 q 263 -8 310 -14 q 170 19 217 -3 q 103 88 124 40 q 83 213 83 135 l 83 446 q 99 558 83 513 q 138 629 115 604 q 206 667 161 654 q 288 683 250 681 q 393 686 326 686 q 498 683 460 686 q 581 667 536 681 q 648 629 625 654 q 687 558 671 604 q 703 446 703 513 m 575 194 l 575 467 q 538 582 575 560 q 393 604 500 604 q 249 582 286 604 q 211 467 211 560 l 211 194 q 221 124 211 150 q 257 85 231 97 q 311 71 283 74 q 393 68 339 68 q 475 71 447 68 q 529 85 503 74 q 565 124 556 97 q 575 194 575 150 m 568 944 l 394 768 l 292 768 l 417 944 l 568 944 z "},"ô":{"ha":789,"x_min":83,"x_max":703,"o":"m 703 446 l 703 213 q 688 107 703 150 q 649 40 672 64 q 581 4 625 17 q 498 -11 538 -8 q 393 -14 458 -14 q 263 -8 310 -14 q 170 19 217 -3 q 103 88 124 40 q 83 213 83 135 l 83 446 q 99 558 83 513 q 138 629 115 604 q 206 667 161 654 q 288 683 250 681 q 393 686 326 686 q 498 683 460 686 q 581 667 536 681 q 648 629 625 654 q 687 558 671 604 q 703 446 703 513 m 575 194 l 575 467 q 538 582 575 560 q 393 604 500 604 q 249 582 286 604 q 211 467 211 560 l 211 194 q 221 124 211 150 q 257 85 231 97 q 311 71 283 74 q 393 68 339 68 q 475 71 447 68 q 529 85 503 74 q 565 124 556 97 q 575 194 575 150 m 228 768 l 322 944 l 471 944 l 563 768 l 482 768 l 396 889 l 308 768 l 228 768 z "},"õ":{"ha":789,"x_min":83,"x_max":703,"o":"m 703 446 l 703 213 q 688 107 703 150 q 649 40 672 64 q 581 4 625 17 q 498 -11 538 -8 q 393 -14 458 -14 q 263 -8 310 -14 q 170 19 217 -3 q 103 88 124 40 q 83 213 83 135 l 83 446 q 99 558 83 513 q 138 629 115 604 q 206 667 161 654 q 288 683 250 681 q 393 686 326 686 q 498 683 460 686 q 581 667 536 681 q 648 629 625 654 q 687 558 671 604 q 703 446 703 513 m 575 194 l 575 467 q 538 582 575 560 q 393 604 500 604 q 249 582 286 604 q 211 467 211 560 l 211 194 q 221 124 211 150 q 257 85 231 97 q 311 71 283 74 q 393 68 339 68 q 475 71 447 68 q 529 85 503 74 q 565 124 556 97 q 575 194 575 150 m 308 893 q 399 869 342 893 q 482 846 456 846 q 532 860 513 846 q 572 906 551 875 l 572 810 q 482 756 540 756 q 390 781 446 756 q 308 806 335 806 q 218 751 253 806 l 218 853 q 308 893 251 893 z "},"ö":{"ha":789,"x_min":83,"x_max":703,"o":"m 703 446 l 703 213 q 688 107 703 150 q 649 40 672 64 q 581 4 625 17 q 498 -11 538 -8 q 393 -14 458 -14 q 263 -8 310 -14 q 170 19 217 -3 q 103 88 124 40 q 83 213 83 135 l 83 446 q 99 558 83 513 q 138 629 115 604 q 206 667 161 654 q 288 683 250 681 q 393 686 326 686 q 498 683 460 686 q 581 667 536 681 q 648 629 625 654 q 687 558 671 604 q 703 446 703 513 m 575 194 l 575 467 q 538 582 575 560 q 393 604 500 604 q 249 582 286 604 q 211 467 211 560 l 211 194 q 221 124 211 150 q 257 85 231 97 q 311 71 283 74 q 393 68 339 68 q 475 71 447 68 q 529 85 503 74 q 565 124 556 97 q 575 194 575 150 m 339 785 l 214 785 l 214 915 l 339 915 l 339 785 m 575 785 l 450 785 l 450 915 l 575 915 l 575 785 z "},"÷":{"ha":694,"x_min":83,"x_max":611,"o":"m 611 392 l 83 392 l 83 485 l 611 485 l 611 392 m 428 621 l 267 621 l 267 771 l 428 771 l 428 621 m 428 99 l 267 99 l 267 249 l 428 249 l 428 99 z "},"ø":{"ha":789,"x_min":83,"x_max":703,"o":"m 703 446 l 703 213 q 688 107 703 150 q 649 40 672 64 q 581 4 625 17 q 498 -11 538 -8 q 393 -14 458 -14 q 263 -8 310 -14 q 170 19 217 -3 q 103 88 124 40 q 83 213 83 135 l 83 446 q 99 558 83 513 q 138 629 115 604 q 206 667 161 654 q 288 683 250 681 q 393 686 326 686 q 498 683 460 686 q 581 667 536 681 q 648 629 625 654 q 687 558 671 604 q 703 446 703 513 m 518 592 q 393 604 485 604 q 249 582 286 604 q 211 467 211 560 l 211 194 q 221 128 211 151 l 518 592 m 575 194 l 575 467 q 565 540 575 508 l 269 79 q 393 68 303 68 q 475 71 447 68 q 529 85 503 74 q 565 124 556 97 q 575 194 575 150 z "},"ù":{"ha":796,"x_min":108,"x_max":688,"o":"m 688 0 l 563 0 l 563 82 q 342 -14 543 -14 q 158 34 208 -14 q 108 179 108 82 l 108 672 l 233 672 l 233 186 q 238 144 233 161 q 255 110 242 128 q 299 84 268 93 q 378 75 331 75 q 522 94 482 75 q 563 165 563 114 l 563 672 l 688 672 l 688 0 m 471 768 l 368 768 l 194 944 l 346 944 l 471 768 z "},"ú":{"ha":796,"x_min":108,"x_max":688,"o":"m 688 0 l 563 0 l 563 82 q 342 -14 543 -14 q 158 34 208 -14 q 108 179 108 82 l 108 672 l 233 672 l 233 186 q 238 144 233 161 q 255 110 242 128 q 299 84 268 93 q 378 75 331 75 q 522 94 482 75 q 563 165 563 114 l 563 672 l 688 672 l 688 0 m 582 944 l 408 768 l 306 768 l 431 944 l 582 944 z "},"û":{"ha":796,"x_min":108,"x_max":688,"o":"m 688 0 l 563 0 l 563 82 q 342 -14 543 -14 q 158 34 208 -14 q 108 179 108 82 l 108 672 l 233 672 l 233 186 q 238 144 233 161 q 255 110 242 128 q 299 84 268 93 q 378 75 331 75 q 522 94 482 75 q 563 165 563 114 l 563 672 l 688 672 l 688 0 m 222 768 l 317 944 l 465 944 l 557 768 l 476 768 l 390 889 l 303 768 l 222 768 z "},"ü":{"ha":796,"x_min":108,"x_max":688,"o":"m 688 0 l 563 0 l 563 82 q 342 -14 543 -14 q 158 34 208 -14 q 108 179 108 82 l 108 672 l 233 672 l 233 186 q 238 144 233 161 q 255 110 242 128 q 299 84 268 93 q 378 75 331 75 q 522 94 482 75 q 563 165 563 114 l 563 672 l 688 672 l 688 0 m 333 785 l 208 785 l 208 915 l 333 915 l 333 785 m 569 785 l 444 785 l 444 915 l 569 915 l 569 785 z "},"ý":{"ha":639,"x_min":8,"x_max":631,"o":"m 631 672 l 293 -289 l 163 -289 l 268 -10 l 8 672 l 144 672 l 332 124 l 335 124 l 504 672 l 631 672 m 499 944 l 325 768 l 222 768 l 347 944 l 499 944 z "},"þ":{"ha":804,"x_min":108,"x_max":721,"o":"m 593 204 l 593 451 q 553 570 593 544 q 410 596 513 596 q 266 570 306 596 q 226 451 226 544 l 226 204 q 267 95 226 119 q 411 71 308 71 q 553 95 514 71 q 593 204 593 119 m 108 972 l 233 972 l 233 600 q 463 686 249 686 q 659 630 597 686 q 721 496 721 574 l 721 219 q 703 114 721 158 q 658 45 685 69 q 586 7 631 21 q 503 -10 542 -7 q 408 -14 464 -14 q 300 0 353 -14 q 233 43 247 14 l 233 -289 l 108 -289 l 108 972 z "},"ÿ":{"ha":639,"x_min":8,"x_max":631,"o":"m 631 672 l 293 -289 l 163 -289 l 268 -10 l 8 672 l 144 672 l 332 124 l 335 124 l 504 672 l 631 672 m 250 785 l 125 785 l 125 915 l 250 915 l 250 785 m 486 785 l 361 785 l 361 915 l 486 915 l 486 785 z "},"Ā":{"ha":906,"x_min":21,"x_max":885,"o":"m 885 0 l 744 0 l 642 274 l 256 274 l 154 0 l 21 0 l 379 901 l 535 901 l 885 0 m 608 367 l 456 774 l 443 774 l 290 367 l 608 367 m 601 1026 l 299 1026 l 299 1108 l 601 1108 l 601 1026 z "},"ā":{"ha":747,"x_min":69,"x_max":639,"o":"m 639 0 l 518 0 l 518 64 q 315 -14 503 -14 q 123 28 176 -14 q 69 200 69 71 q 119 355 69 313 q 313 397 169 397 l 514 397 l 514 504 q 480 579 514 560 q 351 599 446 599 q 121 582 249 599 l 121 674 q 369 686 258 686 q 589 645 539 686 q 639 475 639 604 l 639 0 m 514 136 l 514 319 l 321 319 q 213 297 235 319 q 192 196 192 275 q 215 97 192 125 q 311 68 238 68 l 336 68 q 397 69 372 68 q 451 77 421 71 q 498 98 482 83 q 514 136 514 113 m 525 819 l 222 819 l 222 901 l 525 901 l 525 819 z "},"Ă":{"ha":906,"x_min":21,"x_max":885,"o":"m 885 0 l 744 0 l 642 274 l 256 274 l 154 0 l 21 0 l 379 901 l 535 901 l 885 0 m 608 367 l 456 774 l 443 774 l 290 367 l 608 367 m 613 1153 q 565 1024 607 1072 q 449 976 522 976 q 331 1024 374 976 q 285 1153 289 1072 l 335 1153 q 377 1080 353 1101 q 449 1058 401 1058 q 520 1081 494 1058 q 561 1153 546 1103 l 613 1153 z "},"ă":{"ha":747,"x_min":69,"x_max":639,"o":"m 639 0 l 518 0 l 518 64 q 315 -14 503 -14 q 123 28 176 -14 q 69 200 69 71 q 119 355 69 313 q 313 397 169 397 l 514 397 l 514 504 q 480 579 514 560 q 351 599 446 599 q 121 582 249 599 l 121 674 q 369 686 258 686 q 589 645 539 686 q 639 475 639 604 l 639 0 m 514 136 l 514 319 l 321 319 q 213 297 235 319 q 192 196 192 275 q 215 97 192 125 q 311 68 238 68 l 336 68 q 397 69 372 68 q 451 77 421 71 q 498 98 482 83 q 514 136 514 113 m 486 816 q 465 792 486 816 q 368 768 443 768 q 250 816 293 768 q 204 944 207 864 l 279 944 q 368 850 288 850 q 457 944 449 850 l 532 944 q 486 816 529 864 z "},"Ą":{"ha":906,"x_min":21,"x_max":922,"o":"m 853 -258 q 749 -233 783 -258 q 715 -147 715 -207 q 744 0 715 -90 l 642 274 l 256 274 l 154 0 l 21 0 l 379 901 l 535 901 l 885 0 q 825 -135 825 -72 q 879 -181 825 -181 q 922 -171 890 -181 l 922 -244 q 853 -258 893 -258 m 608 367 l 456 774 l 443 774 l 290 367 l 608 367 z "},"ą":{"ha":747,"x_min":69,"x_max":675,"o":"m 639 475 l 639 0 q 578 -135 578 -67 q 632 -181 578 -181 q 675 -171 643 -181 l 675 -244 q 606 -258 646 -258 q 502 -233 536 -258 q 468 -147 468 -207 q 518 0 468 -78 l 518 64 q 315 -14 503 -14 q 123 28 176 -14 q 69 200 69 71 q 119 355 69 313 q 313 397 169 397 l 514 397 l 514 504 q 480 579 514 560 q 351 599 446 599 q 121 582 249 599 l 121 674 q 369 686 258 686 q 589 645 539 686 q 639 475 639 604 m 514 133 l 514 319 l 321 319 q 213 297 235 319 q 192 196 192 275 q 215 94 192 124 q 311 65 238 65 l 336 65 q 397 67 372 65 q 451 74 421 68 q 498 95 482 81 q 514 133 514 110 z "},"Ć":{"ha":783,"x_min":89,"x_max":721,"o":"m 721 13 q 468 -14 600 -14 q 89 231 89 -14 l 89 658 q 468 917 89 917 q 715 890 594 917 l 715 790 q 471 824 582 824 q 378 817 418 824 q 299 795 338 811 q 239 745 260 779 q 218 660 218 711 l 218 238 q 476 82 218 82 q 721 115 588 82 l 721 13 m 644 1153 l 471 976 l 368 976 l 493 1153 l 644 1153 z "},"ć":{"ha":644,"x_min":83,"x_max":594,"o":"m 594 6 q 379 -14 503 -14 q 284 -12 318 -14 q 206 2 250 -10 q 140 36 163 14 q 100 101 117 58 q 83 206 83 143 l 83 453 q 94 549 83 508 q 126 614 104 589 q 172 654 149 639 q 237 676 196 669 q 309 684 278 682 q 393 686 340 686 q 585 665 489 686 l 585 574 q 378 601 476 601 q 242 576 274 601 q 211 471 211 551 l 211 196 q 247 98 211 122 q 392 74 282 74 q 594 100 490 74 l 594 6 m 567 944 l 393 768 l 290 768 l 415 944 l 567 944 z "},"Ĉ":{"ha":783,"x_min":89,"x_max":721,"o":"m 721 13 q 468 -14 600 -14 q 89 231 89 -14 l 89 658 q 468 917 89 917 q 715 890 594 917 l 715 790 q 471 824 582 824 q 378 817 418 824 q 299 795 338 811 q 239 745 260 779 q 218 660 218 711 l 218 238 q 476 82 218 82 q 721 115 588 82 l 721 13 m 293 976 l 388 1153 l 536 1153 l 628 976 l 547 976 l 461 1097 l 374 976 l 293 976 z "},"ĉ":{"ha":644,"x_min":83,"x_max":594,"o":"m 594 6 q 379 -14 503 -14 q 284 -12 318 -14 q 206 2 250 -10 q 140 36 163 14 q 100 101 117 58 q 83 206 83 143 l 83 453 q 94 549 83 508 q 126 614 104 589 q 172 654 149 639 q 237 676 196 669 q 309 684 278 682 q 393 686 340 686 q 585 665 489 686 l 585 574 q 378 601 476 601 q 242 576 274 601 q 211 471 211 551 l 211 196 q 247 98 211 122 q 392 74 282 74 q 594 100 490 74 l 594 6 m 211 768 l 306 944 l 454 944 l 546 768 l 465 768 l 379 889 l 292 768 l 211 768 z "},"Ċ":{"ha":783,"x_min":89,"x_max":721,"o":"m 721 13 q 468 -14 600 -14 q 89 231 89 -14 l 89 658 q 468 917 89 917 q 715 890 594 917 l 715 790 q 471 824 582 824 q 378 817 418 824 q 299 795 338 811 q 239 745 260 779 q 218 660 218 711 l 218 238 q 476 82 218 82 q 721 115 588 82 l 721 13 m 528 1017 l 403 1017 l 403 1153 l 528 1153 l 528 1017 z "},"ċ":{"ha":644,"x_min":83,"x_max":594,"o":"m 594 6 q 379 -14 503 -14 q 284 -12 318 -14 q 206 2 250 -10 q 140 36 163 14 q 100 101 117 58 q 83 206 83 143 l 83 453 q 94 549 83 508 q 126 614 104 589 q 172 654 149 639 q 237 676 196 669 q 309 684 278 682 q 393 686 340 686 q 585 665 489 686 l 585 574 q 378 601 476 601 q 242 576 274 601 q 211 471 211 551 l 211 196 q 247 98 211 122 q 392 74 282 74 q 594 100 490 74 l 594 6 m 439 789 l 314 789 l 314 925 l 439 925 l 439 789 z "},"Č":{"ha":783,"x_min":89,"x_max":721,"o":"m 721 13 q 468 -14 600 -14 q 89 231 89 -14 l 89 658 q 468 917 89 917 q 715 890 594 917 l 715 790 q 471 824 582 824 q 378 817 418 824 q 299 795 338 811 q 239 745 260 779 q 218 660 218 711 l 218 238 q 476 82 218 82 q 721 115 588 82 l 721 13 m 349 976 l 254 1153 l 335 1153 l 422 1032 l 508 1153 l 589 1153 l 497 976 l 349 976 z "},"č":{"ha":644,"x_min":83,"x_max":594,"o":"m 594 6 q 379 -14 503 -14 q 284 -12 318 -14 q 206 2 250 -10 q 140 36 163 14 q 100 101 117 58 q 83 206 83 143 l 83 453 q 94 549 83 508 q 126 614 104 589 q 172 654 149 639 q 237 676 196 669 q 309 684 278 682 q 393 686 340 686 q 585 665 489 686 l 585 574 q 378 601 476 601 q 242 576 274 601 q 211 471 211 551 l 211 196 q 247 98 211 122 q 392 74 282 74 q 594 100 490 74 l 594 6 m 296 768 l 201 944 l 282 944 l 369 824 l 456 944 l 536 944 l 444 768 l 296 768 z "},"Ď":{"ha":943,"x_min":117,"x_max":854,"o":"m 854 643 l 854 244 q 476 0 854 0 l 117 0 l 117 901 l 475 901 q 854 643 854 901 m 725 247 l 725 644 q 704 730 725 696 q 645 780 683 764 q 567 802 607 796 q 474 808 526 808 l 251 808 l 251 92 l 467 92 q 725 247 725 92 m 399 997 l 304 1174 l 385 1174 l 472 1053 l 558 1174 l 639 1174 l 547 997 l 399 997 z "},"ď":{"ha":840,"x_min":83,"x_max":976,"o":"m 696 0 l 574 0 l 574 79 q 513 15 574 43 q 349 -14 453 -14 q 143 32 203 -14 q 83 200 83 78 l 83 496 q 146 642 83 597 q 356 686 208 686 q 502 665 435 686 q 571 600 569 644 l 574 600 q 571 771 571 714 l 571 963 l 696 963 l 696 0 m 571 176 l 571 508 q 386 599 571 599 q 241 582 275 599 q 207 508 207 565 l 207 176 q 245 96 207 119 q 375 72 283 72 q 524 96 478 72 q 571 176 571 119 m 976 943 l 861 735 l 782 735 l 846 943 l 976 943 z "},"Đ":{"ha":943,"x_min":28,"x_max":854,"o":"m 117 418 l 28 418 l 28 513 l 117 513 l 117 901 l 475 901 q 854 643 854 901 l 854 244 q 476 0 854 0 l 117 0 l 117 418 m 399 418 l 251 418 l 251 92 l 467 92 q 725 247 725 92 l 725 644 q 704 730 725 696 q 645 780 683 764 q 567 802 607 796 q 474 808 526 808 l 251 808 l 251 513 l 399 513 l 399 418 z "},"đ":{"ha":793,"x_min":83,"x_max":786,"o":"m 696 0 l 574 0 l 574 75 q 510 13 571 40 q 349 -14 450 -14 q 143 32 203 -14 q 83 200 83 78 l 83 496 q 146 642 83 597 q 356 686 208 686 q 502 665 435 686 q 571 600 569 644 l 574 600 q 571 768 571 711 l 426 768 l 426 840 l 571 840 l 571 972 l 696 972 l 696 840 l 786 840 l 786 768 l 696 768 l 696 0 m 571 176 l 571 508 q 386 599 571 599 q 241 582 275 599 q 207 508 207 565 l 207 176 q 245 96 207 119 q 375 72 283 72 q 524 96 478 72 q 571 176 571 119 z "},"Ē":{"ha":806,"x_min":117,"x_max":736,"o":"m 736 0 l 117 0 l 117 901 l 722 901 l 722 807 l 251 807 l 251 513 l 676 513 l 676 418 l 251 418 l 251 94 l 736 94 l 736 0 m 571 1026 l 268 1026 l 268 1108 l 571 1108 l 571 1026 z "},"ē":{"ha":743,"x_min":83,"x_max":661,"o":"m 661 308 l 210 308 l 210 207 q 260 106 210 136 q 408 76 310 76 q 635 110 504 76 l 635 14 q 392 -14 510 -14 q 83 192 83 -14 l 83 457 q 154 633 83 581 q 381 686 225 686 q 594 635 526 686 q 661 457 661 585 l 661 308 m 536 390 l 536 496 q 499 580 536 557 q 374 603 461 603 q 250 581 290 603 q 210 496 210 558 l 210 390 l 536 390 m 549 811 l 214 811 l 214 899 l 549 899 l 549 811 z "},"Ĕ":{"ha":806,"x_min":117,"x_max":736,"o":"m 736 0 l 117 0 l 117 901 l 722 901 l 722 807 l 251 807 l 251 513 l 676 513 l 676 418 l 251 418 l 251 94 l 736 94 l 736 0 m 588 1153 q 540 1024 582 1072 q 424 976 497 976 q 306 1024 349 976 q 260 1153 264 1072 l 310 1153 q 352 1080 328 1101 q 424 1058 376 1058 q 495 1081 469 1058 q 536 1153 521 1103 l 588 1153 z "},"ĕ":{"ha":743,"x_min":83,"x_max":661,"o":"m 661 308 l 210 308 l 210 207 q 260 106 210 136 q 408 76 310 76 q 635 110 504 76 l 635 14 q 392 -14 510 -14 q 83 192 83 -14 l 83 457 q 154 633 83 581 q 381 686 225 686 q 594 635 526 686 q 661 457 661 585 l 661 308 m 536 390 l 536 496 q 499 580 536 557 q 374 603 461 603 q 250 581 290 603 q 210 496 210 558 l 210 390 l 536 390 m 504 816 q 483 792 504 816 q 386 768 461 768 q 268 816 311 768 q 222 944 225 864 l 297 944 q 386 850 306 850 q 475 944 467 850 l 550 944 q 504 816 547 864 z "},"Ė":{"ha":806,"x_min":117,"x_max":736,"o":"m 736 0 l 117 0 l 117 901 l 722 901 l 722 807 l 251 807 l 251 513 l 676 513 l 676 418 l 251 418 l 251 94 l 736 94 l 736 0 m 481 1017 l 356 1017 l 356 1153 l 481 1153 l 481 1017 z "},"ė":{"ha":743,"x_min":83,"x_max":661,"o":"m 661 308 l 210 308 l 210 207 q 260 106 210 136 q 408 76 310 76 q 635 110 504 76 l 635 14 q 392 -14 510 -14 q 83 192 83 -14 l 83 457 q 154 633 83 581 q 381 686 225 686 q 594 635 526 686 q 661 457 661 585 l 661 308 m 536 390 l 536 496 q 499 580 536 557 q 374 603 461 603 q 250 581 290 603 q 210 496 210 558 l 210 390 l 536 390 m 439 789 l 314 789 l 314 925 l 439 925 l 439 789 z "},"Ę":{"ha":806,"x_min":117,"x_max":736,"o":"m 607 -258 q 504 -233 539 -258 q 469 -147 469 -207 q 519 0 469 -78 l 117 0 l 117 901 l 722 901 l 722 807 l 251 807 l 251 513 l 676 513 l 676 418 l 251 418 l 251 94 l 736 94 l 736 0 l 624 0 q 579 -135 579 -69 q 633 -181 579 -181 q 676 -171 644 -181 l 676 -244 q 607 -258 647 -258 z "},"ę":{"ha":743,"x_min":83,"x_max":661,"o":"m 490 -258 q 388 -233 422 -258 q 353 -147 353 -207 q 393 -14 353 -81 l 375 -14 q 165 35 246 -14 q 83 192 83 85 l 83 457 q 154 633 83 581 q 381 686 225 686 q 594 635 526 686 q 661 457 661 585 l 661 308 l 210 308 l 210 207 q 260 106 210 136 q 414 76 311 76 q 635 110 504 76 l 635 14 q 501 -8 560 -3 q 463 -135 463 -74 q 517 -181 463 -181 q 560 -171 528 -181 l 560 -244 q 490 -258 531 -258 m 536 390 l 536 496 q 499 580 536 557 q 378 603 463 603 q 251 581 292 603 q 210 496 210 560 l 210 390 l 536 390 z "},"Ě":{"ha":806,"x_min":117,"x_max":736,"o":"m 736 0 l 117 0 l 117 901 l 722 901 l 722 807 l 251 807 l 251 513 l 676 513 l 676 418 l 251 418 l 251 94 l 736 94 l 736 0 m 346 976 l 251 1153 l 332 1153 l 419 1032 l 506 1153 l 586 1153 l 494 976 l 346 976 z "},"ě":{"ha":743,"x_min":83,"x_max":661,"o":"m 661 308 l 210 308 l 210 207 q 260 106 210 136 q 408 76 310 76 q 635 110 504 76 l 635 14 q 392 -14 510 -14 q 83 192 83 -14 l 83 457 q 154 633 83 581 q 381 686 225 686 q 594 635 526 686 q 661 457 661 585 l 661 308 m 536 390 l 536 496 q 499 580 536 557 q 374 603 461 603 q 250 581 290 603 q 210 496 210 558 l 210 390 l 536 390 m 303 768 l 208 944 l 289 944 l 376 824 l 463 944 l 543 944 l 451 768 l 303 768 z "},"Ĝ":{"ha":925,"x_min":89,"x_max":836,"o":"m 836 28 q 504 -14 656 -14 q 397 -9 447 -14 q 288 12 346 -4 q 187 53 229 28 q 117 125 144 79 q 89 231 89 171 l 89 657 q 130 791 89 736 q 240 871 171 846 q 372 906 310 896 q 504 915 435 915 q 815 893 671 915 l 815 789 q 664 812 763 801 q 507 822 565 822 q 222 658 222 822 l 222 233 q 249 155 222 188 q 323 106 276 122 q 415 84 369 90 q 513 78 460 78 q 711 103 606 78 l 711 418 l 500 418 l 500 513 l 836 513 l 836 28 m 294 997 l 389 1174 l 538 1174 l 629 997 l 549 997 l 463 1118 l 375 997 l 294 997 z "},"ĝ":{"ha":790,"x_min":83,"x_max":682,"o":"m 682 672 l 682 -64 q 602 -256 682 -207 q 363 -306 522 -306 q 131 -290 219 -306 l 131 -201 q 374 -221 290 -221 q 513 -190 469 -221 q 557 -89 557 -160 l 557 72 q 492 6 554 25 q 351 -14 431 -14 q 140 32 196 -14 q 83 190 83 78 l 83 464 q 148 635 83 583 q 360 686 213 686 q 565 607 535 686 l 565 672 l 682 672 m 557 182 l 557 486 q 522 576 557 551 q 375 600 486 600 q 239 576 271 600 q 207 486 207 553 l 207 182 q 241 91 207 113 q 378 69 275 69 q 515 92 472 69 q 557 182 557 115 m 219 768 l 314 944 l 463 944 l 554 768 l 474 768 l 388 889 l 300 768 l 219 768 z "},"Ğ":{"ha":925,"x_min":89,"x_max":836,"o":"m 836 28 q 504 -14 656 -14 q 397 -9 447 -14 q 288 12 346 -4 q 187 53 229 28 q 117 125 144 79 q 89 231 89 171 l 89 657 q 130 791 89 736 q 240 871 171 846 q 372 906 310 896 q 504 915 435 915 q 815 893 671 915 l 815 789 q 664 812 763 801 q 507 822 565 822 q 222 658 222 822 l 222 233 q 249 155 222 188 q 323 106 276 122 q 415 84 369 90 q 513 78 460 78 q 711 103 606 78 l 711 418 l 500 418 l 500 513 l 836 513 l 836 28 m 581 1045 q 559 1021 581 1045 q 463 997 538 997 q 344 1045 388 997 q 299 1174 301 1093 l 374 1174 q 463 1079 382 1079 q 551 1174 543 1079 l 626 1174 q 581 1045 624 1093 z "},"ğ":{"ha":790,"x_min":83,"x_max":682,"o":"m 682 672 l 682 -64 q 602 -256 682 -207 q 363 -306 522 -306 q 131 -290 219 -306 l 131 -201 q 374 -221 290 -221 q 513 -190 469 -221 q 557 -89 557 -160 l 557 72 q 492 6 554 25 q 351 -14 431 -14 q 140 32 196 -14 q 83 190 83 78 l 83 464 q 148 635 83 583 q 360 686 213 686 q 565 607 535 686 l 565 672 l 682 672 m 557 182 l 557 486 q 522 576 557 551 q 375 600 486 600 q 239 576 271 600 q 207 486 207 553 l 207 182 q 241 91 207 113 q 378 69 275 69 q 515 92 472 69 q 557 182 557 115 m 486 816 q 465 792 486 816 q 368 768 443 768 q 250 816 293 768 q 204 944 207 864 l 279 944 q 368 850 288 850 q 457 944 449 850 l 532 944 q 486 816 529 864 z "},"Ġ":{"ha":925,"x_min":89,"x_max":836,"o":"m 836 28 q 504 -14 656 -14 q 397 -9 447 -14 q 288 12 346 -4 q 187 53 229 28 q 117 125 144 79 q 89 231 89 171 l 89 657 q 130 791 89 736 q 240 871 171 846 q 372 906 310 896 q 504 915 435 915 q 815 893 671 915 l 815 789 q 664 812 763 801 q 507 822 565 822 q 222 658 222 822 l 222 233 q 249 155 222 188 q 323 106 276 122 q 415 84 369 90 q 513 78 460 78 q 711 103 606 78 l 711 418 l 500 418 l 500 513 l 836 513 l 836 28 m 525 1018 l 400 1018 l 400 1154 l 525 1154 l 525 1018 z "},"ġ":{"ha":790,"x_min":83,"x_max":682,"o":"m 682 672 l 682 -64 q 602 -256 682 -207 q 363 -306 522 -306 q 131 -290 219 -306 l 131 -201 q 374 -221 290 -221 q 513 -190 469 -221 q 557 -89 557 -160 l 557 72 q 492 6 554 25 q 351 -14 431 -14 q 140 32 196 -14 q 83 190 83 78 l 83 464 q 148 635 83 583 q 360 686 213 686 q 565 607 535 686 l 565 672 l 682 672 m 557 182 l 557 486 q 522 576 557 551 q 375 600 486 600 q 239 576 271 600 q 207 486 207 553 l 207 182 q 241 91 207 113 q 378 69 275 69 q 515 92 472 69 q 557 182 557 115 m 447 789 l 322 789 l 322 925 l 447 925 l 447 789 z "},"Ģ":{"ha":925,"x_min":89,"x_max":836,"o":"m 836 28 q 504 -14 656 -14 q 397 -9 447 -14 q 288 12 346 -4 q 187 53 229 28 q 117 125 144 79 q 89 231 89 171 l 89 657 q 130 791 89 736 q 240 871 171 846 q 372 906 310 896 q 504 915 435 915 q 815 893 671 915 l 815 789 q 664 812 763 801 q 507 822 565 822 q 222 658 222 822 l 222 233 q 249 155 222 188 q 323 106 276 122 q 415 84 369 90 q 513 78 460 78 q 711 103 606 78 l 711 418 l 500 418 l 500 513 l 836 513 l 836 28 m 560 -56 l 444 -264 l 365 -264 l 429 -56 l 560 -56 z "},"ģ":{"ha":790,"x_min":83,"x_max":682,"o":"m 682 672 l 682 -22 q 602 -215 682 -165 q 363 -264 522 -264 q 131 -249 219 -264 l 131 -160 q 374 -179 290 -179 q 518 -148 471 -179 q 565 -47 565 -117 l 565 72 q 497 6 563 25 q 351 -14 432 -14 q 140 32 196 -14 q 83 190 83 78 l 83 464 q 148 635 83 583 q 360 686 213 686 q 565 607 535 686 l 565 672 l 682 672 m 557 182 l 557 486 q 522 576 557 551 q 375 600 486 600 q 239 576 271 600 q 207 486 207 553 l 207 182 q 241 91 207 113 q 378 69 275 69 q 515 92 472 69 q 557 182 557 115 m 531 957 l 415 749 l 336 749 l 400 957 l 531 957 z "},"Ĥ":{"ha":982,"x_min":117,"x_max":865,"o":"m 865 0 l 731 0 l 731 418 l 251 418 l 251 0 l 117 0 l 117 901 l 251 901 l 251 513 l 731 513 l 731 901 l 865 901 l 865 0 m 319 976 l 414 1153 l 563 1153 l 654 976 l 574 976 l 488 1097 l 400 976 l 319 976 z "},"ĥ":{"ha":796,"x_min":14,"x_max":688,"o":"m 688 0 l 563 0 l 563 485 q 558 526 563 510 q 541 560 554 543 q 497 587 528 578 q 418 596 465 596 q 268 571 303 596 q 233 485 233 546 l 233 0 l 108 0 l 108 972 l 233 972 l 233 590 q 454 686 253 686 q 638 638 588 686 q 688 493 688 590 l 688 0 m 14 1018 l 108 1194 l 257 1194 l 349 1018 l 268 1018 l 182 1139 l 94 1018 l 14 1018 z "},"Ħ":{"ha":982,"x_min":117,"x_max":865,"o":"m 865 0 l 731 0 l 731 335 l 251 335 l 251 0 l 117 0 l 117 901 l 251 901 l 251 651 l 731 651 l 731 901 l 865 901 l 865 0 m 251 429 l 731 429 l 731 557 l 251 557 l 251 429 z "},"ħ":{"ha":796,"x_min":26,"x_max":688,"o":"m 26 768 l 26 840 l 108 840 l 108 972 l 233 972 l 233 840 l 386 840 l 386 768 l 233 768 l 233 590 q 454 686 253 686 q 638 638 588 686 q 688 493 688 590 l 688 0 l 563 0 l 563 485 q 558 526 563 510 q 541 560 554 543 q 497 587 528 578 q 418 596 465 596 q 268 571 303 596 q 233 485 233 546 l 233 0 l 108 0 l 108 768 l 26 768 z "},"Ĩ":{"ha":368,"x_min":7,"x_max":361,"o":"m 251 0 l 117 0 l 117 901 l 251 901 l 251 0 m 97 1122 q 188 1099 131 1122 q 271 1075 244 1075 q 321 1090 301 1075 q 361 1135 340 1104 l 361 1039 q 271 985 329 985 q 179 1010 235 985 q 97 1035 124 1035 q 7 981 42 1035 l 7 1082 q 97 1122 40 1122 z "},"ĩ":{"ha":342,"x_min":-22,"x_max":332,"o":"m 235 0 l 110 0 l 110 672 l 235 672 l 235 0 m 68 893 q 158 869 101 893 q 242 846 215 846 q 292 860 272 846 q 332 906 311 875 l 332 810 q 242 756 300 756 q 150 781 206 756 q 68 806 94 806 q -22 751 13 806 l -22 853 q 68 893 11 893 z "},"Ī":{"ha":368,"x_min":33,"x_max":336,"o":"m 251 0 l 117 0 l 117 901 l 251 901 l 251 0 m 336 1026 l 33 1026 l 33 1108 l 336 1108 l 336 1026 z "},"ī":{"ha":342,"x_min":4,"x_max":339,"o":"m 235 0 l 110 0 l 110 672 l 235 672 l 235 0 m 339 821 l 4 821 l 4 908 l 339 908 l 339 821 z "},"Ĭ":{"ha":368,"x_min":21,"x_max":349,"o":"m 251 0 l 117 0 l 117 901 l 251 901 l 251 0 m 303 1045 q 281 1021 303 1045 q 185 997 260 997 q 67 1045 110 997 q 21 1174 24 1093 l 96 1174 q 185 1079 104 1079 q 274 1174 265 1079 l 349 1174 q 303 1045 346 1093 z "},"ĭ":{"ha":342,"x_min":8,"x_max":336,"o":"m 235 0 l 110 0 l 110 672 l 235 672 l 235 0 m 290 816 q 269 792 290 816 q 172 768 247 768 q 54 816 97 768 q 8 944 11 864 l 83 944 q 172 850 92 850 q 261 944 253 850 l 336 944 q 290 816 333 864 z "},"Į":{"ha":368,"x_min":82,"x_max":289,"o":"m 251 0 q 192 -135 192 -65 q 246 -181 192 -181 q 289 -171 257 -181 l 289 -244 q 219 -258 260 -258 q 116 -233 150 -258 q 82 -147 82 -207 q 117 0 82 -83 l 117 901 l 251 901 l 251 0 z "},"į":{"ha":342,"x_min":60,"x_max":267,"o":"m 235 0 q 169 -135 169 -62 q 224 -181 169 -181 q 267 -171 235 -181 l 267 -244 q 197 -258 238 -258 q 94 -233 128 -258 q 60 -147 60 -207 q 110 0 60 -78 l 110 672 l 235 672 l 235 0 z "},"İ":{"ha":368,"x_min":117,"x_max":251,"o":"m 251 0 l 117 0 l 117 901 l 251 901 l 251 0 m 246 990 l 121 990 l 121 1126 l 246 1126 l 246 990 z "},"ı":{"ha":342,"x_min":110,"x_max":235,"o":"m 235 0 l 110 0 l 110 672 l 235 672 l 235 0 z "},"Ĳ":{"ha":835,"x_min":117,"x_max":718,"o":"m 251 0 l 117 0 l 117 901 l 251 901 l 251 0 m 718 199 q 661 32 718 71 q 468 -7 604 -7 q 303 1 444 -7 l 303 92 q 340 87 308 92 q 400 79 371 82 q 451 76 429 76 q 557 97 531 76 q 583 193 583 117 l 583 901 l 718 901 l 718 199 z "},"ĳ":{"ha":663,"x_min":108,"x_max":554,"o":"m 233 785 l 108 785 l 108 917 l 233 917 l 233 785 m 233 0 l 108 0 l 108 672 l 233 672 l 233 0 m 554 785 l 429 785 l 429 917 l 554 917 l 554 785 m 554 -56 q 505 -220 554 -181 q 331 -260 456 -260 q 260 -258 283 -260 l 260 -181 q 285 -182 268 -182 q 397 -161 365 -182 q 429 -65 429 -140 l 429 672 l 554 672 l 554 -56 z "},"Ĵ":{"ha":560,"x_min":28,"x_max":542,"o":"m 443 901 l 443 199 q 385 28 443 69 q 193 -14 328 -14 q 28 1 79 -14 l 28 92 q 176 69 113 69 q 281 92 254 69 q 308 193 308 115 l 308 901 l 443 901 m 207 989 l 301 1165 l 450 1165 l 542 989 l 461 989 l 375 1110 l 288 989 l 207 989 z "},"ĵ":{"ha":343,"x_min":-60,"x_max":344,"o":"m 235 672 l 235 -101 q 185 -266 235 -226 q 11 -306 136 -306 q -60 -304 -36 -306 l -60 -226 q -35 -228 -51 -228 q 78 -207 46 -228 q 110 -111 110 -186 l 110 672 l 235 672 m 10 768 l 104 944 l 253 944 l 344 768 l 264 768 l 178 889 l 90 768 l 10 768 z "},"Ķ":{"ha":846,"x_min":117,"x_max":860,"o":"m 860 0 l 685 0 l 254 479 l 657 901 l 819 901 l 414 485 l 860 0 m 251 0 l 117 0 l 117 901 l 251 901 l 251 0 m 543 -56 l 428 -264 l 339 -264 l 403 -56 l 543 -56 z "},"ķ":{"ha":714,"x_min":108,"x_max":711,"o":"m 711 0 l 556 0 l 249 368 l 532 672 l 685 672 l 393 368 l 711 0 m 233 0 l 108 0 l 108 963 l 233 963 l 233 0 m 447 -56 l 332 -264 l 253 -264 l 317 -56 l 447 -56 z "},"ĸ":{"ha":806,"x_min":117,"x_max":794,"o":"m 794 0 l 619 0 l 244 347 l 592 672 l 754 672 l 404 353 l 794 0 m 242 0 l 117 0 l 117 672 l 242 672 l 242 0 z "},"Ĺ":{"ha":722,"x_min":117,"x_max":694,"o":"m 694 0 l 117 0 l 117 901 l 251 901 l 251 94 l 694 94 l 694 0 m 407 1153 l 233 976 l 131 976 l 256 1153 l 407 1153 z "},"ĺ":{"ha":342,"x_min":108,"x_max":385,"o":"m 233 0 l 108 0 l 108 972 l 233 972 l 233 0 m 385 1206 l 211 1029 l 108 1029 l 233 1206 l 385 1206 z "},"Ļ":{"ha":722,"x_min":117,"x_max":694,"o":"m 694 0 l 117 0 l 117 901 l 251 901 l 251 94 l 694 94 l 694 0 m 501 -56 l 386 -264 l 297 -264 l 361 -56 l 501 -56 z "},"ļ":{"ha":342,"x_min":58,"x_max":253,"o":"m 233 0 l 108 0 l 108 963 l 233 963 l 233 0 m 253 -56 l 138 -264 l 58 -264 l 122 -56 l 253 -56 z "},"Ľ":{"ha":722,"x_min":117,"x_max":694,"o":"m 694 0 l 117 0 l 117 901 l 251 901 l 251 94 l 694 94 l 694 0 m 540 901 l 425 693 l 336 693 l 400 901 l 540 901 z "},"ľ":{"ha":406,"x_min":108,"x_max":503,"o":"m 233 0 l 108 0 l 108 963 l 233 963 l 233 0 m 503 943 l 388 735 l 308 735 l 372 943 l 503 943 z "},"Ŀ":{"ha":722,"x_min":117,"x_max":694,"o":"m 694 0 l 117 0 l 117 901 l 251 901 l 251 94 l 694 94 l 694 0 m 458 393 l 333 393 l 333 529 l 458 529 l 458 393 z "},"ŀ":{"ha":417,"x_min":108,"x_max":442,"o":"m 233 0 l 108 0 l 108 963 l 233 963 l 233 0 m 442 514 l 317 514 l 317 650 l 442 650 l 442 514 z "},"Ł":{"ha":750,"x_min":28,"x_max":722,"o":"m 433 476 l 279 432 l 279 94 l 722 94 l 722 0 l 144 0 l 144 393 l 28 360 l 28 458 l 144 492 l 144 901 l 279 901 l 279 531 l 433 575 l 433 476 z "},"ł":{"ha":342,"x_min":0,"x_max":342,"o":"m 342 588 l 233 543 l 233 0 l 108 0 l 108 493 l 0 449 l 0 547 l 108 592 l 108 972 l 233 972 l 233 642 l 342 686 l 342 588 z "},"Ń":{"ha":1004,"x_min":117,"x_max":888,"o":"m 888 0 l 725 0 l 235 757 l 235 0 l 117 0 l 117 901 l 279 901 l 769 157 l 769 901 l 888 901 l 888 0 m 665 1153 l 492 976 l 389 976 l 514 1153 l 665 1153 z "},"ń":{"ha":796,"x_min":108,"x_max":688,"o":"m 688 0 l 563 0 l 563 486 q 558 528 563 511 q 541 562 554 544 q 497 588 528 579 q 418 597 465 597 q 271 574 308 597 q 233 486 233 550 l 233 0 l 108 0 l 108 672 l 233 672 l 233 590 q 454 686 253 686 q 638 638 588 686 q 688 493 688 590 l 688 0 m 582 944 l 408 768 l 306 768 l 431 944 l 582 944 z "},"Ņ":{"ha":1004,"x_min":117,"x_max":888,"o":"m 888 0 l 725 0 l 235 757 l 235 0 l 117 0 l 117 901 l 279 901 l 769 157 l 769 901 l 888 901 l 888 0 m 603 -56 l 488 -264 l 399 -264 l 463 -56 l 603 -56 z "},"ņ":{"ha":796,"x_min":108,"x_max":688,"o":"m 688 0 l 563 0 l 563 486 q 558 528 563 511 q 541 562 554 544 q 497 588 528 579 q 418 597 465 597 q 271 574 308 597 q 233 486 233 550 l 233 0 l 108 0 l 108 672 l 233 672 l 233 590 q 454 686 253 686 q 638 638 588 686 q 688 493 688 590 l 688 0 m 478 -56 l 363 -264 l 283 -264 l 347 -56 l 478 -56 z "},"Ň":{"ha":1004,"x_min":117,"x_max":888,"o":"m 888 0 l 725 0 l 235 757 l 235 0 l 117 0 l 117 901 l 279 901 l 769 157 l 769 901 l 888 901 l 888 0 m 453 976 l 358 1153 l 439 1153 l 526 1032 l 613 1153 l 693 1153 l 601 976 l 453 976 z "},"ň":{"ha":796,"x_min":108,"x_max":688,"o":"m 688 0 l 563 0 l 563 486 q 558 528 563 511 q 541 562 554 544 q 497 588 528 579 q 418 597 465 597 q 271 574 308 597 q 233 486 233 550 l 233 0 l 108 0 l 108 672 l 233 672 l 233 590 q 454 686 253 686 q 638 638 588 686 q 688 493 688 590 l 688 0 m 303 768 l 208 944 l 289 944 l 376 824 l 463 944 l 543 944 l 451 768 l 303 768 z "},"ŉ":{"ha":796,"x_min":108,"x_max":688,"o":"m 688 0 l 563 0 l 563 486 q 558 528 563 511 q 541 562 554 544 q 497 588 528 579 q 418 597 465 597 q 271 574 308 597 q 233 486 233 550 l 233 0 l 108 0 l 108 672 l 233 672 l 233 590 q 454 686 253 686 q 638 638 588 686 q 688 493 688 590 l 688 0 m 307 943 l 203 749 l 122 749 l 172 943 l 307 943 z "},"Ŋ":{"ha":1004,"x_min":117,"x_max":888,"o":"m 764 -50 l 235 757 l 235 0 l 117 0 l 117 901 l 279 901 l 769 157 l 769 901 l 888 901 l 888 -57 q 843 -212 888 -160 q 668 -264 799 -264 l 632 -264 l 632 -175 q 738 -140 711 -175 q 764 -50 764 -104 z "},"ŋ":{"ha":796,"x_min":108,"x_max":688,"o":"m 431 -306 l 431 -217 q 537 -187 511 -217 q 563 -106 563 -157 l 563 486 q 558 528 563 511 q 541 562 554 544 q 497 588 528 579 q 418 597 465 597 q 271 574 308 597 q 233 486 233 550 l 233 0 l 108 0 l 108 672 l 233 672 l 233 590 q 454 686 253 686 q 638 638 588 686 q 688 493 688 590 l 688 -112 q 643 -259 688 -212 q 467 -306 599 -306 l 431 -306 z "},"Ō":{"ha":943,"x_min":92,"x_max":851,"o":"m 851 658 l 851 231 q 816 106 851 157 q 719 30 781 54 q 599 -4 658 6 q 469 -14 539 -14 q 92 231 92 -14 l 92 657 q 469 915 92 915 q 851 658 851 915 m 721 232 l 721 661 q 471 828 721 828 q 378 822 418 828 q 300 798 338 815 q 242 747 263 781 q 221 661 221 713 l 221 232 q 472 76 221 76 q 721 232 721 76 m 613 1026 l 310 1026 l 310 1108 l 613 1108 l 613 1026 z "},"ō":{"ha":789,"x_min":83,"x_max":703,"o":"m 703 446 l 703 213 q 688 107 703 150 q 649 40 672 64 q 581 4 625 17 q 498 -11 538 -8 q 393 -14 458 -14 q 263 -8 310 -14 q 170 19 217 -3 q 103 88 124 40 q 83 213 83 135 l 83 446 q 99 558 83 513 q 138 629 115 604 q 206 667 161 654 q 288 683 250 681 q 393 686 326 686 q 498 683 460 686 q 581 667 536 681 q 648 629 625 654 q 687 558 671 604 q 703 446 703 513 m 575 194 l 575 467 q 538 582 575 560 q 393 604 500 604 q 249 582 286 604 q 211 467 211 560 l 211 194 q 221 124 211 150 q 257 85 231 97 q 311 71 283 74 q 393 68 339 68 q 475 71 447 68 q 529 85 503 74 q 565 124 556 97 q 575 194 575 150 m 563 818 l 228 818 l 228 906 l 563 906 l 563 818 z "},"Ŏ":{"ha":943,"x_min":92,"x_max":851,"o":"m 851 658 l 851 231 q 816 106 851 157 q 719 30 781 54 q 599 -4 658 6 q 469 -14 539 -14 q 92 231 92 -14 l 92 657 q 469 915 92 915 q 851 658 851 915 m 721 232 l 721 661 q 471 828 721 828 q 378 822 418 828 q 300 798 338 815 q 242 747 263 781 q 221 661 221 713 l 221 232 q 472 76 221 76 q 721 232 721 76 m 589 1045 q 567 1021 589 1045 q 471 997 546 997 q 353 1045 396 997 q 307 1174 310 1093 l 382 1174 q 471 1079 390 1079 q 560 1174 551 1079 l 635 1174 q 589 1045 632 1093 z "},"ŏ":{"ha":789,"x_min":83,"x_max":703,"o":"m 703 446 l 703 213 q 688 107 703 150 q 649 40 672 64 q 581 4 625 17 q 498 -11 538 -8 q 393 -14 458 -14 q 263 -8 310 -14 q 170 19 217 -3 q 103 88 124 40 q 83 213 83 135 l 83 446 q 99 558 83 513 q 138 629 115 604 q 206 667 161 654 q 288 683 250 681 q 393 686 326 686 q 498 683 460 686 q 581 667 536 681 q 648 629 625 654 q 687 558 671 604 q 703 446 703 513 m 575 194 l 575 467 q 538 582 575 560 q 393 604 500 604 q 249 582 286 604 q 211 467 211 560 l 211 194 q 221 124 211 150 q 257 85 231 97 q 311 71 283 74 q 393 68 339 68 q 475 71 447 68 q 529 85 503 74 q 565 124 556 97 q 575 194 575 150 m 506 816 q 484 792 506 816 q 388 768 463 768 q 269 816 313 768 q 224 944 226 864 l 299 944 q 388 850 307 850 q 476 944 468 850 l 551 944 q 506 816 549 864 z "},"Ő":{"ha":943,"x_min":92,"x_max":851,"o":"m 851 658 l 851 231 q 816 106 851 157 q 719 30 781 54 q 599 -4 658 6 q 469 -14 539 -14 q 92 231 92 -14 l 92 657 q 469 915 92 915 q 851 658 851 915 m 721 232 l 721 661 q 471 828 721 828 q 378 822 418 828 q 300 798 338 815 q 242 747 263 781 q 221 661 221 713 l 221 232 q 472 76 221 76 q 721 232 721 76 m 394 976 l 289 976 l 386 1154 l 492 1154 l 394 976 m 571 976 l 465 976 l 563 1154 l 668 1154 l 571 976 z "},"ő":{"ha":789,"x_min":83,"x_max":703,"o":"m 703 446 l 703 213 q 688 107 703 150 q 649 40 672 64 q 581 4 625 17 q 498 -11 538 -8 q 393 -14 458 -14 q 263 -8 310 -14 q 170 19 217 -3 q 103 88 124 40 q 83 213 83 135 l 83 446 q 99 558 83 513 q 138 629 115 604 q 206 667 161 654 q 288 683 250 681 q 393 686 326 686 q 498 683 460 686 q 581 667 536 681 q 648 629 625 654 q 687 558 671 604 q 703 446 703 513 m 575 194 l 575 467 q 538 582 575 560 q 393 604 500 604 q 249 582 286 604 q 211 467 211 560 l 211 194 q 221 124 211 150 q 257 85 231 97 q 311 71 283 74 q 393 68 339 68 q 475 71 447 68 q 529 85 503 74 q 565 124 556 97 q 575 194 575 150 m 342 767 l 236 767 l 333 944 l 439 944 l 342 767 m 518 767 l 413 767 l 510 944 l 615 944 l 518 767 z "},"Œ":{"ha":1367,"x_min":117,"x_max":1297,"o":"m 678 92 l 678 808 l 497 808 q 404 802 444 808 q 326 780 364 796 q 267 730 288 764 q 246 644 246 696 l 246 247 q 503 92 246 92 l 678 92 m 1297 0 l 494 0 q 117 244 117 0 l 117 643 q 494 901 117 901 l 1283 901 l 1283 807 l 813 807 l 813 513 l 1238 513 l 1238 418 l 813 418 l 813 94 l 1297 94 l 1297 0 z "},"œ":{"ha":1236,"x_min":83,"x_max":1154,"o":"m 575 207 l 575 467 q 538 582 575 560 q 393 604 500 604 q 249 582 286 604 q 211 467 211 560 l 211 194 q 221 124 211 150 q 257 85 231 97 q 311 71 283 74 q 393 68 339 68 q 534 94 493 68 q 575 207 575 121 m 1154 308 l 703 308 l 703 207 q 753 106 703 136 q 907 76 804 76 q 1128 110 997 76 l 1128 14 q 868 -14 997 -14 q 639 58 739 -14 q 393 -14 565 -14 q 263 -8 310 -14 q 170 19 217 -3 q 103 88 124 40 q 83 213 83 135 l 83 446 q 99 558 83 513 q 138 629 115 604 q 206 667 161 654 q 288 683 250 681 q 393 686 326 686 q 644 617 583 686 q 874 686 699 686 q 1087 635 1019 686 q 1154 457 1154 585 l 1154 308 m 1029 390 l 1029 496 q 992 580 1029 557 q 869 603 954 603 q 744 581 785 603 q 703 496 703 560 l 703 390 l 1029 390 z "},"Ŕ":{"ha":850,"x_min":117,"x_max":806,"o":"m 806 0 l 640 0 l 382 385 l 251 385 l 251 0 l 117 0 l 117 901 l 433 901 q 676 867 603 901 q 750 725 750 833 l 750 569 q 682 444 750 486 q 517 401 614 401 l 806 0 m 615 586 l 615 711 q 440 813 615 813 l 251 813 l 251 474 l 428 474 q 569 497 524 474 q 615 586 615 521 m 576 1153 l 403 976 l 300 976 l 425 1153 l 576 1153 z "},"ŕ":{"ha":488,"x_min":108,"x_max":471,"o":"m 471 579 l 401 579 q 274 557 315 579 q 233 474 233 535 l 233 0 l 108 0 l 108 672 l 226 672 l 226 563 q 287 649 226 611 q 410 686 347 686 l 471 686 l 471 579 m 438 944 l 264 768 l 161 768 l 286 944 l 438 944 z "},"Ŗ":{"ha":850,"x_min":117,"x_max":806,"o":"m 806 0 l 640 0 l 382 385 l 251 385 l 251 0 l 117 0 l 117 901 l 433 901 q 676 867 603 901 q 750 725 750 833 l 750 569 q 682 444 750 486 q 517 401 614 401 l 806 0 m 615 586 l 615 711 q 440 813 615 813 l 251 813 l 251 474 l 428 474 q 569 497 524 474 q 615 586 615 521 m 540 -56 l 425 -264 l 336 -264 l 400 -56 l 540 -56 z "},"ŗ":{"ha":488,"x_min":79,"x_max":471,"o":"m 471 574 l 401 574 q 273 554 313 574 q 233 474 233 535 l 233 0 l 108 0 l 108 672 l 226 672 l 226 582 q 292 657 226 629 q 426 685 357 685 l 471 685 l 471 574 m 274 -56 l 158 -264 l 79 -264 l 143 -56 l 274 -56 z "},"Ř":{"ha":850,"x_min":117,"x_max":806,"o":"m 806 0 l 640 0 l 382 385 l 251 385 l 251 0 l 117 0 l 117 901 l 433 901 q 676 867 603 901 q 750 725 750 833 l 750 569 q 682 444 750 486 q 517 401 614 401 l 806 0 m 615 586 l 615 711 q 440 813 615 813 l 251 813 l 251 474 l 428 474 q 569 497 524 474 q 615 586 615 521 m 333 976 l 239 1153 l 319 1153 l 407 1032 l 493 1153 l 574 1153 l 482 976 l 333 976 z "},"ř":{"ha":488,"x_min":88,"x_max":471,"o":"m 471 579 l 401 579 q 274 557 315 579 q 233 474 233 535 l 233 0 l 108 0 l 108 672 l 226 672 l 226 563 q 287 649 226 611 q 410 686 347 686 l 471 686 l 471 579 m 182 768 l 88 944 l 168 944 l 256 824 l 342 944 l 422 944 l 331 768 l 182 768 z "},"Ś":{"ha":790,"x_min":83,"x_max":714,"o":"m 714 306 l 714 240 q 632 41 714 96 q 376 -14 550 -14 q 101 8 265 -14 l 101 121 q 385 86 265 86 q 531 108 481 86 q 582 194 582 129 l 582 311 q 549 392 582 368 q 432 417 517 417 l 326 417 q 137 472 190 417 q 83 633 83 526 l 83 706 q 159 864 83 813 q 438 915 235 915 q 669 900 535 915 l 669 799 q 428 822 515 822 q 256 797 299 822 q 214 710 214 771 l 214 607 q 247 538 214 560 q 365 517 281 517 l 474 517 q 664 466 614 517 q 714 306 714 415 m 599 1153 l 425 976 l 322 976 l 447 1153 l 599 1153 z "},"ś":{"ha":671,"x_min":69,"x_max":607,"o":"m 607 236 l 607 178 q 531 28 607 69 q 314 -14 456 -14 q 83 3 206 -14 l 83 99 q 317 72 250 72 q 442 88 400 72 q 483 154 483 104 l 483 222 q 454 283 483 265 q 360 301 425 301 l 283 301 q 124 345 178 301 q 69 465 69 389 l 69 528 q 369 686 69 686 q 574 675 403 686 l 574 585 q 364 604 454 604 q 228 585 264 604 q 193 519 193 565 l 193 463 q 317 394 193 394 l 394 394 q 607 236 607 394 m 518 944 l 344 768 l 242 768 l 367 944 l 518 944 z "},"Ŝ":{"ha":790,"x_min":83,"x_max":714,"o":"m 714 306 l 714 240 q 632 41 714 96 q 376 -14 550 -14 q 101 8 265 -14 l 101 121 q 385 86 265 86 q 531 108 481 86 q 582 194 582 129 l 582 311 q 549 392 582 368 q 432 417 517 417 l 326 417 q 137 472 190 417 q 83 633 83 526 l 83 706 q 159 864 83 813 q 438 915 235 915 q 669 900 535 915 l 669 799 q 428 822 515 822 q 256 797 299 822 q 214 710 214 771 l 214 607 q 247 538 214 560 q 365 517 281 517 l 474 517 q 664 466 614 517 q 714 306 714 415 m 240 976 l 335 1153 l 483 1153 l 575 976 l 494 976 l 408 1097 l 321 976 l 240 976 z "},"ŝ":{"ha":671,"x_min":69,"x_max":607,"o":"m 607 236 l 607 178 q 531 28 607 69 q 314 -14 456 -14 q 83 3 206 -14 l 83 99 q 317 72 250 72 q 442 88 400 72 q 483 154 483 104 l 483 222 q 454 283 483 265 q 360 301 425 301 l 283 301 q 124 345 178 301 q 69 465 69 389 l 69 528 q 369 686 69 686 q 574 675 403 686 l 574 585 q 364 604 454 604 q 228 585 264 604 q 193 519 193 565 l 193 463 q 317 394 193 394 l 394 394 q 607 236 607 394 m 163 768 l 257 944 l 406 944 l 497 768 l 417 768 l 331 889 l 243 768 l 163 768 z "},"Ş":{"ha":790,"x_min":83,"x_max":714,"o":"m 714 306 l 714 240 q 644 51 714 107 q 429 -12 575 -6 l 400 -72 q 490 -101 451 -74 q 529 -181 529 -128 q 482 -274 529 -242 q 372 -306 435 -306 q 260 -279 304 -306 l 289 -217 q 369 -240 331 -240 q 435 -185 435 -240 q 404 -143 435 -158 q 326 -128 374 -128 l 281 -128 q 342 -14 314 -71 q 101 8 243 -11 l 101 121 q 385 86 265 86 q 531 108 481 86 q 582 194 582 129 l 582 311 q 549 392 582 368 q 432 417 517 417 l 326 417 q 137 472 190 417 q 83 633 83 526 l 83 706 q 159 864 83 813 q 438 915 235 915 q 669 900 535 915 l 669 799 q 428 822 515 822 q 256 797 299 822 q 214 710 214 771 l 214 607 q 247 538 214 560 q 365 517 281 517 l 474 517 q 664 466 614 517 q 714 306 714 415 z "},"ş":{"ha":671,"x_min":69,"x_max":607,"o":"m 607 236 l 607 178 q 546 38 607 81 q 369 -11 485 -4 l 340 -72 q 431 -101 392 -74 q 469 -181 469 -128 q 422 -274 469 -242 q 313 -306 375 -306 q 200 -279 244 -306 l 229 -217 q 310 -240 271 -240 q 375 -185 375 -240 q 344 -143 375 -158 q 267 -128 314 -128 l 221 -128 q 282 -12 256 -68 q 83 3 179 -10 l 83 99 q 317 72 250 72 q 442 88 400 72 q 483 154 483 104 l 483 222 q 454 283 483 265 q 360 301 425 301 l 283 301 q 124 345 178 301 q 69 465 69 389 l 69 528 q 369 686 69 686 q 574 675 403 686 l 574 585 q 364 604 454 604 q 228 585 264 604 q 193 519 193 565 l 193 463 q 317 394 193 394 l 394 394 q 607 236 607 394 z "},"Š":{"ha":790,"x_min":83,"x_max":714,"o":"m 714 306 l 714 240 q 632 41 714 96 q 376 -14 550 -14 q 101 8 265 -14 l 101 121 q 385 86 265 86 q 531 108 481 86 q 582 194 582 129 l 582 311 q 549 392 582 368 q 432 417 517 417 l 326 417 q 137 472 190 417 q 83 633 83 526 l 83 706 q 159 864 83 813 q 438 915 235 915 q 669 900 535 915 l 669 799 q 428 822 515 822 q 256 797 299 822 q 214 710 214 771 l 214 607 q 247 538 214 560 q 365 517 281 517 l 474 517 q 664 466 614 517 q 714 306 714 415 m 303 976 l 208 1153 l 289 1153 l 376 1032 l 463 1153 l 543 1153 l 451 976 l 303 976 z "},"š":{"ha":671,"x_min":69,"x_max":607,"o":"m 607 236 l 607 178 q 531 28 607 69 q 314 -14 456 -14 q 83 3 206 -14 l 83 99 q 317 72 250 72 q 442 88 400 72 q 483 154 483 104 l 483 222 q 454 283 483 265 q 360 301 425 301 l 283 301 q 124 345 178 301 q 69 465 69 389 l 69 528 q 369 686 69 686 q 574 675 403 686 l 574 585 q 364 604 454 604 q 228 585 264 604 q 193 519 193 565 l 193 463 q 317 394 193 394 l 394 394 q 607 236 607 394 m 265 768 l 171 944 l 251 944 l 339 824 l 425 944 l 506 944 l 414 768 l 265 768 z "},"Ţ":{"ha":813,"x_min":33,"x_max":779,"o":"m 779 807 l 475 807 l 475 0 l 339 0 l 339 807 l 33 807 l 33 901 l 779 901 l 779 807 m 486 -56 l 371 -264 l 282 -264 l 346 -56 l 486 -56 z "},"ţ":{"ha":558,"x_min":14,"x_max":531,"o":"m 531 -3 q 390 -14 464 -14 q 217 26 271 -14 q 164 196 164 65 l 164 593 l 14 593 l 14 672 l 164 672 l 164 881 l 290 881 l 290 672 l 531 672 l 531 593 l 290 593 l 290 189 q 318 92 290 117 q 431 68 346 68 q 531 79 453 68 l 531 -3 m 368 -56 l 253 -264 l 174 -264 l 238 -56 l 368 -56 z "},"Ť":{"ha":813,"x_min":33,"x_max":779,"o":"m 779 807 l 475 807 l 475 0 l 339 0 l 339 807 l 33 807 l 33 901 l 779 901 l 779 807 m 335 976 l 240 1153 l 321 1153 l 408 1032 l 494 1153 l 575 1153 l 483 976 l 335 976 z "},"ť":{"ha":558,"x_min":14,"x_max":575,"o":"m 531 -3 q 390 -14 464 -14 q 217 26 271 -14 q 164 196 164 65 l 164 593 l 14 593 l 14 672 l 164 672 l 164 881 l 290 881 l 290 672 l 531 672 l 531 593 l 290 593 l 290 189 q 318 92 290 117 q 431 68 346 68 q 531 79 453 68 l 531 -3 m 575 976 l 460 768 l 381 768 l 444 976 l 575 976 z "},"Ŧ":{"ha":813,"x_min":33,"x_max":779,"o":"m 779 807 l 475 807 l 475 513 l 614 513 l 614 418 l 475 418 l 475 0 l 339 0 l 339 418 l 200 418 l 200 513 l 339 513 l 339 807 l 33 807 l 33 901 l 779 901 l 779 807 z "},"ŧ":{"ha":558,"x_min":14,"x_max":531,"o":"m 15 364 l 15 443 l 164 443 l 164 593 l 14 593 l 14 672 l 164 672 l 164 881 l 290 881 l 290 672 l 531 672 l 531 593 l 290 593 l 290 443 l 531 443 l 531 364 l 290 364 l 290 189 q 318 95 290 118 q 431 72 346 72 q 531 79 482 72 l 531 -3 q 390 -10 472 -10 q 294 -3 331 -10 q 226 23 258 3 q 178 85 193 43 q 164 196 164 128 l 164 364 l 15 364 z "},"Ũ":{"ha":939,"x_min":117,"x_max":821,"o":"m 821 901 l 821 231 q 468 -14 821 -14 q 342 -5 397 -14 q 232 28 286 4 q 147 104 178 53 q 117 231 117 156 l 117 901 l 246 901 l 246 232 q 306 110 246 143 q 471 76 365 76 q 634 110 576 76 q 692 232 692 143 l 692 901 l 821 901 m 382 1122 q 472 1099 415 1122 q 556 1075 529 1075 q 606 1090 586 1075 q 646 1135 625 1104 l 646 1039 q 556 985 614 985 q 464 1010 519 985 q 382 1035 408 1035 q 292 981 326 1035 l 292 1082 q 382 1122 325 1122 z "},"ũ":{"ha":796,"x_min":108,"x_max":688,"o":"m 688 0 l 563 0 l 563 82 q 342 -14 543 -14 q 158 34 208 -14 q 108 179 108 82 l 108 672 l 233 672 l 233 186 q 238 144 233 161 q 255 110 242 128 q 299 84 268 93 q 378 75 331 75 q 522 94 482 75 q 563 165 563 114 l 563 672 l 688 672 l 688 0 m 292 893 q 382 869 325 893 q 465 846 439 846 q 515 860 496 846 q 556 906 535 875 l 556 810 q 465 756 524 756 q 374 781 429 756 q 292 806 318 806 q 201 751 236 806 l 201 853 q 292 893 235 893 z "},"Ū":{"ha":939,"x_min":117,"x_max":821,"o":"m 821 901 l 821 231 q 468 -14 821 -14 q 342 -5 397 -14 q 232 28 286 4 q 147 104 178 53 q 117 231 117 156 l 117 901 l 246 901 l 246 232 q 306 110 246 143 q 471 76 365 76 q 634 110 576 76 q 692 232 692 143 l 692 901 l 821 901 m 615 1026 l 313 1026 l 313 1108 l 615 1108 l 615 1026 z "},"ū":{"ha":796,"x_min":108,"x_max":688,"o":"m 688 0 l 563 0 l 563 82 q 342 -14 543 -14 q 158 34 208 -14 q 108 179 108 82 l 108 672 l 233 672 l 233 186 q 238 144 233 161 q 255 110 242 128 q 299 84 268 93 q 378 75 331 75 q 522 94 482 75 q 563 165 563 114 l 563 672 l 688 672 l 688 0 m 565 817 l 231 817 l 231 904 l 565 904 l 565 817 z "},"Ŭ":{"ha":939,"x_min":117,"x_max":821,"o":"m 821 901 l 821 231 q 468 -14 821 -14 q 342 -5 397 -14 q 232 28 286 4 q 147 104 178 53 q 117 231 117 156 l 117 901 l 246 901 l 246 232 q 306 110 246 143 q 471 76 365 76 q 634 110 576 76 q 692 232 692 143 l 692 901 l 821 901 m 588 1045 q 566 1021 588 1045 q 469 997 544 997 q 351 1045 394 997 q 306 1174 308 1093 l 381 1174 q 469 1079 389 1079 q 558 1174 550 1079 l 633 1174 q 588 1045 631 1093 z "},"ŭ":{"ha":796,"x_min":108,"x_max":688,"o":"m 688 0 l 563 0 l 563 82 q 342 -14 543 -14 q 158 34 208 -14 q 108 179 108 82 l 108 672 l 233 672 l 233 186 q 238 144 233 161 q 255 110 242 128 q 299 84 268 93 q 378 75 331 75 q 522 94 482 75 q 563 165 563 114 l 563 672 l 688 672 l 688 0 m 508 816 q 487 792 508 816 q 390 768 465 768 q 272 816 315 768 q 226 944 229 864 l 301 944 q 390 850 310 850 q 479 944 471 850 l 554 944 q 508 816 551 864 z "},"Ů":{"ha":996,"x_min":117,"x_max":821,"o":"m 821 901 l 821 231 q 468 -14 821 -14 q 342 -5 397 -14 q 232 28 286 4 q 147 104 178 53 q 117 231 117 156 l 117 901 l 246 901 l 246 232 q 306 110 246 143 q 471 76 365 76 q 634 110 576 76 q 692 232 692 143 l 692 901 l 821 901 m 664 1129 l 664 1113 q 652 1037 664 1065 q 612 996 640 1008 q 556 980 583 983 q 478 976 528 976 q 401 980 428 976 q 345 996 374 983 q 305 1037 317 1008 q 293 1113 293 1065 l 293 1129 q 305 1210 293 1179 q 345 1253 317 1240 q 401 1270 374 1267 q 478 1274 428 1274 q 540 1272 517 1274 q 590 1262 564 1269 q 631 1240 617 1254 q 654 1197 644 1225 q 664 1129 664 1169 m 576 1103 l 576 1140 q 556 1203 576 1190 q 478 1215 535 1215 q 401 1203 421 1215 q 381 1140 381 1190 l 381 1103 q 401 1046 381 1057 q 478 1035 421 1035 q 556 1046 535 1035 q 576 1103 576 1057 z "},"ů":{"ha":796,"x_min":108,"x_max":688,"o":"m 688 0 l 563 0 l 563 82 q 342 -14 543 -14 q 158 34 208 -14 q 108 179 108 82 l 108 672 l 233 672 l 233 186 q 238 144 233 161 q 255 110 242 128 q 299 84 268 93 q 378 75 331 75 q 522 94 482 75 q 563 165 563 114 l 563 672 l 688 672 l 688 0 m 581 921 l 581 904 q 569 828 581 857 q 528 788 557 800 q 472 772 500 775 q 394 768 444 768 q 317 772 344 768 q 262 788 290 775 q 222 828 233 800 q 210 904 210 857 l 210 921 q 222 1001 210 971 q 262 1045 233 1032 q 317 1062 290 1058 q 394 1065 344 1065 q 457 1063 433 1065 q 507 1053 481 1061 q 547 1031 533 1046 q 571 989 561 1017 q 581 921 581 961 m 493 894 l 493 932 q 472 994 493 982 q 394 1007 451 1007 q 317 994 338 1007 q 297 932 297 982 l 297 894 q 317 838 297 849 q 394 826 338 826 q 472 838 451 826 q 493 894 493 849 z "},"Ű":{"ha":939,"x_min":117,"x_max":821,"o":"m 821 901 l 821 231 q 468 -14 821 -14 q 342 -5 397 -14 q 232 28 286 4 q 147 104 178 53 q 117 231 117 156 l 117 901 l 246 901 l 246 232 q 306 110 246 143 q 471 76 365 76 q 634 110 576 76 q 692 232 692 143 l 692 901 l 821 901 m 396 976 l 290 976 l 388 1154 l 493 1154 l 396 976 m 572 976 l 467 976 l 564 1154 l 669 1154 l 572 976 z "},"ű":{"ha":796,"x_min":108,"x_max":688,"o":"m 688 0 l 563 0 l 563 82 q 342 -14 543 -14 q 158 34 208 -14 q 108 179 108 82 l 108 672 l 233 672 l 233 186 q 238 144 233 161 q 255 110 242 128 q 299 84 268 93 q 378 75 331 75 q 522 94 482 75 q 563 165 563 114 l 563 672 l 688 672 l 688 0 m 325 767 l 219 767 l 317 944 l 422 944 l 325 767 m 501 767 l 396 767 l 493 944 l 599 944 l 501 767 z "},"Ų":{"ha":939,"x_min":117,"x_max":821,"o":"m 526 -258 q 424 -233 458 -258 q 389 -147 389 -207 q 431 -12 389 -83 q 117 231 117 -1 l 117 901 l 246 901 l 246 232 q 306 110 246 143 q 471 76 365 76 q 634 110 576 76 q 692 232 692 143 l 692 901 l 821 901 l 821 231 q 535 -11 821 11 q 499 -135 499 -74 q 553 -181 499 -181 q 596 -171 564 -181 l 596 -244 q 526 -258 567 -258 z "},"ų":{"ha":796,"x_min":108,"x_max":719,"o":"m 688 0 q 642 -63 661 -25 q 622 -135 622 -101 q 676 -181 622 -181 q 719 -171 688 -181 l 719 -244 q 650 -258 690 -258 q 547 -233 581 -258 q 513 -147 513 -207 q 563 0 513 -78 l 563 82 q 342 -14 543 -14 q 158 34 208 -14 q 108 179 108 82 l 108 672 l 233 672 l 233 186 q 238 144 233 161 q 255 110 242 128 q 299 84 268 93 q 378 75 331 75 q 522 94 482 75 q 563 165 563 114 l 563 672 l 688 672 l 688 0 z "},"Ŵ":{"ha":1344,"x_min":11,"x_max":1333,"o":"m 1333 901 l 1043 0 l 886 0 l 671 750 l 450 0 l 293 0 l 11 901 l 154 901 l 378 128 l 381 128 l 604 901 l 747 901 l 971 128 l 974 128 l 1197 901 l 1333 901 m 507 976 l 601 1153 l 750 1153 l 842 976 l 761 976 l 675 1097 l 588 976 l 507 976 z "},"ŵ":{"ha":1100,"x_min":17,"x_max":1083,"o":"m 1083 672 l 863 0 l 714 0 l 551 543 l 392 0 l 243 0 l 17 672 l 154 672 l 318 119 l 326 119 l 485 672 l 625 672 l 789 119 l 797 119 l 956 672 l 1083 672 m 385 768 l 479 944 l 628 944 l 719 768 l 639 768 l 553 889 l 465 768 l 385 768 z "},"Ŷ":{"ha":811,"x_min":11,"x_max":800,"o":"m 800 901 l 472 368 l 472 0 l 338 0 l 338 364 l 11 901 l 165 901 l 406 478 l 646 901 l 800 901 m 239 976 l 333 1153 l 482 1153 l 574 976 l 493 976 l 407 1097 l 319 976 l 239 976 z "},"ŷ":{"ha":639,"x_min":8,"x_max":631,"o":"m 631 672 l 293 -289 l 163 -289 l 268 -10 l 8 672 l 144 672 l 332 124 l 335 124 l 504 672 l 631 672 m 156 768 l 250 944 l 399 944 l 490 768 l 410 768 l 324 889 l 236 768 l 156 768 z "},"Ÿ":{"ha":811,"x_min":11,"x_max":800,"o":"m 800 901 l 472 368 l 472 0 l 338 0 l 338 364 l 11 901 l 165 901 l 406 478 l 646 901 l 800 901 m 347 993 l 222 993 l 222 1124 l 347 1124 l 347 993 m 583 993 l 458 993 l 458 1124 l 583 1124 l 583 993 z "},"Ź":{"ha":806,"x_min":56,"x_max":750,"o":"m 750 0 l 56 0 l 56 94 l 586 807 l 69 807 l 69 901 l 742 901 l 742 807 l 211 94 l 750 94 l 750 0 m 572 1153 l 399 976 l 296 976 l 421 1153 l 572 1153 z "},"ź":{"ha":631,"x_min":56,"x_max":583,"o":"m 583 0 l 56 0 l 56 85 l 433 588 l 69 588 l 69 672 l 575 672 l 575 588 l 197 85 l 583 85 l 583 0 m 489 944 l 315 768 l 213 768 l 338 944 l 489 944 z "},"Ż":{"ha":806,"x_min":56,"x_max":750,"o":"m 750 0 l 56 0 l 56 94 l 586 807 l 69 807 l 69 901 l 742 901 l 742 807 l 211 94 l 750 94 l 750 0 m 454 1017 l 329 1017 l 329 1153 l 454 1153 l 454 1017 z "},"ż":{"ha":631,"x_min":56,"x_max":583,"o":"m 583 0 l 56 0 l 56 85 l 433 588 l 69 588 l 69 672 l 575 672 l 575 588 l 197 85 l 583 85 l 583 0 m 378 789 l 253 789 l 253 925 l 378 925 l 378 789 z "},"Ž":{"ha":806,"x_min":56,"x_max":750,"o":"m 750 0 l 56 0 l 56 94 l 586 807 l 69 807 l 69 901 l 742 901 l 742 807 l 211 94 l 750 94 l 750 0 m 317 976 l 222 1153 l 303 1153 l 390 1032 l 476 1153 l 557 1153 l 465 976 l 317 976 z "},"ž":{"ha":631,"x_min":56,"x_max":583,"o":"m 583 0 l 56 0 l 56 85 l 433 588 l 69 588 l 69 672 l 575 672 l 575 588 l 197 85 l 583 85 l 583 0 m 233 768 l 139 944 l 219 944 l 307 824 l 393 944 l 474 944 l 382 768 l 233 768 z "},"ſ":{"ha":414,"x_min":14,"x_max":531,"o":"m 293 789 l 293 0 l 168 0 l 168 590 l 14 590 l 14 672 l 168 672 l 168 781 q 219 942 168 897 q 390 986 271 986 q 531 979 472 986 l 531 899 q 436 906 482 906 q 322 883 350 906 q 293 789 293 860 z "},"ƒ":{"ha":806,"x_min":96,"x_max":696,"o":"m 458 422 l 458 -56 q 397 -216 458 -171 q 211 -261 335 -261 q 96 -254 154 -261 l 96 -174 q 207 -181 144 -181 q 304 -156 275 -181 q 333 -64 333 -132 l 333 422 l 161 422 l 161 508 l 333 508 l 333 710 q 395 870 333 825 q 581 915 457 915 q 696 908 638 915 l 696 828 q 585 835 647 835 q 488 810 517 835 q 458 718 458 786 l 458 508 l 657 508 l 657 422 l 458 422 z "},"Ș":{"ha":790,"x_min":83,"x_max":714,"o":"m 714 306 l 714 240 q 632 41 714 96 q 376 -14 550 -14 q 101 8 265 -14 l 101 121 q 385 86 265 86 q 531 108 481 86 q 582 194 582 129 l 582 311 q 549 392 582 368 q 432 417 517 417 l 326 417 q 137 472 190 417 q 83 633 83 526 l 83 706 q 159 864 83 813 q 438 915 235 915 q 669 900 535 915 l 669 799 q 428 822 515 822 q 256 797 299 822 q 214 710 214 771 l 214 607 q 247 538 214 560 q 365 517 281 517 l 474 517 q 664 466 614 517 q 714 306 714 415 m 494 -56 l 379 -264 l 290 -264 l 354 -56 l 494 -56 z "},"ș":{"ha":671,"x_min":69,"x_max":607,"o":"m 607 236 l 607 178 q 531 28 607 69 q 314 -14 456 -14 q 83 3 206 -14 l 83 99 q 317 72 250 72 q 442 88 400 72 q 483 154 483 104 l 483 222 q 454 283 483 265 q 360 301 425 301 l 283 301 q 124 345 178 301 q 69 465 69 389 l 69 528 q 369 686 69 686 q 574 675 403 686 l 574 585 q 364 604 454 604 q 228 585 264 604 q 193 519 193 565 l 193 463 q 317 394 193 394 l 394 394 q 607 236 607 394 m 443 -56 l 328 -264 l 249 -264 l 313 -56 l 443 -56 z "},"Ț":{"ha":813,"x_min":33,"x_max":779,"o":"m 779 807 l 475 807 l 475 0 l 339 0 l 339 807 l 33 807 l 33 901 l 779 901 l 779 807 m 481 -56 l 365 -264 l 286 -264 l 350 -56 l 481 -56 z "},"ț":{"ha":558,"x_min":14,"x_max":531,"o":"m 531 -3 q 390 -14 464 -14 q 217 26 271 -14 q 164 196 164 65 l 164 593 l 14 593 l 14 672 l 164 672 l 164 881 l 290 881 l 290 672 l 531 672 l 531 593 l 290 593 l 290 189 q 318 92 290 117 q 431 68 346 68 q 531 79 453 68 l 531 -3 m 360 -86 l 244 -294 l 165 -294 l 229 -86 l 360 -86 z "},"ȷ":{"ha":343,"x_min":-60,"x_max":235,"o":"m 235 672 l 235 -101 q 185 -266 235 -226 q 11 -306 136 -306 q -60 -304 -36 -306 l -60 -226 q -35 -228 -51 -228 q 78 -207 46 -228 q 110 -111 110 -186 l 110 672 l 235 672 z "},"ʼ":{"ha":308,"x_min":61,"x_max":246,"o":"m 246 901 l 142 707 l 61 707 l 111 901 l 246 901 z "},"ˆ":{"ha":446,"x_min":56,"x_max":390,"o":"m 56 768 l 150 944 l 299 944 l 390 768 l 310 768 l 224 889 l 136 768 l 56 768 z "},"ˇ":{"ha":446,"x_min":56,"x_max":390,"o":"m 150 768 l 56 944 l 136 944 l 224 824 l 310 944 l 390 944 l 299 768 l 150 768 z "},"ˉ":{"ha":413,"x_min":56,"x_max":358,"o":"m 358 819 l 56 819 l 56 901 l 358 901 l 358 819 z "},"˘":{"ha":383,"x_min":28,"x_max":356,"o":"m 310 816 q 288 792 310 816 q 192 768 267 768 q 74 816 117 768 q 28 944 31 864 l 103 944 q 192 850 111 850 q 281 944 272 850 l 356 944 q 310 816 353 864 z "},"˙":{"ha":342,"x_min":110,"x_max":235,"o":"m 235 789 l 110 789 l 110 925 l 235 925 l 235 789 z "},"˚":{"ha":747,"x_min":181,"x_max":551,"o":"m 551 921 l 551 904 q 540 828 551 857 q 499 788 528 800 q 443 772 471 775 q 365 768 415 768 q 288 772 315 768 q 233 788 261 775 q 192 828 204 800 q 181 904 181 857 l 181 921 q 192 1001 181 971 q 233 1045 204 1032 q 288 1062 261 1058 q 365 1065 315 1065 q 428 1063 404 1065 q 478 1053 451 1061 q 518 1031 504 1046 q 542 989 532 1017 q 551 921 551 961 m 464 894 l 464 932 q 443 994 464 982 q 365 1007 422 1007 q 288 994 308 1007 q 268 932 268 982 l 268 894 q 288 838 268 849 q 365 826 308 826 q 443 838 422 826 q 464 894 464 849 z "},"˛":{"ha":282,"x_min":40,"x_max":247,"o":"m 178 -258 q 74 -233 108 -258 q 40 -147 40 -207 q 90 0 40 -78 l 194 0 q 150 -135 150 -69 q 204 -181 150 -181 q 247 -171 215 -181 l 247 -244 q 178 -258 218 -258 z "},"˜":{"ha":438,"x_min":42,"x_max":396,"o":"m 132 893 q 222 869 165 893 q 306 846 279 846 q 356 860 336 846 q 396 906 375 875 l 396 810 q 306 756 364 756 q 214 781 269 756 q 132 806 158 806 q 42 751 76 806 l 42 853 q 132 893 75 893 z "},"˝":{"ha":435,"x_min":28,"x_max":407,"o":"m 133 767 l 28 767 l 125 944 l 231 944 l 133 767 m 310 767 l 204 767 l 301 944 l 407 944 l 310 767 z "},"΄":{"ha":418,"x_min":135,"x_max":285,"o":"m 244 750 l 175 750 l 135 986 l 285 986 l 244 750 z "},"΅":{"ha":611,"x_min":42,"x_max":569,"o":"m 167 789 l 42 789 l 42 919 l 167 919 l 167 789 m 569 789 l 444 789 l 444 919 l 569 919 l 569 789 m 338 768 l 268 768 l 228 1004 l 378 1004 l 338 768 z "},"Ά":{"ha":906,"x_min":21,"x_max":885,"o":"m 885 0 l 744 0 l 642 274 l 256 274 l 154 0 l 21 0 l 379 901 l 535 901 l 885 0 m 608 367 l 456 774 l 443 774 l 290 367 l 608 367 m 174 665 l 104 665 l 64 901 l 214 901 l 174 665 z "},"Έ":{"ha":997,"x_min":67,"x_max":928,"o":"m 928 0 l 308 0 l 308 901 l 914 901 l 914 807 l 443 807 l 443 513 l 868 513 l 868 418 l 443 418 l 443 94 l 928 94 l 928 0 m 176 679 l 107 679 l 67 915 l 217 915 l 176 679 z "},"Ή":{"ha":1194,"x_min":67,"x_max":1078,"o":"m 1078 0 l 943 0 l 943 418 l 464 418 l 464 0 l 329 0 l 329 901 l 464 901 l 464 513 l 943 513 l 943 901 l 1078 901 l 1078 0 m 176 679 l 107 679 l 67 915 l 217 915 l 176 679 z "},"Ί":{"ha":553,"x_min":67,"x_max":436,"o":"m 436 0 l 301 0 l 301 901 l 436 901 l 436 0 m 176 679 l 107 679 l 67 915 l 217 915 l 176 679 z "},"Ό":{"ha":1097,"x_min":39,"x_max":1006,"o":"m 1006 658 l 1006 231 q 970 106 1006 157 q 874 30 935 54 q 753 -4 813 6 q 624 -14 693 -14 q 246 231 246 -14 l 246 657 q 624 915 246 915 q 1006 658 1006 915 m 875 232 l 875 661 q 625 828 875 828 q 532 822 572 828 q 454 798 492 815 q 396 747 417 781 q 375 661 375 713 l 375 232 q 626 76 375 76 q 875 232 875 76 m 149 679 l 79 679 l 39 915 l 189 915 l 149 679 z "},"Ύ":{"ha":1090,"x_min":67,"x_max":1079,"o":"m 1079 901 l 751 368 l 751 0 l 617 0 l 617 364 l 290 901 l 444 901 l 685 478 l 925 901 l 1079 901 m 176 679 l 107 679 l 67 915 l 217 915 l 176 679 z "},"Ώ":{"ha":1107,"x_min":7,"x_max":1015,"o":"m 876 661 q 619 828 876 828 q 363 661 363 828 l 363 343 q 407 193 363 258 q 522 89 451 128 l 522 0 l 224 0 l 224 94 l 369 94 q 274 190 314 126 q 233 328 233 254 l 233 658 q 619 915 233 915 q 1006 658 1006 915 l 1006 328 q 965 190 1006 254 q 869 94 925 126 l 1015 94 l 1015 0 l 717 0 l 717 89 q 832 193 788 128 q 876 343 876 258 l 876 661 m 117 678 l 47 678 l 7 914 l 157 914 l 117 678 z "},"ΐ":{"ha":342,"x_min":-93,"x_max":435,"o":"m 235 672 l 235 189 q 256 102 235 126 q 335 74 276 78 l 335 -10 q 239 -3 275 -10 q 170 23 203 3 q 123 85 138 43 q 108 196 108 128 l 108 672 l 235 672 m 32 789 l -93 789 l -93 919 l 32 919 l 32 789 m 435 789 l 310 789 l 310 919 l 435 919 l 435 789 m 203 768 l 133 768 l 93 1004 l 243 1004 l 203 768 z "},"Α":{"ha":906,"x_min":21,"x_max":885,"o":"m 885 0 l 744 0 l 642 274 l 256 274 l 154 0 l 21 0 l 379 901 l 535 901 l 885 0 m 608 367 l 456 774 l 443 774 l 290 367 l 608 367 z "},"Β":{"ha":851,"x_min":117,"x_max":768,"o":"m 768 331 l 768 179 q 693 40 768 81 q 449 0 618 0 l 117 0 l 117 901 l 439 901 q 622 878 556 901 q 708 819 688 854 q 728 731 728 785 l 728 610 q 697 525 728 554 q 604 482 665 496 l 604 476 q 722 426 676 464 q 768 331 768 389 m 601 614 l 601 719 q 564 792 601 771 q 439 813 526 813 l 251 813 l 251 507 l 443 507 q 565 533 529 507 q 601 614 601 558 m 633 185 l 633 321 q 619 378 633 357 q 573 409 604 400 q 517 420 542 418 q 449 422 493 422 l 251 422 l 251 93 l 449 93 q 592 114 550 93 q 633 185 633 135 z "},"Γ":{"ha":736,"x_min":117,"x_max":694,"o":"m 694 807 l 251 807 l 251 0 l 117 0 l 117 901 l 694 901 l 694 807 z "},"Δ":{"ha":906,"x_min":21,"x_max":885,"o":"m 885 0 l 21 0 l 379 901 l 535 901 l 885 0 m 443 774 l 189 94 l 708 94 l 456 774 l 443 774 z "},"Ε":{"ha":806,"x_min":117,"x_max":736,"o":"m 736 0 l 117 0 l 117 901 l 722 901 l 722 807 l 251 807 l 251 513 l 676 513 l 676 418 l 251 418 l 251 94 l 736 94 l 736 0 z "},"Ζ":{"ha":806,"x_min":56,"x_max":750,"o":"m 750 0 l 56 0 l 56 94 l 586 807 l 69 807 l 69 901 l 742 901 l 742 807 l 211 94 l 750 94 l 750 0 z "},"Η":{"ha":982,"x_min":117,"x_max":865,"o":"m 865 0 l 731 0 l 731 418 l 251 418 l 251 0 l 117 0 l 117 901 l 251 901 l 251 513 l 731 513 l 731 901 l 865 901 l 865 0 z "},"Θ":{"ha":943,"x_min":92,"x_max":851,"o":"m 297 408 l 297 492 l 643 492 l 643 408 l 297 408 m 851 658 l 851 231 q 816 106 851 157 q 719 30 781 54 q 599 -4 658 6 q 469 -14 539 -14 q 92 231 92 -14 l 92 657 q 469 915 92 915 q 851 658 851 915 m 721 232 l 721 661 q 471 828 721 828 q 378 822 418 828 q 300 798 338 815 q 242 747 263 781 q 221 661 221 713 l 221 232 q 472 76 221 76 q 721 232 721 76 z "},"Ι":{"ha":368,"x_min":117,"x_max":251,"o":"m 251 0 l 117 0 l 117 901 l 251 901 l 251 0 z "},"Κ":{"ha":846,"x_min":117,"x_max":860,"o":"m 860 0 l 685 0 l 254 479 l 657 901 l 819 901 l 414 485 l 860 0 m 251 0 l 117 0 l 117 901 l 251 901 l 251 0 z "},"Λ":{"ha":906,"x_min":21,"x_max":885,"o":"m 443 774 l 154 0 l 21 0 l 379 901 l 535 901 l 885 0 l 744 0 l 456 774 l 443 774 z "},"Μ":{"ha":1196,"x_min":117,"x_max":1079,"o":"m 1079 0 l 961 0 l 961 763 l 954 763 l 664 0 l 543 0 l 244 763 l 238 763 l 238 0 l 117 0 l 117 901 l 318 901 l 607 151 l 611 150 l 885 901 l 1079 901 l 1079 0 z "},"Ν":{"ha":1004,"x_min":117,"x_max":888,"o":"m 888 0 l 725 0 l 235 757 l 235 0 l 117 0 l 117 901 l 279 901 l 769 157 l 769 901 l 888 901 l 888 0 z "},"Ξ":{"ha":875,"x_min":69,"x_max":806,"o":"m 69 0 l 69 100 l 806 100 l 806 0 l 69 0 m 69 801 l 69 901 l 806 901 l 806 801 l 69 801 m 167 415 l 167 515 l 708 515 l 708 415 l 167 415 z "},"Ο":{"ha":943,"x_min":92,"x_max":851,"o":"m 851 658 l 851 231 q 816 106 851 157 q 719 30 781 54 q 599 -4 658 6 q 469 -14 539 -14 q 92 231 92 -14 l 92 657 q 469 915 92 915 q 851 658 851 915 m 721 232 l 721 661 q 471 828 721 828 q 378 822 418 828 q 300 798 338 815 q 242 747 263 781 q 221 661 221 713 l 221 232 q 472 76 221 76 q 721 232 721 76 z "},"Π":{"ha":954,"x_min":117,"x_max":838,"o":"m 838 0 l 703 0 l 703 808 l 251 808 l 251 0 l 117 0 l 117 901 l 838 901 l 838 0 z "},"Ρ":{"ha":792,"x_min":117,"x_max":729,"o":"m 729 724 l 729 539 q 640 374 729 422 q 386 325 551 325 l 251 325 l 251 0 l 117 0 l 117 901 l 411 901 q 507 899 467 901 q 592 885 547 896 q 665 856 638 875 q 710 804 692 838 q 729 724 729 771 m 597 543 l 597 707 q 578 769 597 744 q 522 803 558 793 q 462 815 486 813 q 401 817 438 817 l 250 817 l 250 410 l 404 410 q 541 440 485 410 q 597 543 597 469 z "},"Σ":{"ha":806,"x_min":75,"x_max":736,"o":"m 722 901 l 722 807 l 200 807 l 538 522 l 538 414 l 197 94 l 736 94 l 736 0 l 75 0 l 75 125 l 424 467 l 75 765 l 75 901 l 722 901 z "},"Τ":{"ha":813,"x_min":33,"x_max":779,"o":"m 779 807 l 475 807 l 475 0 l 339 0 l 339 807 l 33 807 l 33 901 l 779 901 l 779 807 z "},"Υ":{"ha":811,"x_min":11,"x_max":800,"o":"m 800 901 l 472 368 l 472 0 l 338 0 l 338 364 l 11 901 l 165 901 l 406 478 l 646 901 l 800 901 z "},"Φ":{"ha":999,"x_min":92,"x_max":907,"o":"m 569 0 l 435 0 l 435 85 q 270 106 343 85 q 144 183 197 126 q 92 328 92 240 l 92 560 q 190 755 92 694 q 435 815 289 815 l 435 901 l 569 901 l 569 815 q 693 802 636 815 q 800 760 750 789 q 878 681 850 732 q 907 561 907 631 l 907 328 q 854 186 907 243 q 729 108 801 129 q 569 86 657 86 l 569 0 m 226 564 l 226 329 q 283 214 226 251 q 435 176 340 176 l 435 728 q 226 564 226 728 m 771 329 l 771 564 q 714 687 771 646 q 569 728 657 728 l 569 176 q 715 215 660 176 q 771 329 771 253 z "},"Χ":{"ha":839,"x_min":11,"x_max":828,"o":"m 828 0 l 674 0 l 419 367 l 165 0 l 11 0 l 343 460 l 25 901 l 179 901 l 419 553 l 660 901 l 814 901 l 496 460 l 828 0 z "},"Ψ":{"ha":965,"x_min":89,"x_max":876,"o":"m 551 0 l 417 0 l 417 321 q 89 564 89 342 l 89 901 l 218 901 l 218 565 q 417 413 218 432 l 417 901 l 551 901 l 551 413 q 747 565 747 432 l 747 901 l 876 901 l 876 564 q 551 322 876 346 l 551 0 z "},"Ω":{"ha":975,"x_min":92,"x_max":883,"o":"m 744 661 q 488 828 744 828 q 231 661 231 828 l 231 343 q 275 193 231 258 q 390 89 319 128 l 390 0 l 92 0 l 92 94 l 238 94 q 142 190 182 126 q 101 328 101 254 l 101 658 q 488 915 101 915 q 874 658 874 915 l 874 328 q 833 190 874 254 q 738 94 793 126 l 883 94 l 883 0 l 585 0 l 585 89 q 700 193 656 128 q 744 343 744 258 l 744 661 z "},"Ϊ":{"ha":368,"x_min":3,"x_max":364,"o":"m 251 0 l 117 0 l 117 901 l 251 901 l 251 0 m 128 993 l 3 993 l 3 1124 l 128 1124 l 128 993 m 364 993 l 239 993 l 239 1124 l 364 1124 l 364 993 z "},"Ϋ":{"ha":811,"x_min":11,"x_max":800,"o":"m 800 901 l 472 368 l 472 0 l 338 0 l 338 364 l 11 901 l 165 901 l 406 478 l 646 901 l 800 901 m 353 965 l 228 965 l 228 1096 l 353 1096 l 353 965 m 589 965 l 464 965 l 464 1096 l 589 1096 l 589 965 z "},"ά":{"ha":793,"x_min":83,"x_max":782,"o":"m 782 75 l 736 -10 q 582 71 604 -3 q 551 22 567 38 q 488 -3 536 7 q 349 -14 440 -14 q 143 32 203 -14 q 83 200 83 78 l 83 496 q 146 642 83 597 q 356 686 208 686 q 502 665 435 686 q 574 600 569 644 l 574 672 l 696 672 l 696 143 q 713 94 696 111 q 782 75 731 78 m 571 176 l 571 508 q 386 599 571 599 q 241 582 275 599 q 207 508 207 565 l 207 176 q 245 96 207 119 q 375 72 283 72 q 524 96 478 72 q 571 176 571 119 m 414 750 l 344 750 l 304 986 l 454 986 l 414 750 z "},"έ":{"ha":690,"x_min":83,"x_max":647,"o":"m 83 172 l 83 242 q 236 368 83 344 l 236 371 q 147 407 185 379 q 110 481 110 435 l 110 535 q 144 633 110 601 q 249 676 179 665 q 404 686 304 686 q 619 674 515 686 l 619 583 q 425 600 524 600 l 403 600 q 236 528 236 600 l 236 486 q 253 436 236 456 q 300 409 269 417 q 353 399 331 401 q 410 397 376 397 l 532 397 l 532 311 l 386 311 q 329 309 353 311 q 276 299 306 307 q 230 273 246 292 q 214 225 214 254 l 214 182 q 232 123 214 146 q 285 91 250 100 q 346 80 321 82 q 413 78 371 78 q 647 108 499 78 l 647 10 q 385 -14 492 -14 q 274 -9 318 -14 q 182 13 231 -4 q 108 70 133 31 q 83 172 83 110 m 425 750 l 356 750 l 315 986 l 465 986 l 425 750 z "},"ή":{"ha":796,"x_min":108,"x_max":796,"o":"m 563 -96 l 563 486 q 558 528 563 511 q 541 562 554 544 q 497 588 528 579 q 418 597 465 597 q 271 574 308 597 q 233 486 233 550 l 233 0 l 108 0 l 108 672 l 233 672 l 233 590 q 454 686 253 686 q 638 638 588 686 q 688 493 688 590 l 688 -89 q 706 -178 688 -156 q 796 -200 725 -200 l 796 -289 l 783 -289 q 607 -242 651 -289 q 563 -96 563 -196 m 450 750 l 381 750 l 340 986 l 490 986 l 450 750 z "},"ί":{"ha":358,"x_min":104,"x_max":335,"o":"m 235 672 l 235 189 q 256 102 235 126 q 335 74 276 78 l 335 -10 q 239 -3 275 -10 q 170 23 203 3 q 123 85 138 43 q 108 196 108 128 l 108 672 l 235 672 m 214 750 l 144 750 l 104 986 l 254 986 l 214 750 z "},"ΰ":{"ha":810,"x_min":108,"x_max":703,"o":"m 404 -14 q 264 -6 315 -14 q 174 30 213 3 q 122 104 136 57 q 108 231 108 151 l 108 672 l 233 672 l 233 229 q 264 102 233 131 q 407 74 294 74 q 483 80 457 74 q 535 111 510 86 q 569 190 560 136 q 579 332 579 243 q 521 672 579 450 l 638 672 q 688 499 674 564 q 703 350 703 433 q 685 156 703 229 q 626 45 668 82 q 535 -3 585 8 q 404 -14 486 -14 m 265 789 l 140 789 l 140 919 l 265 919 l 265 789 m 668 789 l 543 789 l 543 919 l 668 919 l 668 789 m 436 768 l 367 768 l 326 1004 l 476 1004 l 436 768 z "},"α":{"ha":793,"x_min":83,"x_max":782,"o":"m 782 75 l 736 -10 q 582 71 604 -3 q 551 22 567 38 q 488 -3 536 7 q 349 -14 440 -14 q 143 32 203 -14 q 83 200 83 78 l 83 496 q 146 642 83 597 q 356 686 208 686 q 502 665 435 686 q 574 600 569 644 l 574 672 l 696 672 l 696 143 q 713 94 696 111 q 782 75 731 78 m 571 176 l 571 508 q 386 599 571 599 q 241 582 275 599 q 207 508 207 565 l 207 176 q 245 96 207 119 q 375 72 283 72 q 524 96 478 72 q 571 176 571 119 z "},"β":{"ha":836,"x_min":108,"x_max":753,"o":"m 753 331 l 753 192 q 676 46 753 92 q 433 0 599 0 q 236 35 340 0 l 236 -290 l 108 -290 l 108 668 q 174 866 108 817 q 424 915 240 915 q 606 892 540 915 q 692 833 672 868 q 713 744 713 799 l 713 610 q 682 524 713 553 q 592 481 651 494 l 592 475 q 708 426 664 463 q 753 331 753 389 m 236 686 l 236 124 q 440 89 331 89 q 582 115 539 89 q 625 193 625 142 l 625 321 q 610 378 625 357 q 565 409 596 400 q 509 420 533 418 q 440 422 485 422 l 378 422 l 378 507 l 435 507 q 557 533 521 507 q 593 614 593 558 l 593 733 q 553 805 593 783 q 424 826 513 826 q 272 801 307 826 q 236 686 236 776 z "},"γ":{"ha":653,"x_min":-1,"x_max":625,"o":"m 372 -290 l 247 -290 l 247 24 l -1 672 l 131 672 l 331 106 l 338 106 q 454 366 404 213 q 504 672 504 519 l 625 672 q 372 -24 625 354 l 372 -290 z "},"δ":{"ha":786,"x_min":83,"x_max":703,"o":"m 703 351 l 703 213 q 688 107 703 150 q 649 40 672 64 q 581 4 625 17 q 498 -11 538 -8 q 393 -14 458 -14 q 263 -8 310 -14 q 170 19 217 -3 q 103 88 124 40 q 83 213 83 135 l 83 338 q 94 442 83 399 q 123 513 106 485 q 178 565 140 542 q 253 603 217 589 q 357 638 290 617 l 363 640 q 203 781 225 754 q 176 857 176 814 q 219 936 176 910 q 358 963 261 963 l 592 963 l 592 878 l 367 878 q 322 871 335 878 q 310 844 310 864 q 328 812 310 831 q 397 751 346 793 q 624 550 576 603 q 703 351 700 454 m 575 194 l 575 329 q 542 456 575 403 q 422 581 510 508 l 419 581 q 316 547 349 560 q 255 508 283 533 q 219 445 226 482 q 211 343 211 408 l 211 194 q 221 124 211 150 q 257 85 231 97 q 311 71 283 74 q 393 68 339 68 q 475 71 447 68 q 529 85 503 74 q 565 124 556 97 q 575 194 575 150 z "},"ε":{"ha":690,"x_min":83,"x_max":647,"o":"m 83 172 l 83 242 q 236 368 83 344 l 236 371 q 147 407 185 379 q 110 481 110 435 l 110 535 q 144 633 110 601 q 249 676 179 665 q 404 686 304 686 q 619 674 515 686 l 619 583 q 425 600 524 600 l 403 600 q 236 528 236 600 l 236 486 q 253 436 236 456 q 300 409 269 417 q 353 399 331 401 q 410 397 376 397 l 532 397 l 532 311 l 386 311 q 329 309 353 311 q 276 299 306 307 q 230 273 246 292 q 214 225 214 254 l 214 182 q 232 123 214 146 q 285 91 250 100 q 346 80 321 82 q 413 78 371 78 q 647 108 499 78 l 647 10 q 385 -14 492 -14 q 274 -9 318 -14 q 182 13 231 -4 q 108 70 133 31 q 83 172 83 110 z "},"ζ":{"ha":582,"x_min":28,"x_max":588,"o":"m 229 510 l 229 182 q 238 122 229 144 q 267 91 246 100 q 306 80 288 82 q 361 78 324 78 q 536 35 485 78 q 588 -114 588 -8 q 551 -289 588 -185 l 443 -289 q 471 -150 471 -189 q 447 -42 471 -69 q 333 -14 422 -14 q 235 -8 272 -14 q 165 17 199 -3 q 116 76 131 36 q 101 179 101 115 l 101 489 q 140 649 101 583 q 244 782 178 715 l 28 782 l 28 869 l 317 869 q 493 963 414 963 q 532 947 515 963 q 549 911 549 932 q 494 822 549 858 q 346 782 439 785 q 229 510 229 642 z "},"η":{"ha":796,"x_min":108,"x_max":796,"o":"m 563 -96 l 563 486 q 558 528 563 511 q 541 562 554 544 q 497 588 528 579 q 418 597 465 597 q 271 574 308 597 q 233 486 233 550 l 233 0 l 108 0 l 108 672 l 233 672 l 233 590 q 454 686 253 686 q 638 638 588 686 q 688 493 688 590 l 688 -89 q 706 -178 688 -156 q 796 -200 725 -200 l 796 -289 l 783 -289 q 607 -242 651 -289 q 563 -96 563 -196 z "},"θ":{"ha":806,"x_min":85,"x_max":721,"o":"m 721 672 l 721 217 q 702 113 721 157 q 655 45 683 69 q 582 7 626 21 q 497 -10 538 -7 q 401 -14 457 -14 q 305 -10 344 -14 q 220 6 265 -7 q 148 44 175 19 q 103 112 121 68 q 85 217 85 156 l 85 671 q 103 783 85 736 q 150 855 122 829 q 224 894 178 881 q 308 912 269 908 q 401 915 346 915 q 497 912 458 915 q 582 894 536 908 q 656 856 628 881 q 702 784 683 831 q 721 672 721 738 m 594 210 l 594 424 l 211 424 l 211 210 q 256 94 211 119 q 404 68 300 68 q 551 94 508 68 q 594 210 594 119 m 211 681 l 211 513 l 594 513 l 594 681 q 551 806 594 779 q 403 833 507 833 q 253 806 296 833 q 211 681 211 779 z "},"ι":{"ha":358,"x_min":108,"x_max":335,"o":"m 235 672 l 235 189 q 256 102 235 126 q 335 74 276 78 l 335 -10 q 239 -3 275 -10 q 170 23 203 3 q 123 85 138 43 q 108 196 108 128 l 108 672 l 235 672 z "},"κ":{"ha":731,"x_min":117,"x_max":753,"o":"m 753 0 l 578 0 l 244 347 l 556 672 l 713 672 l 404 353 l 753 0 m 242 0 l 117 0 l 117 672 l 242 672 l 242 0 z "},"λ":{"ha":671,"x_min":22,"x_max":649,"o":"m 301 972 l 649 0 l 517 0 l 331 564 l 324 564 l 143 0 l 22 0 l 269 706 l 238 796 q 150 972 214 863 l 301 972 z "},"μ":{"ha":796,"x_min":108,"x_max":688,"o":"m 688 0 l 565 0 l 565 82 q 342 -14 542 -14 q 233 -3 281 -14 l 233 -289 l 108 -289 l 108 672 l 233 672 l 233 186 q 238 144 233 161 q 255 110 242 128 q 299 84 268 93 q 378 75 331 75 q 522 94 482 75 q 563 165 563 114 l 563 672 l 688 672 l 688 0 z "},"ν":{"ha":643,"x_min":8,"x_max":635,"o":"m 635 672 l 400 0 l 250 0 l 8 672 l 140 672 l 326 108 l 333 108 l 514 672 l 635 672 z "},"ξ":{"ha":732,"x_min":0,"x_max":732,"o":"m 0 835 l 0 917 l 428 917 q 681 906 575 917 l 681 815 q 426 831 561 831 q 260 758 260 831 l 260 597 q 276 547 260 567 q 324 520 293 528 q 377 510 354 513 q 433 508 400 508 l 583 508 l 583 422 l 410 422 q 353 420 376 422 q 299 410 329 418 q 253 384 269 403 q 238 336 238 365 l 238 182 q 256 123 238 146 q 309 91 274 100 q 369 80 344 82 q 436 78 394 78 q 670 36 608 78 q 732 -114 732 -6 q 685 -289 732 -187 l 576 -289 q 615 -149 615 -206 q 573 -43 615 -72 q 408 -14 531 -14 q 321 -11 358 -14 q 240 3 283 -8 q 170 35 197 15 q 125 92 143 56 q 107 179 107 129 l 107 360 q 119 413 107 392 q 154 447 131 435 q 199 466 178 460 q 253 478 221 472 l 253 483 q 168 519 203 492 q 133 592 133 546 l 133 765 q 147 835 133 807 l 0 835 z "},"ο":{"ha":789,"x_min":83,"x_max":703,"o":"m 703 446 l 703 213 q 688 107 703 150 q 649 40 672 64 q 581 4 625 17 q 498 -11 538 -8 q 393 -14 458 -14 q 263 -8 310 -14 q 170 19 217 -3 q 103 88 124 40 q 83 213 83 135 l 83 446 q 99 558 83 513 q 138 629 115 604 q 206 667 161 654 q 288 683 250 681 q 393 686 326 686 q 498 683 460 686 q 581 667 536 681 q 648 629 625 654 q 687 558 671 604 q 703 446 703 513 m 575 194 l 575 467 q 538 582 575 560 q 393 604 500 604 q 249 582 286 604 q 211 467 211 560 l 211 194 q 221 124 211 150 q 257 85 231 97 q 311 71 283 74 q 393 68 339 68 q 475 71 447 68 q 529 85 503 74 q 565 124 556 97 q 575 194 575 150 z "},"π":{"ha":817,"x_min":28,"x_max":793,"o":"m 793 -8 q 767 -9 783 -8 q 743 -10 750 -10 q 564 28 611 -10 q 517 190 517 67 l 517 590 l 290 590 l 290 0 l 164 0 l 164 590 l 28 590 l 28 672 l 782 672 l 782 590 l 643 590 l 643 182 q 671 88 643 111 q 783 65 699 65 l 793 65 l 793 -8 z "},"ρ":{"ha":804,"x_min":108,"x_max":721,"o":"m 721 467 l 721 190 q 443 -14 721 -14 q 290 8 342 -14 q 232 61 238 29 q 233 -19 232 35 q 233 -99 233 -72 l 233 -289 l 108 -289 l 108 467 q 125 572 108 529 q 165 636 142 614 q 233 670 189 658 q 313 684 278 682 q 408 686 347 686 q 503 684 468 686 q 585 670 539 682 q 658 636 632 658 q 702 571 683 614 q 721 467 721 528 m 593 207 l 593 471 q 553 580 593 556 q 411 604 514 604 q 267 580 308 604 q 226 471 226 556 l 226 207 q 268 101 226 128 q 410 75 310 75 q 553 98 513 75 q 593 207 593 121 z "},"ς":{"ha":0,"x_min":0,"x_max":0,"o":""},"σ":{"ha":806,"x_min":83,"x_max":818,"o":"m 703 443 l 703 213 q 688 107 703 150 q 649 40 672 64 q 581 4 625 17 q 498 -11 538 -8 q 393 -14 458 -14 q 263 -8 310 -14 q 170 19 217 -3 q 103 88 124 40 q 83 213 83 135 l 83 446 q 99 558 83 513 q 138 629 115 604 q 206 667 161 654 q 288 683 250 681 q 393 686 326 686 q 524 679 428 686 q 642 672 619 672 l 818 672 l 818 590 l 660 590 q 703 443 703 544 m 575 194 l 575 467 q 538 582 575 560 q 393 604 500 604 q 249 582 286 604 q 211 467 211 560 l 211 194 q 221 124 211 150 q 257 85 231 97 q 311 71 283 74 q 393 68 339 68 q 475 71 447 68 q 529 85 503 74 q 565 124 556 97 q 575 194 575 150 z "},"τ":{"ha":572,"x_min":14,"x_max":531,"o":"m 494 -3 q 394 -10 436 -10 q 242 38 288 -10 q 197 196 197 85 l 197 590 l 14 590 l 14 672 l 531 672 l 531 590 l 324 590 l 324 189 q 345 96 324 119 q 422 72 367 72 q 494 79 446 72 l 494 -3 z "},"υ":{"ha":803,"x_min":108,"x_max":703,"o":"m 404 -14 q 264 -6 315 -14 q 174 30 213 3 q 122 104 136 57 q 108 231 108 151 l 108 672 l 233 672 l 233 229 q 264 102 233 131 q 407 74 294 74 q 483 80 457 74 q 535 111 510 86 q 569 190 560 136 q 579 332 579 243 q 521 672 579 450 l 638 672 q 688 499 674 564 q 703 350 703 433 q 685 156 703 229 q 626 45 668 82 q 535 -3 585 8 q 404 -14 486 -14 z "},"φ":{"ha":903,"x_min":86,"x_max":817,"o":"m 393 -289 l 393 -14 q 274 -4 322 -12 q 180 26 226 4 q 110 95 133 49 q 86 213 86 142 l 86 446 q 142 625 86 572 q 310 685 199 678 l 310 601 q 214 467 214 589 l 214 194 q 260 97 214 122 q 393 68 307 71 l 393 461 q 436 643 393 600 q 601 686 479 686 q 774 641 731 686 q 817 446 817 596 l 817 213 q 794 97 817 143 q 724 28 771 50 q 631 -3 678 6 q 514 -14 583 -12 l 514 -289 l 393 -289 m 689 194 l 689 467 q 670 574 689 546 q 596 601 651 601 q 529 572 544 601 q 514 464 514 543 l 514 68 q 643 98 597 72 q 689 194 689 124 z "},"χ":{"ha":665,"x_min":-24,"x_max":696,"o":"m 268 238 l 29 672 l 158 672 l 333 354 l 511 672 l 638 672 l 399 240 l 696 -289 l 561 -289 l 332 121 l 107 -290 l -24 -290 l 268 238 z "},"ψ":{"ha":1040,"x_min":108,"x_max":932,"o":"m 108 672 l 229 672 l 229 310 q 238 179 229 225 q 276 108 246 133 q 344 76 306 82 q 460 71 382 71 l 460 672 l 581 672 l 581 71 q 668 73 636 71 q 729 84 700 75 q 772 107 758 93 q 795 150 785 121 q 808 215 806 179 q 810 310 810 251 l 810 672 l 932 672 l 932 314 q 928 208 932 253 q 913 127 925 163 q 890 69 901 92 q 854 29 879 46 q 808 4 829 13 q 746 -9 788 -4 q 672 -15 704 -14 q 581 -15 639 -15 l 581 -289 l 460 -289 l 460 -15 q 376 -15 407 -15 q 308 -11 346 -14 q 249 -1 269 -8 q 203 17 229 6 q 166 45 178 28 q 140 86 154 63 q 121 143 126 110 q 112 218 115 176 q 108 314 108 260 l 108 672 z "},"ω":{"ha":1133,"x_min":83,"x_max":1050,"o":"m 136 672 l 254 672 q 208 332 208 503 q 224 156 208 213 q 268 85 239 100 q 363 69 297 69 q 479 117 451 69 q 507 289 507 164 l 507 539 l 628 539 l 628 289 q 657 117 628 165 q 774 69 686 69 q 847 76 822 69 q 892 110 872 83 q 919 188 913 136 q 926 332 926 240 q 868 672 926 450 l 985 672 q 1035 499 1021 564 q 1050 350 1050 433 q 1035 163 1050 235 q 985 53 1021 92 q 905 0 950 14 q 786 -14 860 -14 q 650 13 701 -14 q 568 114 599 39 q 485 13 538 39 q 347 -14 432 -14 q 142 60 200 -14 q 83 350 83 135 q 94 513 83 444 q 136 672 104 581 z "},"ϊ":{"ha":358,"x_min":-7,"x_max":354,"o":"m 235 672 l 235 189 q 256 102 235 126 q 335 74 276 78 l 335 -10 q 239 -3 275 -10 q 170 23 203 3 q 123 85 138 43 q 108 196 108 128 l 108 672 l 235 672 m 118 785 l -7 785 l -7 915 l 118 915 l 118 785 m 354 785 l 229 785 l 229 915 l 354 915 l 354 785 z "},"ϋ":{"ha":810,"x_min":108,"x_max":703,"o":"m 404 -14 q 264 -6 315 -14 q 174 30 213 3 q 122 104 136 57 q 108 231 108 151 l 108 672 l 233 672 l 233 229 q 264 102 233 131 q 407 74 294 74 q 483 80 457 74 q 535 111 510 86 q 569 190 560 136 q 579 332 579 243 q 521 672 579 450 l 638 672 q 688 499 674 564 q 703 350 703 433 q 685 156 703 229 q 626 45 668 82 q 535 -3 585 8 q 404 -14 486 -14 m 351 785 l 226 785 l 226 915 l 351 915 l 351 785 m 588 785 l 463 785 l 463 915 l 588 915 l 588 785 z "},"ό":{"ha":789,"x_min":83,"x_max":703,"o":"m 703 446 l 703 213 q 688 107 703 150 q 649 40 672 64 q 581 4 625 17 q 498 -11 538 -8 q 393 -14 458 -14 q 263 -8 310 -14 q 170 19 217 -3 q 103 88 124 40 q 83 213 83 135 l 83 446 q 99 558 83 513 q 138 629 115 604 q 206 667 161 654 q 288 683 250 681 q 393 686 326 686 q 498 683 460 686 q 581 667 536 681 q 648 629 625 654 q 687 558 671 604 q 703 446 703 513 m 575 194 l 575 467 q 538 582 575 560 q 393 604 500 604 q 249 582 286 604 q 211 467 211 560 l 211 194 q 221 124 211 150 q 257 85 231 97 q 311 71 283 74 q 393 68 339 68 q 475 71 447 68 q 529 85 503 74 q 565 124 556 97 q 575 194 575 150 m 429 750 l 360 750 l 319 986 l 469 986 l 429 750 z "},"ύ":{"ha":810,"x_min":108,"x_max":703,"o":"m 404 -14 q 264 -6 315 -14 q 174 30 213 3 q 122 104 136 57 q 108 231 108 151 l 108 672 l 233 672 l 233 229 q 264 102 233 131 q 407 74 294 74 q 483 80 457 74 q 535 111 510 86 q 569 190 560 136 q 579 332 579 243 q 521 672 579 450 l 638 672 q 688 499 674 564 q 703 350 703 433 q 685 156 703 229 q 626 45 668 82 q 535 -3 585 8 q 404 -14 486 -14 m 439 703 l 369 703 l 329 939 l 479 939 l 439 703 z "},"ώ":{"ha":1133,"x_min":83,"x_max":1050,"o":"m 136 672 l 254 672 q 208 332 208 503 q 224 156 208 213 q 268 85 239 100 q 363 69 297 69 q 479 117 451 69 q 507 289 507 164 l 507 539 l 628 539 l 628 289 q 657 117 628 165 q 774 69 686 69 q 847 76 822 69 q 892 110 872 83 q 919 188 913 136 q 926 332 926 240 q 868 672 926 450 l 985 672 q 1035 499 1021 564 q 1050 350 1050 433 q 1035 163 1050 235 q 985 53 1021 92 q 905 0 950 14 q 786 -14 860 -14 q 650 13 701 -14 q 568 114 599 39 q 485 13 538 39 q 347 -14 432 -14 q 142 60 200 -14 q 83 350 83 135 q 94 513 83 444 q 136 672 104 581 m 601 750 l 532 750 l 492 986 l 642 986 l 601 750 z "},"Ѐ":{"ha":806,"x_min":117,"x_max":736,"o":"m 736 0 l 117 0 l 117 901 l 722 901 l 722 807 l 251 807 l 251 513 l 676 513 l 676 418 l 251 418 l 251 94 l 736 94 l 736 0 m 540 997 l 438 997 l 264 1174 l 415 1174 l 540 997 z "},"Ё":{"ha":806,"x_min":117,"x_max":736,"o":"m 736 0 l 117 0 l 117 901 l 722 901 l 722 807 l 251 807 l 251 513 l 676 513 l 676 418 l 251 418 l 251 94 l 736 94 l 736 0 m 371 1001 l 246 1001 l 246 1132 l 371 1132 l 371 1001 m 607 1001 l 482 1001 l 482 1132 l 607 1132 l 607 1001 z "},"Ђ":{"ha":1042,"x_min":33,"x_max":933,"o":"m 765 -275 l 625 -275 q 656 -201 626 -271 q 693 -111 686 -131 q 724 -29 700 -92 q 758 67 749 33 q 781 153 767 100 q 799 251 794 206 q 804 339 804 296 q 800 381 804 364 q 783 415 796 397 q 738 441 769 432 q 660 450 707 450 q 512 427 549 450 q 475 350 475 404 l 475 0 l 339 0 l 339 807 l 33 807 l 33 901 l 779 901 l 779 807 l 475 807 l 475 451 q 696 540 506 540 q 882 492 831 540 q 933 347 933 444 q 928 265 933 308 q 918 189 924 222 q 898 104 913 156 q 876 28 883 53 q 849 -55 869 4 q 822 -128 828 -114 q 792 -206 817 -143 q 765 -275 767 -269 z "},"Ѓ":{"ha":681,"x_min":117,"x_max":639,"o":"m 639 807 l 251 807 l 251 0 l 117 0 l 117 901 l 639 901 l 639 807 m 563 1153 l 389 976 l 286 976 l 411 1153 l 563 1153 z "},"Є":{"ha":783,"x_min":89,"x_max":721,"o":"m 721 13 q 468 -14 600 -14 q 89 231 89 -14 l 89 658 q 468 917 89 917 q 715 890 594 917 l 715 790 q 471 824 582 824 q 378 817 418 824 q 299 795 338 811 q 239 745 260 779 q 218 660 218 711 l 218 511 l 676 511 l 676 418 l 218 418 l 218 238 q 476 82 218 82 q 721 115 588 82 l 721 13 z "},"Ѕ":{"ha":790,"x_min":83,"x_max":714,"o":"m 714 306 l 714 240 q 631 40 714 93 q 367 -14 547 -14 q 101 8 265 -14 l 101 121 q 369 86 263 86 q 530 107 478 86 q 582 194 582 128 l 582 311 q 549 392 582 368 q 432 417 517 417 l 326 417 q 137 472 190 417 q 83 633 83 526 l 83 706 q 160 864 83 813 q 440 915 236 915 q 669 900 535 915 l 669 799 q 433 822 515 822 q 257 797 300 822 q 214 710 214 772 l 214 607 q 247 538 214 560 q 365 517 281 517 l 474 517 q 664 466 614 517 q 714 306 714 415 z "},"І":{"ha":368,"x_min":117,"x_max":251,"o":"m 251 0 l 117 0 l 117 901 l 251 901 l 251 0 z "},"Ї":{"ha":368,"x_min":3,"x_max":364,"o":"m 251 0 l 117 0 l 117 901 l 251 901 l 251 0 m 128 1007 l 3 1007 l 3 1138 l 128 1138 l 128 1007 m 364 1007 l 239 1007 l 239 1138 l 364 1138 l 364 1007 z "},"Ј":{"ha":560,"x_min":28,"x_max":443,"o":"m 443 901 l 443 199 q 386 32 443 71 q 193 -7 329 -7 q 28 1 169 -7 l 28 92 q 176 76 172 76 q 282 97 256 76 q 308 193 308 117 l 308 901 l 443 901 z "},"Љ":{"ha":1389,"x_min":22,"x_max":1326,"o":"m 158 901 l 849 901 l 849 513 l 983 513 q 1098 509 1051 513 q 1191 494 1144 506 q 1265 464 1238 483 q 1310 410 1293 444 q 1326 329 1326 376 l 1326 196 q 1008 0 1326 0 l 714 0 l 714 801 l 293 801 l 293 200 q 247 49 293 97 q 101 0 201 0 l 22 0 l 22 97 l 54 97 q 134 124 110 97 q 158 213 158 150 l 158 901 m 1194 201 l 1194 314 q 1152 398 1194 378 q 1001 418 1110 418 l 847 418 l 847 92 l 999 92 q 1059 94 1035 92 q 1119 106 1083 96 q 1175 140 1156 115 q 1194 201 1194 164 z "},"Њ":{"ha":1389,"x_min":117,"x_max":1326,"o":"m 714 901 l 849 901 l 849 513 l 983 513 q 1098 509 1051 513 q 1191 494 1144 506 q 1265 464 1238 483 q 1310 410 1293 444 q 1326 329 1326 376 l 1326 196 q 1008 0 1326 0 l 714 0 l 714 418 l 251 418 l 251 0 l 117 0 l 117 901 l 251 901 l 251 513 l 714 513 l 714 901 m 1194 201 l 1194 314 q 1152 398 1194 378 q 1001 418 1110 418 l 849 418 l 849 92 l 999 92 q 1059 94 1035 92 q 1119 106 1083 96 q 1175 140 1156 115 q 1194 201 1194 164 z "},"Ћ":{"ha":1042,"x_min":33,"x_max":933,"o":"m 933 0 l 804 0 l 804 339 q 800 381 804 364 q 783 415 796 397 q 738 441 769 432 q 660 450 707 450 q 512 427 549 450 q 475 350 475 404 l 475 0 l 339 0 l 339 807 l 33 807 l 33 901 l 779 901 l 779 807 l 475 807 l 475 451 q 696 540 506 540 q 882 492 831 540 q 933 347 933 444 l 933 0 z "},"Ќ":{"ha":833,"x_min":117,"x_max":856,"o":"m 253 0 l 117 0 l 117 901 l 253 901 l 253 511 q 331 524 306 511 q 382 579 356 538 l 506 772 q 598 881 563 860 q 732 901 633 901 l 794 901 l 794 807 l 724 807 q 662 784 689 807 q 603 708 635 761 l 515 564 q 463 495 489 518 q 399 463 438 472 q 603 281 450 450 l 856 0 l 683 0 l 435 281 q 320 394 356 371 q 253 418 285 418 l 253 0 m 554 1174 l 381 997 l 278 997 l 403 1174 l 554 1174 z "},"Ѝ":{"ha":1004,"x_min":118,"x_max":889,"o":"m 281 0 l 118 0 l 118 901 l 242 901 l 242 157 l 726 901 l 889 901 l 889 0 l 765 0 l 765 757 l 281 0 m 572 997 l 469 997 l 296 1174 l 447 1174 l 572 997 z "},"Ў":{"ha":746,"x_min":8,"x_max":738,"o":"m 738 901 l 417 160 q 326 30 381 74 q 175 -14 272 -14 q 58 0 122 -14 l 58 97 q 143 88 103 88 q 237 115 203 88 q 299 204 271 142 l 326 268 l 8 901 l 158 901 l 390 401 l 601 901 l 738 901 m 490 1045 q 469 1021 490 1045 q 372 997 447 997 q 254 1045 297 997 q 208 1174 211 1093 l 283 1174 q 372 1079 292 1079 q 461 1174 453 1079 l 536 1174 q 490 1045 533 1093 z "},"Џ":{"ha":982,"x_min":117,"x_max":865,"o":"m 560 -231 l 433 -231 l 433 0 l 117 0 l 117 901 l 251 901 l 251 93 l 731 93 l 731 901 l 865 901 l 865 0 l 560 0 l 560 -231 z "},"А":{"ha":906,"x_min":21,"x_max":885,"o":"m 885 0 l 744 0 l 642 274 l 256 274 l 154 0 l 21 0 l 379 901 l 535 901 l 885 0 m 608 367 l 456 774 l 443 774 l 290 367 l 608 367 z "},"Б":{"ha":792,"x_min":117,"x_max":729,"o":"m 729 329 l 729 196 q 411 0 729 0 l 117 0 l 117 901 l 611 901 l 611 806 l 251 806 l 251 513 l 386 513 q 501 509 454 513 q 594 494 547 506 q 668 464 640 483 q 713 410 696 444 q 729 329 729 376 m 597 201 l 597 314 q 552 397 597 374 q 404 421 507 421 l 250 421 l 250 92 l 401 92 q 462 94 438 92 q 522 106 486 96 q 578 140 558 115 q 597 201 597 164 z "},"В":{"ha":851,"x_min":117,"x_max":768,"o":"m 768 331 l 768 179 q 693 40 768 81 q 449 0 618 0 l 117 0 l 117 901 l 439 901 q 622 878 556 901 q 708 819 688 854 q 728 731 728 785 l 728 610 q 697 525 728 554 q 604 482 665 496 l 604 476 q 722 426 676 464 q 768 331 768 389 m 601 614 l 601 719 q 564 792 601 771 q 439 813 526 813 l 251 813 l 251 507 l 443 507 q 565 533 529 507 q 601 614 601 558 m 633 185 l 633 321 q 619 378 633 357 q 573 409 604 400 q 517 420 542 418 q 449 422 493 422 l 251 422 l 251 93 l 449 93 q 592 114 550 93 q 633 185 633 135 z "},"Г":{"ha":681,"x_min":117,"x_max":639,"o":"m 639 807 l 251 807 l 251 0 l 117 0 l 117 901 l 639 901 l 639 807 z "},"Д":{"ha":926,"x_min":28,"x_max":878,"o":"m 225 901 l 789 901 l 789 103 l 878 103 l 878 -231 l 761 -231 l 761 0 l 146 0 l 146 -231 l 28 -231 l 28 103 l 106 103 q 197 344 168 197 q 225 756 225 490 l 225 901 m 657 797 l 351 797 l 351 733 q 319 362 351 536 q 240 103 288 188 l 657 103 l 657 797 z "},"Е":{"ha":806,"x_min":117,"x_max":736,"o":"m 736 0 l 117 0 l 117 901 l 722 901 l 722 807 l 251 807 l 251 513 l 676 513 l 676 418 l 251 418 l 251 94 l 736 94 l 736 0 z "},"Ж":{"ha":1325,"x_min":-8,"x_max":1332,"o":"m 594 511 l 594 901 l 729 901 l 729 511 q 810 523 789 511 q 858 579 831 535 l 982 772 q 1074 881 1039 860 q 1208 901 1110 901 l 1271 901 l 1271 807 l 1200 807 q 1138 784 1165 807 q 1079 708 1111 761 l 992 564 q 940 495 965 518 q 875 463 914 472 q 1079 281 926 450 l 1332 0 l 1172 0 l 917 281 q 798 394 835 369 q 729 418 761 418 l 729 0 l 594 0 l 594 418 q 526 394 563 418 q 407 281 489 369 l 151 0 l -8 0 l 244 281 q 449 463 397 450 q 384 495 410 472 q 332 564 358 518 l 244 708 q 185 784 213 761 q 124 807 158 807 l 53 807 l 53 901 l 115 901 q 249 881 214 901 q 342 772 285 860 l 465 579 q 514 523 493 535 q 594 511 535 511 z "},"З":{"ha":806,"x_min":75,"x_max":694,"o":"m 694 360 l 694 179 q 673 92 694 129 q 621 35 651 56 q 543 3 590 15 q 456 -11 496 -8 q 365 -14 417 -14 q 75 13 225 -14 l 75 115 q 351 81 243 81 q 420 83 393 81 q 485 94 447 85 q 544 126 524 103 q 564 185 564 149 l 564 336 q 378 422 564 422 l 190 422 l 190 508 l 354 508 q 542 597 542 508 l 542 749 q 361 821 542 821 q 199 813 301 821 q 93 806 96 806 l 93 900 q 360 911 263 911 q 590 878 511 911 q 668 760 668 844 l 668 592 q 632 519 668 546 q 544 483 596 492 l 544 478 q 599 466 576 472 q 645 447 621 460 q 682 413 669 435 q 694 360 694 390 z "},"И":{"ha":1004,"x_min":118,"x_max":889,"o":"m 281 0 l 118 0 l 118 901 l 242 901 l 242 157 l 726 901 l 889 901 l 889 0 l 765 0 l 765 757 l 281 0 z "},"Й":{"ha":1007,"x_min":118,"x_max":889,"o":"m 281 0 l 118 0 l 118 901 l 242 901 l 242 157 l 726 901 l 889 901 l 889 0 l 765 0 l 765 757 l 281 0 m 683 1153 q 623 1026 678 1075 q 492 976 568 976 q 359 1026 414 976 q 300 1153 304 1075 l 419 1153 q 457 1079 439 1099 q 521 1060 475 1060 q 583 1081 560 1060 q 621 1153 606 1103 l 683 1153 z "},"К":{"ha":833,"x_min":117,"x_max":856,"o":"m 253 0 l 117 0 l 117 901 l 253 901 l 253 511 q 331 524 306 511 q 382 579 356 538 l 506 772 q 598 881 563 860 q 732 901 633 901 l 794 901 l 794 807 l 724 807 q 662 784 689 807 q 603 708 635 761 l 515 564 q 463 495 489 518 q 399 463 438 472 q 603 281 450 450 l 856 0 l 683 0 l 435 281 q 320 394 356 371 q 253 418 285 418 l 253 0 z "},"Л":{"ha":972,"x_min":6,"x_max":856,"o":"m 158 168 l 158 901 l 856 901 l 856 0 l 721 0 l 721 801 l 293 801 l 293 136 q 252 31 293 63 q 129 0 211 0 l 6 0 l 6 94 l 82 94 q 142 109 126 94 q 158 168 158 124 z "},"М":{"ha":1196,"x_min":117,"x_max":1079,"o":"m 1079 0 l 961 0 l 961 763 l 954 763 l 664 0 l 543 0 l 244 763 l 238 763 l 238 0 l 117 0 l 117 901 l 318 901 l 607 151 l 611 150 l 885 901 l 1079 901 l 1079 0 z "},"Н":{"ha":982,"x_min":117,"x_max":865,"o":"m 865 0 l 731 0 l 731 418 l 251 418 l 251 0 l 117 0 l 117 901 l 251 901 l 251 513 l 731 513 l 731 901 l 865 901 l 865 0 z "},"О":{"ha":943,"x_min":92,"x_max":851,"o":"m 851 658 l 851 231 q 816 106 851 157 q 719 30 781 54 q 599 -4 658 6 q 469 -14 539 -14 q 92 231 92 -14 l 92 657 q 469 915 92 915 q 851 658 851 915 m 721 232 l 721 661 q 471 828 721 828 q 378 822 418 828 q 300 798 338 815 q 242 747 263 781 q 221 661 221 713 l 221 232 q 472 76 221 76 q 721 232 721 76 z "},"П":{"ha":954,"x_min":117,"x_max":838,"o":"m 838 0 l 703 0 l 703 808 l 251 808 l 251 0 l 117 0 l 117 901 l 838 901 l 838 0 z "},"Р":{"ha":792,"x_min":117,"x_max":729,"o":"m 729 724 l 729 536 q 640 373 729 421 q 386 325 550 325 l 251 325 l 251 0 l 117 0 l 117 901 l 411 901 q 507 899 467 901 q 592 885 547 896 q 665 856 638 875 q 710 804 692 838 q 729 724 729 771 m 597 543 l 597 707 q 578 769 597 744 q 522 803 558 793 q 462 815 486 813 q 401 817 438 817 l 250 817 l 250 410 l 404 410 q 541 440 485 410 q 597 543 597 469 z "},"С":{"ha":783,"x_min":89,"x_max":721,"o":"m 721 13 q 468 -14 600 -14 q 89 231 89 -14 l 89 658 q 468 917 89 917 q 715 890 594 917 l 715 790 q 471 824 582 824 q 378 817 418 824 q 299 795 338 811 q 239 745 260 779 q 218 660 218 711 l 218 238 q 476 82 218 82 q 721 115 588 82 l 721 13 z "},"Т":{"ha":813,"x_min":33,"x_max":779,"o":"m 779 807 l 475 807 l 475 0 l 339 0 l 339 807 l 33 807 l 33 901 l 779 901 l 779 807 z "},"У":{"ha":746,"x_min":8,"x_max":738,"o":"m 738 901 l 417 160 q 326 30 381 74 q 175 -14 272 -14 q 58 0 122 -14 l 58 97 q 143 88 103 88 q 237 115 203 88 q 299 204 271 142 l 326 268 l 8 901 l 158 901 l 390 401 l 601 901 l 738 901 z "},"Ф":{"ha":999,"x_min":92,"x_max":907,"o":"m 569 0 l 435 0 l 435 85 q 270 106 343 85 q 144 183 197 126 q 92 328 92 240 l 92 560 q 190 755 92 694 q 435 815 289 815 l 435 901 l 569 901 l 569 815 q 693 802 636 815 q 800 760 750 789 q 878 681 850 732 q 907 561 907 631 l 907 328 q 854 186 907 243 q 729 108 801 129 q 569 86 657 86 l 569 0 m 226 564 l 226 329 q 283 214 226 251 q 435 176 340 176 l 435 728 q 226 564 226 728 m 771 329 l 771 564 q 714 687 771 646 q 569 728 657 728 l 569 176 q 715 215 660 176 q 771 329 771 253 z "},"Х":{"ha":839,"x_min":11,"x_max":828,"o":"m 828 0 l 674 0 l 419 367 l 165 0 l 11 0 l 343 460 l 25 901 l 179 901 l 419 553 l 660 901 l 814 901 l 496 460 l 828 0 z "},"Ц":{"ha":982,"x_min":117,"x_max":865,"o":"m 865 -231 l 739 -231 l 739 0 l 117 0 l 117 901 l 251 901 l 251 93 l 731 93 l 731 901 l 865 901 l 865 -231 z "},"Ч":{"ha":847,"x_min":96,"x_max":731,"o":"m 96 901 l 229 901 l 229 519 q 393 408 229 408 q 553 435 511 408 q 596 519 596 461 l 596 901 l 731 901 l 731 0 l 596 0 l 596 414 q 517 340 585 363 q 357 318 450 318 q 96 511 96 318 l 96 901 z "},"Ш":{"ha":1290,"x_min":117,"x_max":1174,"o":"m 1174 0 l 117 0 l 117 901 l 251 901 l 251 93 l 578 93 l 578 901 l 713 901 l 713 93 l 1039 93 l 1039 901 l 1174 901 l 1174 0 z "},"Щ":{"ha":1290,"x_min":117,"x_max":1174,"o":"m 1047 0 l 117 0 l 117 901 l 251 901 l 251 93 l 578 93 l 578 901 l 713 901 l 713 93 l 1039 93 l 1039 901 l 1174 901 l 1174 -231 l 1047 -231 l 1047 0 z "},"Ъ":{"ha":944,"x_min":13,"x_max":882,"o":"m 13 807 l 13 901 l 404 901 l 404 513 l 539 513 q 653 509 607 513 q 747 494 700 506 q 821 464 793 483 q 865 410 849 444 q 882 329 882 376 l 882 196 q 564 0 882 0 l 269 0 l 269 807 l 13 807 m 750 201 l 750 314 q 708 400 750 379 q 557 421 665 421 l 403 421 l 403 92 l 554 92 q 615 94 590 92 q 675 106 639 96 q 731 140 711 115 q 750 201 750 164 z "},"Ы":{"ha":1119,"x_min":117,"x_max":1003,"o":"m 1003 0 l 868 0 l 868 901 l 1003 901 l 1003 0 m 117 901 l 251 901 l 251 513 l 386 513 q 501 509 454 513 q 594 494 547 506 q 668 464 640 483 q 713 410 696 444 q 729 329 729 376 l 729 196 q 411 0 729 0 l 117 0 l 117 901 m 597 201 l 597 314 q 555 400 597 379 q 404 421 513 421 l 250 421 l 250 92 l 401 92 q 462 94 438 92 q 522 106 486 96 q 578 140 558 115 q 597 201 597 164 z "},"Ь":{"ha":792,"x_min":117,"x_max":729,"o":"m 117 901 l 251 901 l 251 513 l 386 513 q 501 509 454 513 q 594 494 547 506 q 668 464 640 483 q 713 410 696 444 q 729 329 729 376 l 729 196 q 411 0 729 0 l 117 0 l 117 901 m 597 201 l 597 314 q 555 400 597 379 q 404 421 513 421 l 250 421 l 250 92 l 401 92 q 462 94 438 92 q 522 106 486 96 q 578 140 558 115 q 597 201 597 164 z "},"Э":{"ha":782,"x_min":61,"x_max":693,"o":"m 61 13 l 61 115 q 306 82 194 82 q 564 238 564 82 l 564 418 l 106 418 l 106 511 l 564 511 l 564 660 q 543 745 564 711 q 483 795 522 779 q 404 817 444 811 q 311 824 364 824 q 67 790 200 824 l 67 890 q 314 917 188 917 q 693 658 693 917 l 693 231 q 314 -14 693 -14 q 61 13 182 -14 z "},"Ю":{"ha":1297,"x_min":117,"x_max":1206,"o":"m 251 0 l 117 0 l 117 901 l 251 901 l 251 501 l 446 501 l 446 657 q 824 915 446 915 q 1206 658 1206 915 l 1206 231 q 1170 106 1206 157 q 1074 30 1135 54 q 953 -4 1013 6 q 824 -14 893 -14 q 446 231 446 -14 l 446 415 l 251 415 l 251 0 m 1075 232 l 1075 661 q 825 828 1075 828 q 732 822 772 828 q 654 798 692 815 q 596 747 617 781 q 575 661 575 713 l 575 232 q 826 76 575 76 q 1075 232 1075 76 z "},"Я":{"ha":850,"x_min":44,"x_max":733,"o":"m 210 0 l 44 0 l 333 401 q 168 444 236 401 q 100 569 100 486 l 100 725 q 172 867 100 832 q 417 901 243 901 l 733 901 l 733 0 l 599 0 l 599 385 l 468 385 l 210 0 m 235 711 l 235 586 q 274 503 235 532 q 422 474 313 474 l 599 474 l 599 813 l 410 813 q 235 711 235 813 z "},"а":{"ha":747,"x_min":69,"x_max":639,"o":"m 639 0 l 518 0 l 518 64 q 315 -14 503 -14 q 123 28 176 -14 q 69 200 69 71 q 119 355 69 313 q 313 397 169 397 l 514 397 l 514 504 q 480 579 514 560 q 351 599 446 599 q 121 582 249 599 l 121 674 q 369 686 258 686 q 589 645 539 686 q 639 475 639 604 l 639 0 m 514 133 l 514 319 l 321 319 q 213 297 235 319 q 192 196 192 275 q 215 94 192 124 q 311 65 238 65 l 336 65 q 397 67 372 65 q 451 74 421 68 q 498 95 482 81 q 514 133 514 110 z "},"б":{"ha":806,"x_min":99,"x_max":707,"o":"m 707 217 q 683 93 707 142 q 613 22 660 44 q 518 -7 565 0 q 401 -14 471 -14 q 306 -10 344 -14 q 225 6 268 -7 q 157 44 182 19 q 115 112 132 68 q 99 217 99 156 l 99 732 q 119 844 99 797 q 171 916 140 890 q 251 956 201 942 q 340 973 300 969 q 436 976 381 976 q 664 964 521 976 l 664 869 q 418 888 517 888 q 266 860 310 888 q 222 735 222 833 l 222 628 q 328 669 260 653 q 451 686 397 686 q 647 632 586 686 q 707 472 707 578 l 707 217 m 583 210 l 583 471 q 551 565 583 539 q 422 592 518 592 q 308 572 367 592 q 222 517 249 551 l 222 210 q 262 94 222 119 q 404 68 301 68 q 545 93 507 68 q 583 210 583 118 z "},"в":{"ha":796,"x_min":117,"x_max":713,"o":"m 713 218 l 713 178 q 649 39 713 78 q 421 0 586 0 l 117 0 l 117 672 l 411 672 q 555 662 500 672 q 634 626 610 651 q 665 576 658 601 q 672 508 672 551 l 672 485 q 643 403 672 429 q 551 364 614 378 l 551 358 q 713 218 713 332 m 553 489 l 553 497 q 528 568 553 550 q 418 586 503 586 l 242 586 l 242 389 l 422 389 q 529 410 506 389 q 553 489 553 431 m 585 182 l 585 226 q 555 285 585 263 q 435 307 525 307 l 242 307 l 242 90 l 428 90 q 555 110 525 90 q 585 182 585 129 z "},"г":{"ha":583,"x_min":117,"x_max":542,"o":"m 542 581 l 242 581 l 242 0 l 117 0 l 117 672 l 542 672 l 542 581 z "},"д":{"ha":740,"x_min":22,"x_max":671,"o":"m 493 89 l 493 583 l 283 583 l 283 549 q 208 89 283 285 l 493 89 m 172 625 l 172 672 l 604 672 l 604 89 l 671 89 l 671 -186 l 564 -186 l 564 0 l 129 0 l 129 -186 l 22 -186 l 22 89 l 86 89 q 172 625 172 282 z "},"е":{"ha":743,"x_min":83,"x_max":661,"o":"m 661 308 l 210 308 l 210 207 q 260 106 210 136 q 414 76 311 76 q 635 110 504 76 l 635 14 q 375 -14 504 -14 q 165 35 246 -14 q 83 192 83 85 l 83 457 q 154 633 83 581 q 381 686 225 686 q 594 635 526 686 q 661 457 661 585 l 661 308 m 536 390 l 536 496 q 499 580 536 557 q 378 603 463 603 q 251 581 292 603 q 210 496 210 560 l 210 390 l 536 390 z "},"ж":{"ha":1011,"x_min":-19,"x_max":1031,"o":"m 449 379 l 449 672 l 564 672 l 564 379 q 623 388 608 379 q 658 431 638 397 l 749 576 q 816 657 789 642 q 918 672 843 672 l 986 672 l 986 601 l 932 601 q 843 528 886 601 l 776 419 q 690 344 740 357 q 843 208 729 335 l 1031 0 l 883 0 l 700 208 q 614 293 640 275 q 564 311 588 311 l 564 0 l 449 0 l 449 311 q 399 293 425 311 q 313 208 372 275 l 129 0 l -19 0 l 168 208 q 321 344 282 335 q 235 419 271 357 l 168 528 q 79 601 125 601 l 25 601 l 25 672 l 94 672 q 197 657 169 672 q 264 576 224 642 l 354 431 q 390 388 375 397 q 449 379 404 379 z "},"з":{"ha":696,"x_min":49,"x_max":613,"o":"m 613 242 l 613 172 q 592 86 613 122 q 544 31 572 50 q 469 1 515 13 q 387 -12 424 -10 q 297 -14 350 -14 q 49 10 193 -14 l 49 108 q 297 78 197 78 q 362 80 338 78 q 418 91 386 82 q 466 123 450 100 q 482 182 482 146 l 482 225 q 466 273 482 254 q 420 299 450 292 q 367 309 390 307 q 310 311 343 311 l 164 311 l 164 397 l 286 397 q 342 399 319 397 q 396 409 365 401 q 443 436 426 417 q 460 486 460 456 l 460 528 q 293 600 460 600 q 67 583 163 600 l 67 674 q 292 686 171 686 q 447 676 392 686 q 551 633 517 665 q 586 535 586 601 l 586 481 q 552 407 586 435 q 469 371 518 379 l 469 365 q 613 242 613 343 z "},"и":{"ha":831,"x_min":108,"x_max":722,"o":"m 271 0 l 108 0 l 108 672 l 226 672 l 226 129 l 560 672 l 722 672 l 722 0 l 604 0 l 604 556 l 271 0 z "},"й":{"ha":831,"x_min":108,"x_max":722,"o":"m 642 943 q 581 816 636 865 q 450 767 526 767 q 317 816 372 767 q 258 943 263 865 l 378 943 q 415 869 397 889 q 479 850 433 850 q 541 872 518 850 q 579 943 564 893 l 642 943 m 271 0 l 108 0 l 108 672 l 226 672 l 226 129 l 560 672 l 722 672 l 722 0 l 604 0 l 604 556 l 271 0 z "},"к":{"ha":697,"x_min":107,"x_max":719,"o":"m 107 0 l 107 672 l 232 672 l 232 382 q 306 396 281 382 q 363 458 332 410 l 431 568 q 510 652 469 632 q 628 672 551 672 l 675 672 l 675 601 l 649 601 q 532 528 578 601 l 479 442 q 379 344 431 357 q 532 208 418 335 l 719 0 l 565 0 l 382 208 q 308 276 342 254 q 264 300 275 299 q 232 301 253 301 l 232 0 l 107 0 z "},"л":{"ha":793,"x_min":0,"x_max":685,"o":"m 147 186 l 147 672 l 685 672 l 685 0 l 561 0 l 561 581 l 271 581 l 271 196 q 256 85 271 128 q 209 23 242 43 q 140 -3 176 3 q 44 -10 104 -10 q 0 -8 17 -10 l 0 69 q 118 92 89 69 q 147 186 147 115 z "},"м":{"ha":1029,"x_min":117,"x_max":913,"o":"m 913 0 l 797 0 l 797 558 l 790 558 l 583 0 l 457 0 l 242 558 l 235 558 l 235 0 l 117 0 l 117 672 l 318 672 l 522 125 l 528 125 l 718 672 l 913 672 l 913 0 z "},"н":{"ha":797,"x_min":108,"x_max":689,"o":"m 689 0 l 564 0 l 564 301 l 233 301 l 233 0 l 108 0 l 108 672 l 233 672 l 233 393 l 564 393 l 564 672 l 689 672 l 689 0 z "},"о":{"ha":789,"x_min":83,"x_max":703,"o":"m 703 446 l 703 213 q 688 107 703 150 q 649 40 672 64 q 581 4 625 17 q 498 -11 538 -8 q 393 -14 458 -14 q 263 -8 310 -14 q 170 19 217 -3 q 103 88 124 40 q 83 213 83 135 l 83 446 q 99 558 83 513 q 138 629 115 604 q 206 667 161 654 q 288 683 250 681 q 393 686 326 686 q 498 683 460 686 q 581 667 536 681 q 648 629 625 654 q 687 558 671 604 q 703 446 703 513 m 575 194 l 575 467 q 538 582 575 560 q 393 604 500 604 q 249 582 286 604 q 211 467 211 560 l 211 194 q 221 124 211 150 q 257 85 231 97 q 311 71 283 74 q 393 68 339 68 q 475 71 447 68 q 529 85 503 74 q 565 124 556 97 q 575 194 575 150 z "},"п":{"ha":801,"x_min":117,"x_max":685,"o":"m 685 0 l 560 0 l 560 581 l 242 581 l 242 0 l 117 0 l 117 672 l 685 672 l 685 0 z "},"р":{"ha":804,"x_min":108,"x_max":721,"o":"m 721 496 l 721 219 q 703 114 721 158 q 658 45 685 69 q 586 7 631 21 q 503 -10 542 -7 q 408 -14 464 -14 q 300 0 353 -14 q 233 43 247 14 l 233 -275 l 108 -275 l 108 672 l 233 672 l 233 600 q 463 686 249 686 q 659 630 597 686 q 721 496 721 574 m 593 204 l 593 451 q 553 570 593 544 q 410 596 513 596 q 266 570 306 596 q 226 451 226 544 l 226 204 q 267 95 226 119 q 411 71 308 71 q 553 95 514 71 q 593 204 593 119 z "},"с":{"ha":644,"x_min":83,"x_max":594,"o":"m 594 6 q 379 -14 503 -14 q 284 -12 318 -14 q 206 2 250 -10 q 140 36 163 14 q 100 101 117 58 q 83 206 83 143 l 83 453 q 94 549 83 508 q 126 614 104 589 q 172 654 149 639 q 237 676 196 669 q 309 684 278 682 q 393 686 340 686 q 585 665 489 686 l 585 574 q 378 601 476 601 q 241 579 271 601 q 211 471 211 557 l 211 193 q 246 97 211 119 q 392 74 281 74 q 594 100 490 74 l 594 6 z "},"т":{"ha":718,"x_min":33,"x_max":685,"o":"m 685 581 l 422 581 l 422 0 l 297 0 l 297 581 l 33 581 l 33 672 l 685 672 l 685 581 z "},"у":{"ha":639,"x_min":8,"x_max":631,"o":"m 631 672 l 297 -275 l 167 -275 l 268 -10 l 8 672 l 144 672 l 332 124 l 335 124 l 504 672 l 631 672 z "},"ф":{"ha":1263,"x_min":83,"x_max":1179,"o":"m 694 -275 l 569 -275 l 569 17 q 393 -14 478 -14 q 263 -8 310 -14 q 170 19 217 -3 q 103 88 124 40 q 83 213 83 135 l 83 446 q 99 558 83 513 q 138 629 115 604 q 206 667 161 654 q 288 683 250 681 q 393 686 326 686 q 569 654 482 686 l 569 963 l 694 963 l 694 654 q 869 686 788 686 q 974 683 936 686 q 1057 667 1013 681 q 1124 629 1101 654 q 1163 558 1147 604 q 1179 446 1179 513 l 1179 213 q 1164 107 1179 150 q 1125 40 1149 64 q 1058 4 1101 17 q 974 -11 1014 -8 q 869 -14 935 -14 q 694 17 792 -14 l 694 -275 m 393 68 q 569 168 569 68 l 569 500 q 393 604 569 604 q 249 582 286 604 q 211 467 211 560 l 211 194 q 221 124 211 150 q 257 85 231 97 q 311 71 283 74 q 393 68 339 68 m 1051 194 l 1051 467 q 1014 582 1051 560 q 869 604 976 604 q 694 506 694 604 l 694 163 q 742 92 694 115 q 869 68 790 68 q 951 71 924 68 q 1006 85 979 74 q 1042 124 1032 97 q 1051 194 1051 150 z "},"х":{"ha":721,"x_min":14,"x_max":707,"o":"m 707 0 l 556 0 l 360 265 l 165 0 l 14 0 l 278 346 l 28 672 l 179 672 l 360 426 l 542 672 l 693 672 l 429 346 l 707 0 z "},"ц":{"ha":815,"x_min":117,"x_max":699,"o":"m 699 -186 l 578 -186 l 578 0 l 117 0 l 117 672 l 242 672 l 242 92 l 574 92 l 574 672 l 699 672 l 699 -186 z "},"ч":{"ha":796,"x_min":108,"x_max":688,"o":"m 688 0 l 565 0 l 565 308 q 342 213 546 213 q 158 260 208 213 q 108 406 108 308 l 108 672 l 233 672 l 233 413 q 238 371 233 388 q 255 337 242 354 q 299 310 268 319 q 378 301 331 301 q 525 325 488 301 q 563 413 563 349 l 563 672 l 688 672 l 688 0 z "},"ш":{"ha":1135,"x_min":117,"x_max":1018,"o":"m 1018 0 l 117 0 l 117 672 l 242 672 l 242 92 l 504 92 l 504 672 l 631 672 l 631 92 l 893 92 l 893 672 l 1018 672 l 1018 0 z "},"щ":{"ha":1135,"x_min":117,"x_max":1018,"o":"m 897 0 l 117 0 l 117 672 l 242 672 l 242 92 l 504 92 l 504 672 l 631 672 l 631 92 l 893 92 l 893 672 l 1018 672 l 1018 -186 l 897 -186 l 897 0 z "},"ъ":{"ha":893,"x_min":33,"x_max":832,"o":"m 586 0 l 283 0 l 283 581 l 33 581 l 33 672 l 411 672 l 411 429 l 597 429 q 776 400 721 429 q 832 285 832 371 l 832 146 q 586 0 832 0 m 710 163 l 710 247 q 685 326 710 306 q 581 346 661 346 l 410 346 l 410 81 l 578 81 q 620 83 603 81 q 661 91 638 85 q 697 116 685 97 q 710 163 710 135 z "},"ы":{"ha":1007,"x_min":117,"x_max":897,"o":"m 897 0 l 772 0 l 772 672 l 897 672 l 897 0 m 419 0 l 117 0 l 117 672 l 244 672 l 244 429 l 431 429 q 610 400 554 429 q 665 285 665 371 l 665 146 q 419 0 665 0 m 543 163 l 543 247 q 519 326 543 306 q 414 346 494 346 l 243 346 l 243 81 l 411 81 q 453 83 436 81 q 494 91 471 85 q 531 116 518 97 q 543 163 543 135 z "},"ь":{"ha":740,"x_min":117,"x_max":679,"o":"m 433 0 l 117 0 l 117 672 l 244 672 l 244 429 l 444 429 q 624 400 568 429 q 679 285 679 371 l 679 146 q 433 0 679 0 m 557 163 l 557 247 q 533 326 557 306 q 428 346 508 346 l 243 346 l 243 81 l 425 81 q 467 83 450 81 q 508 91 485 85 q 544 116 532 97 q 557 163 557 135 z "},"э":{"ha":644,"x_min":50,"x_max":561,"o":"m 50 6 l 50 100 q 253 74 154 74 q 399 97 364 74 q 433 193 433 119 l 433 294 l 94 294 l 94 389 l 433 389 l 433 471 q 403 579 433 557 q 267 601 374 601 q 60 574 168 601 l 60 665 q 251 686 156 686 q 335 684 304 686 q 408 676 367 682 q 472 654 449 669 q 518 614 496 639 q 551 549 540 589 q 561 453 561 508 l 561 206 q 544 101 561 143 q 505 36 528 58 q 438 2 482 14 q 360 -12 394 -10 q 265 -14 326 -14 q 50 6 142 -14 z "},"ю":{"ha":1122,"x_min":117,"x_max":1036,"o":"m 242 0 l 117 0 l 117 672 l 242 672 l 242 369 l 417 369 l 417 446 q 433 558 417 513 q 472 629 449 604 q 539 667 494 654 q 622 683 583 681 q 726 686 660 686 q 831 683 793 686 q 914 667 869 681 q 981 629 958 654 q 1020 558 1004 604 q 1036 446 1036 513 l 1036 213 q 1021 107 1036 150 q 982 40 1006 64 q 915 4 958 17 q 831 -11 871 -8 q 726 -14 792 -14 q 597 -8 643 -14 q 503 19 550 -3 q 437 88 457 40 q 417 213 417 135 l 417 293 l 242 293 l 242 0 m 908 194 l 908 467 q 871 582 908 560 q 726 604 833 604 q 582 582 619 604 q 544 467 544 560 l 544 194 q 554 124 544 150 q 590 85 564 97 q 644 71 617 74 q 726 68 672 68 q 808 71 781 68 q 863 85 836 74 q 899 124 889 97 q 908 194 908 150 z "},"я":{"ha":778,"x_min":28,"x_max":661,"o":"m 193 0 l 28 0 l 289 286 q 83 426 83 286 l 83 499 q 131 638 83 604 q 317 672 178 672 l 661 672 l 661 0 l 536 0 l 536 269 l 424 269 l 193 0 m 210 488 l 210 468 q 228 375 210 394 q 300 356 247 356 l 536 356 l 536 586 l 329 586 q 232 566 254 586 q 210 488 210 546 z "},"ѐ":{"ha":743,"x_min":83,"x_max":661,"o":"m 661 308 l 210 308 l 210 207 q 260 106 210 136 q 414 76 311 76 q 635 110 504 76 l 635 14 q 375 -14 504 -14 q 165 35 246 -14 q 83 192 83 85 l 83 457 q 154 633 83 581 q 381 686 225 686 q 594 635 526 686 q 661 457 661 585 l 661 308 m 536 390 l 536 496 q 499 580 536 557 q 378 603 463 603 q 251 581 292 603 q 210 496 210 560 l 210 390 l 536 390 m 446 768 l 343 768 l 169 944 l 321 944 l 446 768 z "},"ё":{"ha":743,"x_min":83,"x_max":661,"o":"m 661 308 l 210 308 l 210 207 q 260 106 210 136 q 414 76 311 76 q 635 110 504 76 l 635 14 q 375 -14 504 -14 q 165 35 246 -14 q 83 192 83 85 l 83 457 q 154 633 83 581 q 381 686 225 686 q 594 635 526 686 q 661 457 661 585 l 661 308 m 536 390 l 536 496 q 499 580 536 557 q 378 603 463 603 q 251 581 292 603 q 210 496 210 560 l 210 390 l 536 390 m 336 785 l 211 785 l 211 915 l 336 915 l 336 785 m 572 785 l 447 785 l 447 915 l 572 915 l 572 785 z "},"ђ":{"ha":796,"x_min":26,"x_max":692,"o":"m 231 768 l 233 581 q 454 669 264 669 q 641 617 590 669 q 692 449 692 565 q 640 106 692 307 q 522 -264 588 -96 l 386 -264 q 510 99 454 -100 q 567 440 567 299 q 538 546 567 513 q 418 579 510 579 q 270 556 307 579 q 233 479 233 533 l 233 0 l 108 0 l 108 768 l 26 768 l 26 840 l 108 840 l 108 963 l 231 963 l 231 840 l 386 840 l 386 768 l 231 768 z "},"ѓ":{"ha":583,"x_min":117,"x_max":542,"o":"m 542 581 l 242 581 l 242 0 l 117 0 l 117 672 l 542 672 l 542 581 m 539 944 l 365 768 l 263 768 l 388 944 l 539 944 z "},"є":{"ha":644,"x_min":83,"x_max":594,"o":"m 594 6 q 379 -14 503 -14 q 284 -12 318 -14 q 206 2 250 -10 q 140 36 163 14 q 100 101 117 58 q 83 206 83 143 l 83 453 q 94 549 83 508 q 126 614 104 589 q 172 654 149 639 q 237 676 196 669 q 309 684 278 682 q 393 686 340 686 q 585 665 489 686 l 585 574 q 378 601 476 601 q 241 579 271 601 q 211 471 211 557 l 211 389 l 550 389 l 550 294 l 211 294 l 211 193 q 246 97 211 119 q 392 74 281 74 q 594 100 490 74 l 594 6 z "},"ѕ":{"ha":671,"x_min":69,"x_max":607,"o":"m 607 236 l 607 178 q 531 28 607 69 q 314 -14 456 -14 q 83 3 206 -14 l 83 99 q 317 72 250 72 q 442 88 400 72 q 483 154 483 104 l 483 222 q 454 283 483 265 q 360 301 425 301 l 283 301 q 124 345 178 301 q 69 465 69 389 l 69 528 q 369 686 69 686 q 574 675 403 686 l 574 585 q 364 604 454 604 q 228 585 264 604 q 193 519 193 565 l 193 463 q 317 394 193 394 l 394 394 q 607 236 607 394 z "},"і":{"ha":344,"x_min":110,"x_max":235,"o":"m 235 0 l 110 0 l 110 672 l 235 672 l 235 0 m 235 789 l 110 789 l 110 925 l 235 925 l 235 789 z "},"ї":{"ha":343,"x_min":-93,"x_max":435,"o":"m 32 789 l -93 789 l -93 919 l 32 919 l 32 789 m 435 789 l 310 789 l 310 919 l 435 919 l 435 789 m 203 768 l 133 768 l 93 1004 l 243 1004 l 203 768 m 235 0 l 110 0 l 110 672 l 235 672 l 235 0 z "},"ј":{"ha":340,"x_min":-60,"x_max":235,"o":"m 235 785 l 110 785 l 110 915 l 235 915 l 235 785 m 235 672 l 235 -101 q 181 -261 235 -217 q 11 -306 126 -306 q -60 -300 -24 -306 l -60 -218 q -7 -224 -26 -224 q 81 -201 51 -224 q 110 -111 110 -178 l 110 672 l 235 672 z "},"љ":{"ha":1175,"x_min":4,"x_max":1114,"o":"m 276 592 l 276 197 q 262 86 276 129 q 214 23 247 43 q 144 -3 181 3 q 49 -10 108 -10 q 4 -8 21 -10 l 4 69 q 122 92 93 69 q 151 186 151 115 l 151 672 l 693 672 l 693 429 l 879 429 q 1058 400 1003 429 q 1114 285 1114 371 l 1114 146 q 868 0 1114 0 l 565 0 l 565 592 l 276 592 m 992 163 l 992 247 q 967 326 992 306 q 863 346 943 346 l 692 346 l 692 81 l 860 81 q 902 83 885 81 q 943 91 919 85 q 979 116 967 97 q 992 163 992 135 z "},"њ":{"ha":1161,"x_min":117,"x_max":1100,"o":"m 854 0 l 551 0 l 551 346 l 242 346 l 242 0 l 117 0 l 117 672 l 242 672 l 242 429 l 551 429 l 551 672 l 679 672 l 679 429 l 865 429 q 1044 400 989 429 q 1100 285 1100 371 l 1100 146 q 854 0 1100 0 m 978 163 l 978 247 q 953 326 978 306 q 849 346 929 346 l 678 346 l 678 81 l 846 81 q 888 83 871 81 q 929 91 906 85 q 965 116 953 97 q 978 163 978 135 z "},"ћ":{"ha":796,"x_min":26,"x_max":688,"o":"m 26 768 l 26 840 l 108 840 l 108 972 l 233 972 l 233 840 l 386 840 l 386 768 l 233 768 l 233 590 q 454 686 253 686 q 638 638 588 686 q 688 493 688 590 l 688 0 l 563 0 l 563 485 q 558 526 563 510 q 541 560 554 543 q 497 587 528 578 q 418 596 465 596 q 268 571 303 596 q 233 485 233 546 l 233 0 l 108 0 l 108 768 l 26 768 z "},"ќ":{"ha":697,"x_min":107,"x_max":719,"o":"m 107 0 l 107 672 l 232 672 l 232 382 q 306 396 281 382 q 363 458 332 410 l 431 568 q 510 652 469 632 q 628 672 551 672 l 675 672 l 675 601 l 649 601 q 532 528 578 601 l 479 442 q 379 344 431 357 q 532 208 418 335 l 719 0 l 565 0 l 382 208 q 308 276 342 254 q 264 300 275 299 q 232 301 253 301 l 232 0 l 107 0 m 568 972 l 394 796 l 292 796 l 417 972 l 568 972 z "},"ѝ":{"ha":831,"x_min":108,"x_max":722,"o":"m 271 0 l 108 0 l 108 672 l 226 672 l 226 129 l 560 672 l 722 672 l 722 0 l 604 0 l 604 556 l 271 0 m 560 768 l 457 768 l 283 944 l 435 944 l 560 768 z "},"ў":{"ha":639,"x_min":8,"x_max":631,"o":"m 631 672 l 296 -278 l 167 -278 l 268 -10 l 8 672 l 144 672 l 332 124 l 504 672 l 631 672 m 544 944 q 485 817 539 867 q 356 768 432 768 q 222 818 278 768 q 161 944 165 868 l 281 944 q 315 873 292 894 q 386 851 338 851 q 482 944 463 851 l 544 944 z "},"џ":{"ha":857,"x_min":117,"x_max":740,"o":"m 615 672 l 740 672 l 740 0 l 492 0 l 492 -186 l 371 -186 l 371 0 l 117 0 l 117 672 l 242 672 l 242 92 l 615 92 l 615 672 z "},"Ѣ":{"ha":944,"x_min":33,"x_max":882,"o":"m 640 696 l 406 696 l 406 549 l 567 549 q 882 368 882 549 l 882 208 q 856 108 882 150 q 783 43 829 65 q 683 10 736 21 q 564 0 629 0 l 269 0 l 269 696 l 33 696 l 33 790 l 269 790 l 269 901 l 407 901 l 407 790 l 640 790 l 640 696 m 746 194 l 746 331 q 706 434 746 404 q 557 464 665 464 l 406 464 l 406 85 l 554 85 q 614 87 590 85 q 673 99 638 89 q 727 133 708 108 q 746 194 746 157 z "},"ѣ":{"ha":897,"x_min":33,"x_max":836,"o":"m 33 581 l 33 672 l 274 672 l 274 972 l 401 972 l 401 672 l 667 672 l 667 581 l 401 581 l 401 429 l 601 429 q 781 400 725 429 q 836 285 836 371 l 836 146 q 590 0 836 0 l 274 0 l 274 581 l 33 581 m 714 163 l 714 247 q 690 326 714 306 q 585 346 665 346 l 400 346 l 400 81 l 582 81 q 624 83 607 81 q 665 91 642 85 q 701 116 689 97 q 714 163 714 135 z "},"Ѳ":{"ha":943,"x_min":92,"x_max":851,"o":"m 851 658 l 851 231 q 816 106 851 157 q 719 30 781 54 q 599 -4 658 6 q 469 -14 539 -14 q 92 231 92 -14 l 92 657 q 469 915 92 915 q 851 658 851 915 m 613 469 q 721 511 678 469 l 721 661 q 471 828 721 828 q 378 822 418 828 q 300 798 338 815 q 242 747 263 781 q 221 661 221 713 l 221 488 q 357 529 283 529 q 480 499 376 529 q 613 469 583 469 m 721 232 l 721 407 q 613 367 676 367 q 478 397 582 367 q 357 428 375 428 q 221 385 283 428 l 221 232 q 472 76 221 76 q 721 232 721 76 z "},"ѳ":{"ha":789,"x_min":83,"x_max":703,"o":"m 703 446 l 703 213 q 688 107 703 150 q 649 40 672 64 q 581 4 625 17 q 498 -11 538 -8 q 393 -14 458 -14 q 263 -8 310 -14 q 170 19 217 -3 q 103 88 124 40 q 83 213 83 135 l 83 446 q 99 558 83 513 q 138 629 115 604 q 206 667 161 654 q 288 683 250 681 q 393 686 326 686 q 498 683 460 686 q 581 667 536 681 q 648 629 625 654 q 687 558 671 604 q 703 446 703 513 m 575 194 l 575 301 q 496 272 542 272 q 406 294 476 272 q 310 317 336 317 q 211 286 257 317 l 211 194 q 221 124 211 150 q 257 85 231 97 q 311 71 283 74 q 393 68 339 68 q 475 71 447 68 q 529 85 503 74 q 565 124 556 97 q 575 194 575 150 m 211 467 l 211 375 q 310 404 256 404 q 403 383 338 404 q 496 361 469 361 q 575 392 544 361 l 575 467 q 538 582 575 560 q 393 604 500 604 q 249 582 286 604 q 211 467 211 560 z "},"Ѵ":{"ha":1000,"x_min":6,"x_max":1000,"o":"m 1000 839 l 946 758 q 843 803 881 803 q 764 733 792 803 l 478 0 l 356 0 l 6 901 l 153 901 l 388 246 q 422 143 417 164 q 457 246 426 158 l 660 790 q 817 917 707 917 q 1000 839 890 917 z "},"ѵ":{"ha":807,"x_min":18,"x_max":810,"o":"m 810 617 l 756 531 q 639 572 683 572 q 569 500 596 572 l 381 0 l 274 0 l 18 672 l 138 672 l 283 269 q 325 135 304 210 q 368 263 344 193 l 472 549 q 528 647 497 617 q 631 686 567 686 q 810 617 699 686 z "},"Ҋ":{"ha":1004,"x_min":118,"x_max":889,"o":"m 281 0 l 118 0 l 118 901 l 242 901 l 242 157 l 726 901 l 889 901 l 889 0 l 765 0 l 765 757 l 281 0 m 683 1153 q 623 1026 678 1075 q 492 976 568 976 q 359 1026 414 976 q 300 1153 304 1075 l 419 1153 q 457 1079 439 1099 q 521 1060 475 1060 q 583 1081 560 1060 q 621 1153 606 1103 l 683 1153 z "},"ҋ":{"ha":844,"x_min":108,"x_max":736,"o":"m 271 0 l 108 0 l 108 672 l 226 672 l 226 129 l 574 672 l 736 672 l 736 0 l 618 0 l 618 556 l 271 0 m 632 943 q 572 816 626 865 q 440 767 517 767 q 308 816 363 767 q 249 943 253 865 l 368 943 q 406 869 388 889 q 469 850 424 850 q 531 872 508 850 q 569 943 554 893 l 632 943 z "},"Ҍ":{"ha":792,"x_min":29,"x_max":729,"o":"m 29 710 l 29 797 l 117 797 l 117 901 l 251 901 l 251 797 l 371 797 l 371 710 l 251 710 l 251 513 l 386 513 q 501 509 454 513 q 594 494 547 506 q 668 464 640 483 q 713 410 696 444 q 729 329 729 376 l 729 196 q 411 0 729 0 l 117 0 l 117 710 l 29 710 m 597 201 l 597 314 q 552 397 597 374 q 404 421 507 421 l 250 421 l 250 92 l 401 92 q 462 94 438 92 q 522 106 486 96 q 578 140 558 115 q 597 201 597 164 z "},"ҍ":{"ha":740,"x_min":29,"x_max":679,"o":"m 29 710 l 29 797 l 117 797 l 117 901 l 244 901 l 244 797 l 371 797 l 371 710 l 244 710 l 244 429 l 444 429 q 624 400 568 429 q 679 285 679 371 l 679 146 q 433 0 679 0 l 117 0 l 117 710 l 29 710 m 557 163 l 557 247 q 533 326 557 306 q 428 346 508 346 l 243 346 l 243 81 l 425 81 q 467 83 450 81 q 508 91 485 85 q 544 116 532 97 q 557 163 557 135 z "},"Ҏ":{"ha":792,"x_min":117,"x_max":729,"o":"m 663 251 l 568 344 q 386 325 496 325 l 251 325 l 251 0 l 117 0 l 117 901 l 411 901 q 507 899 467 901 q 592 885 547 896 q 665 856 638 875 q 710 804 692 838 q 729 724 729 771 l 729 536 q 657 385 729 435 l 726 315 l 663 251 m 597 543 l 597 707 q 578 769 597 744 q 522 803 558 793 q 462 815 486 813 q 401 817 438 817 l 250 817 l 250 410 l 404 410 q 493 419 453 410 l 417 496 l 482 561 l 574 468 q 597 543 597 501 z "},"ҏ":{"ha":804,"x_min":108,"x_max":731,"o":"m 667 -93 l 571 3 q 408 -14 506 -14 q 300 0 353 -14 q 233 43 247 14 l 233 -258 l 108 -258 l 108 672 l 232 672 l 232 600 l 233 600 q 463 686 249 686 q 659 630 597 686 q 721 496 721 574 l 721 219 q 656 46 721 103 l 731 -29 l 667 -93 m 593 204 l 593 451 q 553 570 593 544 q 410 596 513 596 q 266 570 306 596 q 226 451 226 544 l 226 204 q 267 95 226 119 q 411 71 308 71 q 497 75 460 71 l 421 151 l 486 217 l 578 124 q 593 204 593 154 z "},"Ґ":{"ha":778,"x_min":117,"x_max":736,"o":"m 736 807 l 251 807 l 251 0 l 117 0 l 117 901 l 629 901 l 629 1058 l 736 1058 l 736 807 z "},"ґ":{"ha":611,"x_min":117,"x_max":569,"o":"m 569 581 l 242 581 l 242 0 l 117 0 l 117 672 l 472 672 l 472 800 l 569 800 l 569 581 z "},"Ғ":{"ha":778,"x_min":14,"x_max":736,"o":"m 14 418 l 14 513 l 117 513 l 117 901 l 736 901 l 736 807 l 251 807 l 251 513 l 589 513 l 589 418 l 251 418 l 251 0 l 117 0 l 117 418 l 14 418 z "},"ғ":{"ha":625,"x_min":32,"x_max":583,"o":"m 32 367 l 117 367 l 117 672 l 583 672 l 583 581 l 242 581 l 242 367 l 431 367 l 431 275 l 242 275 l 242 0 l 117 0 l 117 275 l 32 275 l 32 367 z "},"Ҕ":{"ha":931,"x_min":117,"x_max":817,"o":"m 817 201 q 719 -141 817 -18 q 443 -264 621 -264 q 237 -212 331 -264 q 131 -85 143 -160 l 250 -85 q 317 -140 261 -117 q 439 -162 372 -162 q 630 -69 561 -162 q 699 189 699 24 q 643 426 699 344 q 478 508 588 508 q 250 451 383 508 l 250 0 l 117 0 l 117 901 l 693 901 l 693 807 l 250 807 l 250 539 q 494 599 379 599 q 733 494 649 599 q 817 201 817 390 z "},"ҕ":{"ha":763,"x_min":92,"x_max":682,"o":"m 682 61 q 597 -174 682 -85 q 376 -264 511 -264 q 190 -216 265 -264 q 104 -89 114 -168 l 218 -89 q 376 -182 246 -182 q 510 -115 460 -182 q 560 51 560 -49 q 503 211 560 151 q 350 271 447 271 q 218 253 294 271 l 218 0 l 92 0 l 92 672 l 626 672 l 626 593 l 218 593 l 218 340 q 365 363 289 363 q 592 276 503 363 q 682 61 682 190 z "},"Җ":{"ha":1325,"x_min":-8,"x_max":1351,"o":"m 1351 -250 l 1240 -250 l 1240 0 l 1172 0 l 917 281 q 798 394 835 369 q 729 418 761 418 l 729 0 l 594 0 l 594 418 q 526 394 563 418 q 407 281 489 369 l 151 0 l -8 0 l 244 281 q 449 463 397 450 q 384 495 410 472 q 332 564 358 518 l 244 708 q 185 784 213 761 q 124 807 158 807 l 53 807 l 53 901 l 115 901 q 249 881 214 901 q 342 772 285 860 l 465 579 q 514 523 493 535 q 594 511 535 511 l 594 901 l 729 901 l 729 511 q 810 523 789 511 q 858 579 831 535 l 982 772 q 1074 881 1039 860 q 1208 901 1110 901 l 1271 901 l 1271 807 l 1200 807 q 1138 784 1165 807 q 1079 708 1111 761 l 992 564 q 940 495 965 518 q 875 463 914 472 q 1079 281 926 450 l 1247 93 l 1351 93 l 1351 -250 z "},"җ":{"ha":1031,"x_min":-19,"x_max":1053,"o":"m 1053 -250 l 942 -250 l 942 0 l 886 0 l 703 208 q 633 278 661 254 q 593 307 606 303 q 564 311 581 311 l 564 0 l 449 0 l 449 311 q 419 307 432 311 q 379 278 407 303 q 310 208 351 254 l 126 0 l -19 0 l 168 208 q 321 344 282 335 q 235 419 271 357 l 168 528 q 79 601 125 601 l 25 601 l 25 672 l 92 672 q 194 657 167 672 q 261 576 221 642 l 351 431 q 388 388 372 397 q 449 379 404 379 l 449 672 l 564 672 l 564 379 q 624 388 608 379 q 661 431 640 397 l 751 576 q 819 657 792 642 q 921 672 846 672 l 986 672 l 986 601 l 932 601 q 843 528 886 601 l 776 419 q 690 344 740 357 q 843 208 729 335 l 946 93 l 1053 93 l 1053 -250 z "},"Ҙ":{"ha":806,"x_min":107,"x_max":699,"o":"m 699 346 l 699 179 q 678 87 699 125 q 617 28 657 49 q 537 -1 578 8 q 442 -12 496 -10 q 456 -117 456 -82 q 416 -224 456 -183 q 310 -264 376 -264 q 164 -224 242 -264 l 164 -144 q 276 -175 224 -175 q 346 -147 319 -175 q 372 -74 372 -118 q 364 -14 372 -44 q 107 13 247 -12 l 107 113 q 369 78 275 78 q 436 80 411 78 q 497 91 461 82 q 550 123 532 100 q 568 182 568 146 l 568 322 q 552 370 568 351 q 506 397 536 389 q 453 406 476 404 q 396 408 429 408 l 222 408 l 222 494 l 372 494 q 428 497 406 494 q 482 506 451 499 q 529 533 513 514 q 546 583 546 553 l 546 722 q 379 794 546 794 q 228 787 319 794 q 125 779 136 779 l 125 869 q 378 881 294 881 q 599 847 526 881 q 672 729 672 814 l 672 578 q 636 505 672 532 q 549 469 600 478 l 549 464 q 603 452 581 458 q 649 433 625 446 q 686 399 674 421 q 699 346 699 376 z "},"ҙ":{"ha":690,"x_min":83,"x_max":647,"o":"m 647 242 l 647 172 q 628 85 647 121 q 574 29 610 49 q 501 1 539 10 q 413 -11 463 -8 q 428 -117 428 -79 q 388 -224 428 -183 q 282 -264 349 -264 q 136 -224 214 -264 l 136 -144 q 249 -175 196 -175 q 318 -147 292 -175 q 344 -74 344 -118 q 336 -14 344 -44 l 332 -14 q 83 10 239 -14 l 83 108 q 331 78 232 78 q 395 80 371 78 q 452 91 419 82 q 501 123 485 100 q 517 182 517 146 l 517 225 q 501 273 517 254 q 455 299 485 292 q 401 309 425 307 q 344 311 378 311 l 199 311 l 199 397 l 321 397 q 377 399 354 397 q 431 409 400 401 q 478 436 461 417 q 494 486 494 456 l 494 528 q 328 600 494 600 l 306 600 q 101 583 197 600 l 101 674 q 326 686 206 686 q 482 676 426 686 q 586 633 551 665 q 621 535 621 601 l 621 481 q 583 407 621 435 q 494 371 546 379 l 494 368 q 647 242 647 344 z "},"Қ":{"ha":849,"x_min":118,"x_max":882,"o":"m 882 -250 l 771 -250 l 771 0 l 696 0 l 440 281 q 322 394 358 369 q 253 418 285 418 l 253 0 l 118 0 l 118 901 l 253 901 l 253 511 q 339 536 310 511 q 422 642 368 561 l 507 769 q 606 878 564 856 q 746 901 647 901 l 794 901 l 794 807 l 738 807 q 603 708 663 807 l 542 607 q 472 519 514 560 q 393 469 431 479 q 603 281 443 457 l 771 93 l 882 93 l 882 -250 z "},"қ":{"ha":699,"x_min":117,"x_max":719,"o":"m 719 -250 l 614 -250 l 614 0 l 554 0 l 371 208 q 301 278 329 254 q 261 307 274 303 q 232 311 249 311 l 232 0 l 117 0 l 117 672 l 232 672 l 232 379 q 302 394 278 379 q 357 458 326 408 l 425 568 q 503 652 465 632 q 617 672 540 672 l 654 672 l 654 601 l 628 601 q 511 528 557 601 l 458 442 q 358 344 410 357 q 511 208 397 335 l 614 93 l 719 93 l 719 -250 z "},"Ҝ":{"ha":849,"x_min":118,"x_max":856,"o":"m 339 107 l 339 381 q 253 418 293 418 l 253 0 l 118 0 l 118 901 l 253 901 l 253 511 q 339 536 306 511 l 339 783 l 404 783 l 404 614 l 507 769 q 605 878 564 856 q 746 901 646 901 l 794 901 l 794 807 l 738 807 q 603 708 663 807 l 542 607 q 404 474 476 501 l 404 465 q 603 281 457 442 l 856 0 l 696 0 l 404 318 l 404 107 l 339 107 z "},"ҝ":{"ha":699,"x_min":117,"x_max":699,"o":"m 290 79 l 290 288 q 232 311 261 311 l 232 0 l 117 0 l 117 672 l 232 672 l 232 379 q 290 388 271 379 l 290 617 l 356 617 l 356 456 l 425 568 q 503 652 465 632 q 617 672 540 672 l 654 672 l 654 601 l 628 601 q 511 528 557 601 l 458 442 q 358 344 410 357 q 511 208 397 335 l 699 0 l 554 0 l 371 208 l 356 225 l 356 79 l 290 79 z "},"Ҟ":{"ha":849,"x_min":-14,"x_max":856,"o":"m 118 901 l 253 901 l 253 807 l 385 807 l 385 735 l 253 735 l 253 511 q 339 536 310 511 q 422 642 368 561 l 507 769 q 606 878 564 856 q 746 901 647 901 l 794 901 l 794 807 l 738 807 q 603 708 663 807 l 542 607 q 472 519 514 560 q 393 469 431 479 q 603 281 443 457 l 856 0 l 696 0 l 440 281 q 322 394 358 369 q 253 418 285 418 l 253 0 l 118 0 l 118 735 l -14 735 l -14 807 l 118 807 l 118 901 z "},"ҟ":{"ha":699,"x_min":28,"x_max":699,"o":"m 117 0 l 117 500 l 28 500 l 28 572 l 117 572 l 117 672 l 232 672 l 232 572 l 329 572 l 329 500 l 232 500 l 232 379 q 302 394 278 379 q 357 458 326 408 l 425 568 q 503 652 465 632 q 617 672 540 672 l 654 672 l 654 601 l 628 601 q 511 528 557 601 l 458 442 q 358 344 410 357 q 511 208 397 335 l 699 0 l 554 0 l 371 208 q 301 278 329 254 q 261 307 274 303 q 232 311 249 311 l 232 0 l 117 0 z "},"Ҡ":{"ha":1071,"x_min":33,"x_max":1078,"o":"m 475 0 l 339 0 l 339 807 l 33 807 l 33 901 l 475 901 l 475 511 q 561 536 532 511 q 644 642 590 561 l 729 769 q 826 878 785 856 q 968 901 868 901 l 1017 901 l 1017 807 l 960 807 q 825 708 885 807 l 764 607 q 694 519 736 560 q 615 469 653 479 q 825 281 665 457 l 1078 0 l 918 0 l 663 281 q 544 394 581 369 q 475 418 507 418 l 475 0 z "},"ҡ":{"ha":876,"x_min":33,"x_max":896,"o":"m 558 208 q 472 293 499 275 q 422 311 446 311 l 422 0 l 297 0 l 297 581 l 33 581 l 33 672 l 422 672 l 422 379 q 491 394 468 379 q 544 458 514 408 l 613 568 q 690 652 653 632 q 804 672 728 672 l 851 672 l 851 601 l 825 601 q 708 528 754 601 l 656 442 q 556 344 607 357 q 708 208 594 335 l 896 0 l 742 0 l 558 208 z "},"Ң":{"ha":982,"x_min":117,"x_max":951,"o":"m 951 -250 l 840 -250 l 840 0 l 731 0 l 731 418 l 251 418 l 251 0 l 117 0 l 117 901 l 251 901 l 251 513 l 731 513 l 731 901 l 865 901 l 865 93 l 951 93 l 951 -250 z "},"ң":{"ha":801,"x_min":117,"x_max":769,"o":"m 769 -250 l 658 -250 l 658 0 l 560 0 l 560 301 l 242 301 l 242 0 l 117 0 l 117 672 l 242 672 l 242 393 l 560 393 l 560 672 l 685 672 l 685 93 l 769 93 l 769 -250 z "},"Ҥ":{"ha":1099,"x_min":117,"x_max":1099,"o":"m 865 0 l 731 0 l 731 418 l 251 418 l 251 0 l 117 0 l 117 901 l 251 901 l 251 513 l 731 513 l 731 901 l 1099 901 l 1099 807 l 865 807 l 865 0 z "},"ҥ":{"ha":908,"x_min":117,"x_max":908,"o":"m 685 0 l 560 0 l 560 301 l 242 301 l 242 0 l 117 0 l 117 672 l 242 672 l 242 393 l 560 393 l 560 672 l 908 672 l 908 582 l 685 582 l 685 0 z "},"Ҧ":{"ha":1518,"x_min":117,"x_max":1404,"o":"m 838 0 l 703 0 l 703 808 l 251 808 l 251 0 l 117 0 l 117 901 l 838 901 l 838 510 q 1082 569 967 569 q 1321 471 1238 569 q 1404 186 1404 372 q 1307 -147 1404 -31 q 1031 -264 1210 -264 q 823 -218 915 -264 q 718 -99 731 -172 l 838 -99 q 902 -146 849 -129 q 1026 -162 956 -162 q 1218 -76 1150 -162 q 1286 174 1286 11 q 1065 479 1286 479 q 838 422 971 479 l 838 0 z "},"ҧ":{"ha":1229,"x_min":117,"x_max":1149,"o":"m 1149 61 q 1063 -174 1149 -85 q 843 -264 978 -264 q 656 -216 732 -264 q 571 -89 581 -168 l 685 -89 q 843 -182 713 -182 q 976 -115 926 -182 q 1026 51 1026 -49 q 970 211 1026 151 q 817 271 914 271 q 685 253 761 271 l 685 0 l 558 0 l 558 581 l 242 581 l 242 0 l 117 0 l 117 672 l 685 672 l 685 340 q 832 363 756 363 q 1059 276 969 363 q 1149 61 1149 190 z "},"Ҩ":{"ha":972,"x_min":81,"x_max":910,"o":"m 910 -25 l 910 -131 q 604 -6 725 -118 q 504 -14 569 -14 q 182 124 294 -14 q 81 457 81 249 q 193 788 81 660 q 507 918 307 918 q 750 836 651 918 l 681 767 q 504 828 617 828 q 272 708 357 828 q 203 458 203 614 q 268 201 203 299 q 494 75 354 75 l 529 78 q 463 351 463 199 q 510 560 463 492 q 696 646 564 646 q 910 358 910 646 q 862 171 910 256 q 725 36 814 86 q 910 -25 819 -22 m 797 357 q 771 502 797 450 q 696 554 744 554 q 597 490 625 554 q 581 351 581 451 q 644 106 581 199 q 758 204 719 139 q 797 357 797 269 z "},"ҩ":{"ha":724,"x_min":65,"x_max":638,"o":"m 638 -18 l 638 -117 q 447 0 514 -64 q 369 -10 413 -10 q 145 83 225 -10 q 65 336 65 176 q 144 592 65 497 q 369 688 224 688 q 544 635 475 688 l 471 575 q 375 608 431 608 q 230 539 279 608 q 181 340 181 469 q 228 140 181 210 q 368 69 275 69 l 381 69 q 313 300 313 179 q 356 424 313 376 q 472 471 400 471 q 638 293 638 471 q 542 43 638 128 q 638 -18 581 8 m 535 294 q 520 372 535 350 q 472 393 506 393 q 417 296 417 393 q 472 111 417 183 q 535 294 535 163 z "},"Ҫ":{"ha":783,"x_min":89,"x_max":721,"o":"m 721 13 q 490 -14 601 -12 q 508 -126 508 -86 q 469 -229 508 -190 q 367 -268 432 -268 q 226 -229 300 -268 l 226 -151 q 335 -182 283 -182 q 402 -154 376 -182 q 428 -83 428 -126 q 415 -12 428 -57 q 89 231 89 6 l 89 658 q 468 917 89 917 q 715 890 594 917 l 715 790 q 471 824 582 824 q 378 817 418 824 q 299 795 338 811 q 239 745 260 779 q 218 660 218 711 l 218 238 q 476 82 218 82 q 721 115 588 82 l 721 13 z "},"ҫ":{"ha":644,"x_min":83,"x_max":594,"o":"m 594 6 q 421 -12 524 -10 q 439 -126 439 -87 q 400 -229 439 -190 q 297 -268 363 -268 q 157 -229 231 -268 l 157 -151 q 265 -182 214 -182 q 333 -154 307 -182 q 358 -83 358 -126 q 346 -14 358 -49 q 242 -7 282 -14 q 161 21 201 0 q 102 88 121 42 q 83 206 83 133 l 83 453 q 94 549 83 508 q 126 614 104 589 q 172 654 149 639 q 237 676 196 669 q 309 684 278 682 q 393 686 340 686 q 585 665 489 686 l 585 574 q 378 601 476 601 q 241 579 271 601 q 211 471 211 557 l 211 193 q 246 97 211 119 q 392 74 281 74 q 594 100 490 74 l 594 6 z "},"Ҭ":{"ha":813,"x_min":33,"x_max":779,"o":"m 558 -250 l 447 -250 l 447 0 l 339 0 l 339 807 l 33 807 l 33 901 l 779 901 l 779 807 l 475 807 l 475 93 l 558 93 l 558 -250 z "},"ҭ":{"ha":718,"x_min":33,"x_max":685,"o":"m 506 -250 l 394 -250 l 394 0 l 297 0 l 297 581 l 33 581 l 33 672 l 685 672 l 685 581 l 422 581 l 422 93 l 506 93 l 506 -250 z "},"Ү":{"ha":811,"x_min":11,"x_max":800,"o":"m 800 901 l 472 368 l 472 0 l 338 0 l 338 364 l 11 901 l 165 901 l 406 478 l 646 901 l 800 901 z "},"ү":{"ha":643,"x_min":8,"x_max":635,"o":"m 383 -289 l 258 -289 l 258 29 l 8 672 l 140 672 l 326 164 l 333 164 l 514 672 l 635 672 l 383 1 l 383 -289 z "},"Ұ":{"ha":811,"x_min":11,"x_max":800,"o":"m 56 418 l 56 513 l 247 513 l 11 901 l 165 901 l 406 478 l 646 901 l 800 901 l 561 513 l 728 513 l 728 418 l 503 418 l 472 368 l 472 0 l 338 0 l 338 364 l 304 418 l 56 418 z "},"ұ":{"ha":643,"x_min":8,"x_max":635,"o":"m 42 -94 l 42 0 l 258 0 l 258 29 l 8 672 l 140 672 l 326 164 l 333 164 l 514 672 l 635 672 l 383 6 l 383 0 l 601 0 l 601 -94 l 383 -94 l 383 -289 l 258 -289 l 258 -94 l 42 -94 z "},"Ҳ":{"ha":839,"x_min":11,"x_max":868,"o":"m 868 -250 l 757 -250 l 757 0 l 674 0 l 419 367 l 165 0 l 11 0 l 343 460 l 25 901 l 179 901 l 419 553 l 660 901 l 814 901 l 496 460 l 760 93 l 868 93 l 868 -250 z "},"ҳ":{"ha":665,"x_min":14,"x_max":690,"o":"m 690 -250 l 579 -250 l 579 0 l 514 0 l 332 265 l 151 0 l 14 0 l 264 346 l 28 672 l 165 672 l 332 426 l 500 672 l 638 672 l 401 346 l 583 93 l 690 93 l 690 -250 z "},"Ҵ":{"ha":1285,"x_min":31,"x_max":1118,"o":"m 1118 94 l 1118 -250 l 1000 -250 l 1000 0 l 321 0 l 321 807 l 31 807 l 31 901 l 749 901 l 749 807 l 457 807 l 457 94 l 901 94 l 901 901 l 1036 901 l 1036 94 l 1118 94 z "},"ҵ":{"ha":960,"x_min":26,"x_max":919,"o":"m 919 92 l 919 -204 l 815 -204 l 815 0 l 258 0 l 258 581 l 26 581 l 26 672 l 615 672 l 615 581 l 383 581 l 383 92 l 715 92 l 715 672 l 840 672 l 840 92 l 919 92 z "},"Ҷ":{"ha":847,"x_min":96,"x_max":813,"o":"m 813 -250 l 701 -250 l 701 0 l 596 0 l 596 414 q 517 340 585 363 q 357 318 450 318 q 96 511 96 318 l 96 901 l 229 901 l 229 519 q 393 408 229 408 q 553 435 511 408 q 596 519 596 461 l 596 901 l 731 901 l 731 93 l 813 93 l 813 -250 z "},"ҷ":{"ha":796,"x_min":108,"x_max":771,"o":"m 771 -250 l 660 -250 l 660 0 l 565 0 l 565 308 q 342 213 546 213 q 158 260 208 213 q 108 406 108 308 l 108 672 l 233 672 l 233 413 q 238 371 233 388 q 255 337 242 354 q 299 310 268 319 q 378 301 331 301 q 525 325 488 301 q 563 413 563 349 l 563 672 l 688 672 l 688 93 l 771 93 l 771 -250 z "},"Ҹ":{"ha":847,"x_min":96,"x_max":731,"o":"m 379 164 l 379 318 l 357 318 q 96 511 96 318 l 96 901 l 229 901 l 229 519 q 379 408 229 411 l 379 589 l 444 589 l 444 410 q 563 442 531 415 q 596 519 596 468 l 596 901 l 731 901 l 731 0 l 596 0 l 596 414 q 444 324 581 342 l 444 164 l 379 164 z "},"ҹ":{"ha":796,"x_min":108,"x_max":688,"o":"m 354 94 l 354 213 l 342 213 q 158 260 208 213 q 108 406 108 308 l 108 672 l 233 672 l 233 413 q 240 360 233 381 q 274 322 246 340 q 354 301 301 304 l 354 519 l 419 519 l 419 301 q 533 331 503 306 q 563 413 563 356 l 563 672 l 688 672 l 688 0 l 565 0 l 565 308 q 419 217 549 233 l 419 94 l 354 94 z "},"Һ":{"ha":868,"x_min":117,"x_max":779,"o":"m 779 0 l 646 0 l 646 382 q 603 461 646 429 q 468 493 561 493 q 300 466 349 493 q 251 382 251 439 l 251 0 l 117 0 l 117 901 l 251 901 l 251 488 q 336 560 263 538 q 504 583 410 583 q 711 533 643 583 q 779 390 779 482 l 779 0 z "},"һ":{"ha":796,"x_min":108,"x_max":688,"o":"m 688 0 l 563 0 l 563 485 q 558 526 563 510 q 541 560 554 543 q 497 587 528 578 q 418 596 465 596 q 268 571 303 596 q 233 485 233 546 l 233 0 l 108 0 l 108 972 l 233 972 l 233 590 q 454 686 253 686 q 638 638 588 686 q 688 493 688 590 l 688 0 z "},"Ҽ":{"ha":1042,"x_min":1,"x_max":950,"o":"m 950 400 l 313 400 l 313 249 q 622 75 313 75 q 915 119 738 75 l 915 22 q 569 -14 740 -14 q 290 51 397 -14 q 182 258 182 117 l 182 613 q 276 847 182 778 q 578 917 371 917 q 860 850 771 917 q 950 613 950 783 l 950 400 m 819 496 l 819 683 q 574 828 819 828 q 383 797 453 828 q 313 683 313 765 l 313 496 l 819 496 m 182 496 l 182 414 q 45 446 89 414 q 1 551 1 478 q 14 642 1 592 l 108 619 q 100 565 100 592 q 119 512 100 528 q 182 496 138 496 z "},"ҽ":{"ha":839,"x_min":-1,"x_max":757,"o":"m 757 308 l 306 308 l 306 207 q 356 106 306 136 q 510 76 407 76 q 731 110 600 76 l 731 14 q 471 -14 600 -14 q 260 35 342 -14 q 179 192 179 85 l 179 308 q 42 340 86 308 q -1 446 -1 372 q 11 536 -1 486 l 106 514 q 97 460 97 486 q 116 406 97 422 q 179 390 135 390 l 179 457 q 250 633 179 581 q 476 686 321 686 q 690 635 622 686 q 757 457 757 585 l 757 308 m 632 390 l 632 496 q 595 580 632 557 q 474 603 558 603 q 347 581 388 603 q 306 496 306 560 l 306 390 l 632 390 z "},"Ҿ":{"ha":1042,"x_min":1,"x_max":950,"o":"m 950 400 l 313 400 l 313 249 q 622 75 313 75 q 915 119 738 75 l 915 22 q 569 -14 740 -14 q 290 51 397 -14 q 182 258 182 117 l 182 613 q 276 847 182 778 q 578 917 371 917 q 860 850 771 917 q 950 613 950 783 l 950 400 m 819 496 l 819 683 q 574 828 819 828 q 383 797 453 828 q 313 683 313 765 l 313 496 l 819 496 m 182 496 l 182 414 q 45 446 89 414 q 1 551 1 478 q 14 642 1 592 l 108 619 q 100 565 100 592 q 119 512 100 528 q 182 496 138 496 m 658 -258 q 555 -233 589 -258 q 521 -147 521 -207 q 571 0 521 -78 l 675 0 q 631 -135 631 -69 q 685 -181 631 -181 q 728 -171 696 -181 l 728 -244 q 658 -258 699 -258 z "},"ҿ":{"ha":839,"x_min":-1,"x_max":757,"o":"m 553 -254 q 449 -228 483 -254 q 415 -143 415 -203 q 465 4 415 -74 l 569 4 q 525 -131 525 -65 q 579 -176 525 -176 q 622 -167 590 -176 l 622 -240 q 553 -254 593 -254 m 757 308 l 306 308 l 306 207 q 356 106 306 136 q 510 76 407 76 q 731 110 600 76 l 731 14 q 471 -14 600 -14 q 260 35 342 -14 q 179 192 179 85 l 179 308 q 42 340 86 308 q -1 446 -1 372 q 11 536 -1 486 l 106 514 q 97 460 97 486 q 116 406 97 422 q 179 390 135 390 l 179 457 q 250 633 179 581 q 476 686 321 686 q 690 635 622 686 q 757 457 757 585 l 757 308 m 632 390 l 632 496 q 595 580 632 557 q 474 603 558 603 q 347 581 388 603 q 306 496 306 560 l 306 390 l 632 390 z "},"Ӏ":{"ha":368,"x_min":117,"x_max":251,"o":"m 251 0 l 117 0 l 117 901 l 251 901 l 251 0 z "},"Ӂ":{"ha":1325,"x_min":-8,"x_max":1332,"o":"m 594 511 l 594 901 l 729 901 l 729 511 q 810 523 789 511 q 858 579 831 535 l 982 772 q 1074 881 1039 860 q 1208 901 1110 901 l 1271 901 l 1271 807 l 1200 807 q 1138 784 1165 807 q 1079 708 1111 761 l 992 564 q 940 495 965 518 q 875 463 914 472 q 1079 281 926 450 l 1332 0 l 1172 0 l 917 281 q 798 394 835 369 q 729 418 761 418 l 729 0 l 594 0 l 594 418 q 526 394 563 418 q 407 281 489 369 l 151 0 l -8 0 l 244 281 q 449 463 397 450 q 384 495 410 472 q 332 564 358 518 l 244 708 q 185 784 213 761 q 124 807 158 807 l 53 807 l 53 901 l 115 901 q 249 881 214 901 q 342 772 285 860 l 465 579 q 514 523 493 535 q 594 511 535 511 m 781 1045 q 759 1021 781 1045 q 663 997 738 997 q 544 1045 588 997 q 499 1174 501 1093 l 574 1174 q 663 1079 582 1079 q 751 1174 743 1079 l 826 1174 q 781 1045 824 1093 z "},"ӂ":{"ha":1011,"x_min":-19,"x_max":1031,"o":"m 449 379 l 449 672 l 564 672 l 564 379 q 623 388 608 379 q 658 431 638 397 l 749 576 q 816 657 789 642 q 918 672 843 672 l 986 672 l 986 601 l 932 601 q 843 528 886 601 l 776 419 q 690 344 740 357 q 843 208 729 335 l 1031 0 l 883 0 l 700 208 q 614 293 640 275 q 564 311 588 311 l 564 0 l 449 0 l 449 311 q 399 293 425 311 q 313 208 372 275 l 129 0 l -19 0 l 168 208 q 321 344 282 335 q 235 419 271 357 l 168 528 q 79 601 125 601 l 25 601 l 25 672 l 94 672 q 197 657 169 672 q 264 576 224 642 l 354 431 q 390 388 375 397 q 449 379 404 379 m 624 816 q 602 792 624 816 q 506 768 581 768 q 388 816 431 768 q 342 944 344 864 l 417 944 q 506 850 425 850 q 594 944 586 850 l 669 944 q 624 816 667 864 z "},"Ӄ":{"ha":926,"x_min":117,"x_max":814,"o":"m 814 157 q 715 -155 814 -44 q 439 -265 617 -265 q 231 -212 325 -265 q 125 -86 136 -160 l 243 -86 q 313 -142 258 -119 q 435 -164 367 -164 q 622 -83 556 -164 q 688 146 688 -1 q 624 347 688 272 q 449 422 561 422 l 251 422 l 251 0 l 117 0 l 117 901 l 251 901 l 251 506 q 360 535 329 506 q 444 690 392 565 q 508 817 485 786 q 576 876 531 849 q 675 901 621 901 q 747 900 746 901 l 747 797 q 724 798 742 797 q 700 799 706 799 q 615 772 644 799 q 550 654 585 746 q 471 506 504 539 q 724 413 633 506 q 814 157 814 321 z "},"ӄ":{"ha":754,"x_min":108,"x_max":696,"o":"m 696 68 q 606 -170 696 -76 q 379 -264 517 -264 q 196 -213 271 -264 q 108 -81 121 -162 l 222 -81 q 379 -171 251 -171 q 519 -108 464 -171 q 575 57 575 -44 q 519 222 575 163 q 365 282 464 282 l 233 282 l 233 0 l 108 0 l 108 672 l 233 672 l 233 382 q 304 399 282 382 q 349 467 326 417 l 411 604 q 461 660 432 647 q 563 672 490 672 l 586 672 l 586 578 l 553 578 q 498 563 513 578 q 457 482 483 549 q 396 382 433 422 q 612 294 528 382 q 696 68 696 206 z "},"Ӆ":{"ha":911,"x_min":13,"x_max":926,"o":"m 803 117 l 926 117 l 800 -276 l 683 -276 l 776 0 l 668 0 l 668 807 l 314 807 l 314 282 q 270 51 314 117 q 117 -14 226 -14 q 13 3 72 -14 l 35 94 q 90 82 67 82 q 160 121 142 82 q 179 274 179 160 l 179 901 l 803 901 l 803 117 z "},"ӆ":{"ha":911,"x_min":13,"x_max":881,"o":"m 757 117 l 881 117 l 754 -276 l 638 -276 l 731 0 l 632 0 l 632 581 l 314 581 l 314 296 q 270 54 314 125 q 117 -17 226 -17 q 13 0 72 -17 l 35 92 q 90 79 67 79 q 166 119 143 79 q 189 271 189 160 l 189 672 l 757 672 l 757 117 z "},"Ӈ":{"ha":982,"x_min":117,"x_max":865,"o":"m 865 901 l 865 181 q 761 -162 865 -60 q 471 -264 657 -264 q 233 -214 322 -264 q 131 -85 143 -164 l 250 -85 q 467 -162 278 -162 q 666 -85 601 -162 q 731 189 731 -7 l 731 418 l 251 418 l 251 0 l 117 0 l 117 901 l 251 901 l 251 513 l 731 513 l 731 901 l 865 901 z "},"ӈ":{"ha":801,"x_min":117,"x_max":685,"o":"m 685 672 l 685 47 q 605 -181 685 -97 q 389 -264 525 -264 q 202 -216 278 -264 q 117 -89 126 -168 l 231 -89 q 389 -182 258 -182 q 516 -123 472 -182 q 560 38 560 -64 l 560 301 l 242 301 l 242 0 l 117 0 l 117 672 l 242 672 l 242 393 l 560 393 l 560 672 l 685 672 z "},"Ӊ":{"ha":982,"x_min":117,"x_max":976,"o":"m 879 -250 l 768 -250 l 839 0 l 731 0 l 731 418 l 251 418 l 251 0 l 117 0 l 117 901 l 251 901 l 251 513 l 731 513 l 731 901 l 865 901 l 865 93 l 976 93 l 879 -250 z "},"ӊ":{"ha":801,"x_min":117,"x_max":796,"o":"m 699 -250 l 588 -250 l 658 0 l 560 0 l 560 301 l 242 301 l 242 0 l 117 0 l 117 672 l 242 672 l 242 393 l 560 393 l 560 672 l 685 672 l 685 93 l 796 93 l 699 -250 z "},"Ӌ":{"ha":847,"x_min":96,"x_max":731,"o":"m 622 -250 l 511 -250 l 511 93 l 596 93 l 596 414 q 517 340 585 363 q 357 318 450 318 q 96 511 96 318 l 96 901 l 229 901 l 229 519 q 393 408 229 408 q 553 435 511 408 q 596 519 596 461 l 596 901 l 731 901 l 731 0 l 622 0 l 622 -250 z "},"ӌ":{"ha":796,"x_min":108,"x_max":688,"o":"m 593 -250 l 482 -250 l 482 93 l 565 93 l 565 308 q 342 213 546 213 q 158 260 208 213 q 108 406 108 308 l 108 672 l 233 672 l 233 413 q 238 371 233 388 q 255 337 242 354 q 299 310 268 319 q 378 301 331 301 q 525 325 488 301 q 563 413 563 349 l 563 672 l 688 672 l 688 0 l 593 0 l 593 -250 z "},"Ӎ":{"ha":1196,"x_min":117,"x_max":1189,"o":"m 1092 -250 l 981 -250 l 1051 0 l 961 0 l 961 763 l 954 763 l 664 0 l 543 0 l 244 763 l 238 763 l 238 0 l 117 0 l 117 901 l 318 901 l 607 151 l 611 150 l 885 901 l 1079 901 l 1079 93 l 1189 93 l 1092 -250 z "},"ӎ":{"ha":1029,"x_min":117,"x_max":1024,"o":"m 926 -250 l 815 -250 l 886 0 l 797 0 l 797 558 l 790 558 l 583 0 l 457 0 l 242 558 l 235 558 l 235 0 l 117 0 l 117 672 l 318 672 l 522 125 l 528 125 l 718 672 l 913 672 l 913 93 l 1024 93 l 926 -250 z "},"ӏ":{"ha":368,"x_min":117,"x_max":251,"o":"m 251 0 l 117 0 l 117 901 l 251 901 l 251 0 z "},"Ӑ":{"ha":906,"x_min":21,"x_max":885,"o":"m 885 0 l 744 0 l 642 274 l 256 274 l 154 0 l 21 0 l 379 901 l 535 901 l 885 0 m 608 367 l 456 774 l 443 774 l 290 367 l 608 367 m 571 1045 q 549 1021 571 1045 q 453 997 528 997 q 335 1045 378 997 q 289 1174 292 1093 l 364 1174 q 453 1079 372 1079 q 542 1174 533 1079 l 617 1174 q 571 1045 614 1093 z "}}}
